<?xml version="1.0" encoding="UTF-8" standalone="no"?>
<!-- Created with Inkscape (http://www.inkscape.org/) -->

<svg
   width="194.31262mm"
   height="153.33083mm"
   viewBox="0 0 194.31262 153.33083"
   version="1.1"
   id="svg3150"
   inkscape:version="1.2 (dc2aedaf03, 2022-05-15)"
   sodipodi:docname="avklarad.svg"
   xmlns:inkscape="http://www.inkscape.org/namespaces/inkscape"
   xmlns:sodipodi="http://sodipodi.sourceforge.net/DTD/sodipodi-0.dtd"
   xmlns="http://www.w3.org/2000/svg"
   xmlns:svg="http://www.w3.org/2000/svg">
  <sodipodi:namedview
     id="namedview3152"
     pagecolor="#ffffff"
     bordercolor="#000000"
     borderopacity="0.25"
     inkscape:showpageshadow="2"
     inkscape:pageopacity="0.0"
     inkscape:pagecheckerboard="0"
     inkscape:deskcolor="#d1d1d1"
     inkscape:document-units="mm"
     showgrid="false"
     inkscape:zoom="0.70199214"
     inkscape:cx="457.27008"
     inkscape:cy="418.80811"
     inkscape:window-width="1920"
     inkscape:window-height="986"
     inkscape:window-x="-11"
     inkscape:window-y="-11"
     inkscape:window-maximized="1"
     inkscape:current-layer="layer1" />
  <defs
     id="defs3147" />
  <g
     inkscape:label="Lager 1"
     inkscape:groupmode="layer"
     id="layer1"
     transform="translate(15.745142,22.768204)">
    <rect
       style="fill:#ffffff;fill-opacity:1;stroke:none;stroke-width:7.71141;stroke-linejoin:bevel"
       id="rect5848"
       width="194.31262"
       height="153.33083"
       x="-15.745142"
       y="-22.768204"
       ry="2.7983661"
       rx="2.7983661" />
    <g
       aria-label="AVKLARAD!"
       id="text1141"
       style="font-size:18.6826px;font-family:Kaph;-inkscape-font-specification:Kaph;text-align:center;text-anchor:middle;fill:#ff8484;stroke-width:5.67416;stroke-linejoin:bevel">
      <path
         d="m 27.890263,2.9200069 q -0.118591,0 -0.255426,-0.018245 Q 27.443267,2.874395 27.224331,2.874395 26.29385,2.847028 26.202626,1.8618127 26.147892,1.3235933 25.700896,0.89484221 25.2539,0.45696877 24.733925,0.42960168 q -0.364894,0 -0.994337,0.28279326 -0.556464,0.24630381 -0.556464,0.80276796 0,0.072979 0.01824,0.1368355 0.07298,0.2189367 0.07298,0.3831392 0,0.50173 -0.665932,0.5929536 -0.291916,0 -0.611199,0.072979 -0.237181,-0.018245 -0.46524,-0.018245 -0.364895,0 -0.966971,0.03649 l -0.592953,0.00912 q -0.319283,0 -0.437874,-0.018245 -0.675055,-0.063856 -0.857502,-0.063856 -0.291915,0 -0.602076,-0.1550802 -0.50173,-0.2371815 -0.638565,-0.7115444 -0.01825,-0.091224 -0.01825,-0.1824472 0,-0.1277131 0.03649,-0.2554262 0,-0.1550802 0.34665,-1.35923212 0.09122,-0.26454854 0.200692,-0.51085234 0.136836,-0.31016036 0.237182,-0.63856544 0.200692,-0.7845232 0.383139,-1.5690465 0.19157,-0.830135 0.410506,-1.6602701 0.109469,-0.3648945 0.264549,-0.7115443 0.237181,-0.5564642 0.301038,-0.9213587 0.06386,-0.3192827 0.611198,-1.9704305 0.784523,-2.399182 1.19503,-3.867882 0.200692,-0.839257 1.167662,-1.00346 0.164203,0 0.529097,0.03649 l 0.839258,0.01825 0.538219,-0.0091 q 0.173325,0 0.319283,-0.0091 0.15508,-0.01824 0.246304,-0.01824 l 0.182447,0.0091 q 0.118591,0 0.592954,-0.01825 0.474363,-0.01824 0.830135,-0.01824 1.012582,0 1.331865,1.15854 0.15508,0.565586 0.392261,1.112928 0.301038,0.675055 0.556465,1.6329031 0.15508,0.5655866 0.346649,1.1129283 0.173325,0.5108524 0.264549,1.0308271 0.100346,0.602076 0.31016,1.1220507 0.209815,0.5108523 0.319283,1.0217047 0.109468,0.50173 0.301038,0.9669705 0.07298,0.200692 0.07298,0.4378734 0.0091,0.2371815 0.04561,0.4196287 0.109468,0.3740169 0.237181,0.7389115 0.200692,0.5382194 0.246304,0.8210127 0.0091,0.1094683 0.05473,0.2736709 0.136836,0.69329956 0.228059,1.331865 0.09122,0.63856543 0.50173,1.331865 0.05473,0.1185908 0.05473,0.2371815 0,0.3192827 -0.483485,0.6476878 -0.355772,0.2827932 -0.611198,0.2827932 -0.182448,0 -0.839258,0.03649 -0.65681,0.045612 -1.012582,0.045612 -0.301038,0 -0.483485,0.00912 -0.34665,0.027367 -0.592954,0.027367 z m -2.307958,-7.3617472 q 0.328405,0 0.328405,-0.2827933 0,-0.063856 -0.01824,-0.091224 l -0.246304,-1.3592321 -0.145958,-0.2827933 q -0.15508,-0.3648945 -0.419629,-0.602076 -0.100346,-0.072979 -0.182447,-0.072979 -0.164203,0 -0.483485,0.1915696 -0.06386,0.072979 -0.127713,0.1277131 -0.01825,0.018245 -0.03649,0.045612 -0.01825,0.027367 -0.05473,0.045612 -0.200692,0.2463038 -0.200692,0.3466498 l -0.127713,0.3557721 q 0,0.1915697 -0.173325,0.7662786 -0.100346,0.1003459 -0.127713,0.6568101 0.282793,0.03649 0.556464,0.03649 l 0.428751,-0.018245 q 0.237182,0 0.355772,0.054734 0.301038,0 0.574709,0.054734 0.03649,0.027367 0.100346,0.027367 z"
         id="path182" />
      <path
         d="m 40.825775,3.1115765 q -0.127713,0 -0.273671,-0.045612 -0.145958,-0.045612 -0.246304,-0.045612 -1.824473,0.036489 -2.162,0.036489 -0.410506,0 -0.81189,-0.072979 Q 37.058239,2.9200069 36.930526,2.7193149 36.811935,2.5277452 36.720711,2.2084625 36.282838,1.0772895 36.13688,0.58468186 35.899698,-0.18159666 35.571293,-0.92963045 35.242888,-1.6867866 35.005707,-2.4804322 q -0.510852,-1.7241267 -1.167663,-3.3935192 -0.50173,-1.3774768 -0.784523,-2.0251646 -0.255426,-0.602076 -0.483485,-1.2132743 -0.15508,-0.4561182 -0.255426,-0.9396037 -0.136836,-0.647688 -0.264549,-0.866624 -0.136835,-0.264549 -0.136835,-0.50173 0,-0.209815 0.109468,-0.401384 0.237182,-0.401384 0.729789,-0.456118 0.310161,-0.02737 0.629443,-0.109469 0.392262,-0.09122 0.793646,-0.109468 0.46524,0.01825 1.240641,0.06386 0.784523,0.04561 1.122051,0.04561 0.34665,0 0.675055,0.15508 0.638565,0.291916 0.957848,1.3866 0.319283,1.0946832 0.574709,1.7241263 0.209814,0.5382194 0.237181,1.0855612 l 0.07298,0.6932997 q 0.04561,0.5747088 0.446996,0.5747088 0.50173,-0.072979 0.519975,-0.6841772 0,-1.0308271 0.237181,-1.833595 0.02737,-0.1915697 0.19157,-0.602076 l 0.07298,-0.5929538 0.374017,-1.824472 q 0.100346,-0.273671 0.346649,-0.446996 0.246304,-0.173325 0.50173,-0.173325 l 0.127713,0.0091 q 0.547342,0.09122 1.103806,0.09122 0.456119,0.0091 1.569047,0.118591 1.112928,0.109468 1.277131,0.109468 0.529097,0 0.930481,0.419629 0.228059,0.264548 0.228059,0.519974 0,0.237182 -0.246304,1.012583 -0.237181,0.7754005 -0.34665,1.0399491 l -0.11859,0.4561181 q -0.127714,0.6294431 -0.428752,1.1402954 -0.364894,0.6385655 -0.474362,1.3318651 -0.0821,0.4196287 -0.237182,0.8392574 -0.145958,0.4105063 -0.282793,0.8575021 -0.291916,0.9487258 -0.684177,1.8335951 -0.428751,1.0581941 -0.465241,1.3683545 0,0.1368354 -0.957848,2.72758659 -0.136835,0.33752741 -0.200692,0.70242201 -0.09122,0.729789 -0.529097,1.0673165 -0.437874,0.3466498 -0.903114,0.3466498 -0.136836,0.045612 -0.282793,0.045612 z"
         id="path184" />
      <path
         d="m 57.63829,3.0659647 q -0.410506,0 -0.702422,-0.2919157 -0.34665,-0.3466498 -0.711544,-0.6750548 -0.273671,-0.2463038 -0.547342,-0.5108524 -0.392261,-0.3284051 -1.15854,-2.04340936 -0.0821,-0.20069199 -0.182447,-0.42875107 -0.09122,-0.22805907 -0.456118,-0.39226167 l -0.109469,-0.063856 q -0.07298,1.31362032 -0.07298,1.7150043 0,0.33752744 0.02737,0.6750549 0.03649,0.3284051 0.04561,0.6659325 -0.02737,1.0490718 -0.665932,1.1402954 -1.678515,0.1185907 -2.025165,0.1185907 -0.09122,0 -0.15508,-0.036489 -0.310161,-0.027367 -0.519975,-0.027367 -0.218937,0 -0.428751,0.027367 -0.291916,0.036489 -0.50173,0.036489 -0.237181,0 -0.510852,-0.063856 Q 48.64364,2.8287832 48.470315,2.4730111 47.98683,1.6884878 47.98683,1.1685131 q 0.06386,-0.83013505 0.06386,-0.90311396 0,-0.15508017 -0.0091,-0.28279326 -0.0091,-0.13683545 -0.0091,-0.25542617 0,-0.55646416 0.04561,-1.59641361 0.02737,-0.6932996 0.02737,-1.0217047 0,-0.8757468 -0.109469,-2.4812828 -0.109468,-1.5143123 -0.109468,-2.1893672 0,-0.2736709 0.02737,-0.5473418 0,-1.0581941 0.02737,-1.4960675 0.04561,-0.6750551 0.04561,-0.8118901 -0.0091,-0.255426 -0.03649,-0.519975 -0.03649,-0.34665 -0.03649,-0.684177 0.0091,-0.665933 0.547342,-0.976093 0.939603,-0.465241 1.769738,-0.465241 0.392262,0 1.550802,0.06386 0.173325,-0.05473 0.34665,-0.05473 0.492607,0.02737 0.839257,0.182447 0.200692,0.09122 0.273671,0.383139 0.218937,1.030827 0.246304,1.870085 0,0.401384 -0.04561,0.8118901 l 0.02737,0.8757468 q 0,0.3557722 -0.04561,0.9669706 l -0.0091,0.2371814 q 0.620321,-1.1494178 0.821013,-1.7514938 0.164202,-0.1550801 0.255426,-0.4013839 0.401384,-1.1311732 0.757156,-1.6146582 0.355772,-0.483485 0.766279,-0.939604 0.510852,-0.65681 1.286253,-0.802768 0.145958,-0.02737 0.282793,-0.02737 0.547342,0 1.049072,0.374017 0.118591,0.09122 0.738911,0.09122 0.483486,0 0.939604,0.100346 0.374017,0.118591 0.729789,0.319283 0.282793,0.15508 0.583831,0.264548 0.456118,0.182447 0.583831,0.629443 0.02737,0.109469 0.02737,0.209815 0,0.337527 -0.291915,0.65681 -0.15508,0.15508 -0.474363,0.7662783 -0.218937,0.4378734 -0.492608,0.8483797 -0.383139,0.5290971 -0.775401,1.0308271 -0.392261,0.4926076 -0.757156,0.9943376 -0.264548,0.3831392 -0.538219,0.7571561 -0.446996,0.6203207 -0.875747,1.2406414 0.34665,0.3466499 0.675055,0.7936457 0.374017,0.5838312 0.976093,1.0125823 0.483485,0.3466498 1.012582,1.0490718 0.383139,0.4196287 0.976093,1.0399494 0.602076,0.62032068 0.602076,1.03994939 0,0.13683545 -0.04561,0.29191563 -0.255426,0.72978906 -1.021705,0.87574688 -0.492607,0.082101 -0.638565,0.2371814 -0.492608,0.5655866 -1.514312,1.0308271 -0.510853,0.2371814 -0.966971,0.5382194 -0.209814,0.1368355 -0.446996,0.1368355 z"
         id="path186" />
      <path
         d="m 67.271508,2.9291292 h -0.428751 q -0.383139,0 -0.510853,-0.027367 -0.401384,-0.091224 -0.802767,-0.091224 -0.757157,0 -1.049072,-0.6294431 -0.282794,-0.629443 -0.34665,-1.33186501 -0.03649,-0.60207597 -0.03649,-1.20415195 0,-1.09468364 0.100346,-1.74237144 0.05473,-0.3466498 0.0821,-0.6932996 0,-0.3010379 -0.03649,-0.5929536 -0.03649,-0.2919156 -0.03649,-0.5747089 0.05473,-1.6055359 0.34665,-7.7904979 0.04561,-0.483486 0.346649,-0.912237 0.310161,-0.428751 0.811891,-0.446995 0.583831,0 2.162,0.03649 0.976093,0.100346 1.413966,0.100346 0.720667,0 0.985215,0.255426 0.273671,0.255426 0.273671,0.711545 0,0.145957 -0.01824,0.319282 -0.118591,1.222397 -0.118591,1.532557 l -0.07298,2.554262 q 0,0.091224 -0.07298,1.030827 -0.02737,0.00912 -0.02737,0.1824473 0,0.2280591 0,0.2736709 0.0091,0.03649 0.0091,0.054734 0,0.1277131 -0.05473,0.6476878 -0.09122,0.7389114 -0.09122,1.1402954 0,0.1185907 0.01824,0.2463038 0.01825,0.1185907 0.01825,0.2280591 l -0.0091,0.6385654 q 0,0.2919156 0.15508,0.4652405 0.100346,0.1277131 0.218936,0.1277131 0.519975,-0.00912 1.049072,-0.054734 0.866625,-0.100346 2.900912,-0.1824472 0.200692,0.00912 0.401384,0.082101 0.246304,0.091224 0.647688,0.091224 l 0.264548,-0.00912 q 0.383139,0 0.684177,0.2827933 0.301038,0.2827932 0.355773,0.7389114 0.07298,0.69329961 0.164202,2.05253174 -0.03649,0.95784816 -0.07298,1.26800846 -0.07298,0.3922617 -0.446996,0.6294431 -0.374017,0.2280591 -0.729789,0.2280591 L 75.417778,2.54599 q -0.264548,0 -0.529097,0.054734 -0.255426,0.054734 -0.574709,0.054734 -0.127713,0 -0.273671,-0.00912 -0.136835,-0.00912 -0.437873,-0.00912 -0.218937,0.027367 -0.428751,0.072979 -0.474363,0.1185907 -1.19503,0.1368355 -0.711544,0.027367 -0.893991,0.045612 l -0.364895,-0.00912 -2.718464,0.018245 q -0.392262,0.027367 -0.729789,0.027367 z"
         id="path188" />
      <path
         d="m 88.353287,2.9200069 q -0.11859,0 -0.255426,-0.018245 Q 87.906291,2.874395 87.687355,2.874395 86.756874,2.847028 86.66565,1.8618127 86.610916,1.3235933 86.16392,0.89484221 85.716924,0.45696877 85.19695,0.42960168 q -0.364895,0 -0.994338,0.28279326 -0.556464,0.24630381 -0.556464,0.80276796 0,0.072979 0.01824,0.1368355 0.07298,0.2189367 0.07298,0.3831392 0,0.50173 -0.665932,0.5929536 -0.291916,0 -0.611198,0.072979 -0.237182,-0.018245 -0.465241,-0.018245 -0.364895,0 -0.96697,0.03649 l -0.592954,0.00912 q -0.319283,0 -0.437874,-0.018245 -0.675054,-0.063856 -0.857502,-0.063856 -0.291915,0 -0.602076,-0.1550802 -0.50173,-0.2371815 -0.638565,-0.7115444 -0.01824,-0.091224 -0.01824,-0.1824472 0,-0.1277131 0.03649,-0.2554262 0,-0.1550802 0.346649,-1.35923212 0.09122,-0.26454854 0.200692,-0.51085234 0.136836,-0.31016036 0.237182,-0.63856544 0.200692,-0.7845232 0.383139,-1.5690465 0.19157,-0.830135 0.410506,-1.6602701 0.109469,-0.3648945 0.264549,-0.7115443 0.237181,-0.5564642 0.301038,-0.9213587 0.06386,-0.3192827 0.611198,-1.9704305 0.784524,-2.399182 1.19503,-3.867882 0.200692,-0.839257 1.167662,-1.00346 0.164203,0 0.529097,0.03649 l 0.839258,0.01825 0.538219,-0.0091 q 0.173325,0 0.319283,-0.0091 0.15508,-0.01824 0.246304,-0.01824 l 0.182447,0.0091 q 0.118591,0 0.592954,-0.01825 0.474363,-0.01824 0.830135,-0.01824 1.012582,0 1.331865,1.15854 0.15508,0.565586 0.392261,1.112928 0.301038,0.675055 0.556465,1.6329031 0.15508,0.5655866 0.346649,1.1129283 0.173325,0.5108524 0.264549,1.0308271 0.100346,0.602076 0.31016,1.1220507 0.209815,0.5108523 0.319283,1.0217047 0.109468,0.50173 0.301038,0.9669705 0.07298,0.200692 0.07298,0.4378734 0.0091,0.2371815 0.04561,0.4196287 0.109468,0.3740169 0.237181,0.7389115 0.200692,0.5382194 0.246304,0.8210127 0.0091,0.1094683 0.05473,0.2736709 0.136836,0.69329956 0.228059,1.331865 0.09122,0.63856543 0.50173,1.331865 0.05473,0.1185908 0.05473,0.2371815 0,0.3192827 -0.483485,0.6476878 -0.355772,0.2827932 -0.611198,0.2827932 -0.182447,0 -0.839258,0.03649 -0.65681,0.045612 -1.012582,0.045612 -0.301038,0 -0.483485,0.00912 -0.34665,0.027367 -0.592954,0.027367 z m -2.307958,-7.3617472 q 0.328405,0 0.328405,-0.2827933 0,-0.063856 -0.01824,-0.091224 l -0.246304,-1.3592321 -0.145958,-0.2827933 q -0.15508,-0.3648945 -0.419629,-0.602076 -0.100346,-0.072979 -0.182447,-0.072979 -0.164202,0 -0.483485,0.1915696 -0.06386,0.072979 -0.127713,0.1277131 -0.01825,0.018245 -0.03649,0.045612 -0.01824,0.027367 -0.05473,0.045612 -0.200692,0.2463038 -0.200692,0.3466498 l -0.127713,0.3557721 q 0,0.1915697 -0.173325,0.7662786 -0.100346,0.1003459 -0.127713,0.6568101 0.282793,0.03649 0.556464,0.03649 l 0.428751,-0.018245 q 0.237182,0 0.355772,0.054734 0.301038,0 0.574709,0.054734 0.03649,0.027367 0.100346,0.027367 z"
         id="path190" />
      <path
         d="m 104.1441,3.0659647 q -0.29192,0 -1.06732,-0.054734 -0.14596,-0.054734 -0.31928,-0.054734 -0.10947,0 -0.19157,0.00912 -0.073,0.018245 -0.10947,0.018245 -0.0821,0 -0.18245,-0.03649 -0.10034,-0.036489 -0.20069,-0.036489 l -0.0821,0.00912 -0.27367,0.00912 q -0.79365,0 -0.79365,-0.50173 0,-0.1094683 0.0365,-0.2371814 l 0.009,-0.1094684 q 0,-0.3466498 -0.12771,-0.8027679 -0.26455,-0.3557722 -0.26455,-0.60207601 0,-0.100346 -0.073,-0.29191563 -0.0639,-0.19156962 -0.12771,-0.2463038 -0.10947,-0.31928272 -0.20069,-0.5473418 -0.191571,-0.4469958 -0.346651,-0.87574686 -0.04561,-0.1733249 -0.173325,-0.1733249 l -0.05473,0.00912 -0.100346,-0.027367 -0.02737,0.00912 q -0.118591,0.091224 -0.19157,0.3466498 -0.145958,0.34664983 -0.145958,0.79364563 0,0.29191562 -0.100346,0.71154433 -0.01824,0.33752745 -0.01824,0.58383126 l -0.0091,0.29191558 q 0.04561,0.1550802 0.04561,0.3101604 l 0.0091,0.2189367 q 0,0.5838313 -0.337527,0.8939916 -0.310161,0.2736709 -0.839258,0.2736709 -0.127713,0 -0.27367,-0.018245 -0.136836,-0.00912 -0.291916,-0.00912 -0.200692,0 -0.392262,0.018245 -0.191569,0.018245 -0.374017,0.018245 l -0.355772,0.036489 q -0.145958,0 -0.264548,-0.054734 -0.456119,-0.1003459 -1.176785,-0.1003459 -0.264549,0 -0.519975,-0.03649 -0.675055,-0.1915696 -0.830135,-1.1220507 l -0.07298,-2.67285243 q 0,-0.57470887 0.02737,-1.14941777 0.02737,-0.4378734 0.02737,-0.8848692 0,-0.6203207 -0.05473,-1.2497638 -0.04561,-0.4926076 -0.04561,-0.9852152 0,-0.6294431 0.07298,-1.2497638 0.07298,-0.7297891 0.07298,-1.4687005 -0.0091,-0.1824473 -0.04561,-0.3648945 -0.02737,-0.1824473 -0.02737,-0.3648946 0,-0.1642025 0.100346,-1.322743 0.136836,-1.350109 0.136836,-1.906574 0,-0.218936 0.02737,-0.392261 0.06386,-0.383139 0.957848,-0.903114 0.556464,-0.319283 2.399181,-0.410507 l 0.19157,0.0091 q 0.519975,-0.01825 0.830135,-0.01825 0.237182,0 0.34665,0.0091 0.866624,0.07298 1.742374,0.100346 0.1642,0 0.3284,-0.03649 l 0.073,-0.0091 q 0.18245,0 0.79365,0.0821 1.42309,0.100346 2.70934,0.711544 0.67505,0.273671 1.05819,0.966971 0.11859,0.191569 0.3649,0.319282 0.21893,0.136836 0.33752,0.255427 0.31929,0.301038 0.38314,0.483485 l 0.62032,1.0581941 q 0.15509,0.1459578 0.22806,0.4378734 0.073,0.2827933 0.073,0.4743629 0,0.3922616 0.073,0.7206667 0.073,0.3192827 0.073,0.6932996 l -0.0274,0.4196287 q -0.0182,0.6203207 -0.17332,1.204152 -0.15508,0.5838312 -0.71155,1.0217047 -0.0182,0.018245 -0.0547,0.036489 -0.0274,0.018245 -0.31928,0.5290971 -0.42875,0.7115443 -0.7754,1.4595781 -0.0365,0.072979 -0.0365,0.1642025 0,0.1277131 0.12771,0.5655866 0.25543,1.36835447 0.46524,1.5599241 0.10947,0.10034599 0.41051,0.67505488 0.30104,0.57470889 0.54734,0.99433762 0.20069,0.3192827 0.20069,0.6568101 0,0.4834853 -0.43787,0.7571562 -0.41963,0.3101603 -0.72067,0.3101603 -0.22806,0 -0.70242,0.045612 -0.47436,0.045612 -0.8575,0.045612 z m -3.65807,-9.3960342 q 0.21894,0 0.46524,-0.03649 0.3284,0 0.46524,-0.100346 0.64769,-0.7024219 0.65681,-0.8575021 l 0.009,-0.082101 q 0,-0.063856 -0.0274,-0.1185907 -0.23719,-0.6476878 -0.72979,-0.9669705 -0.20982,-0.1824473 -0.50173,-0.2189367 -0.48349,-0.063857 -1.249767,-0.063857 -0.145958,0 -0.246304,0.045612 -0.09122,0.03649 -0.182447,1.3318651 -0.01825,0.1459578 -0.01825,0.2645485 0,0.3284051 0.145958,0.4561182 0.100346,0.1459578 0.519974,0.2554261 0.328401,0.091224 0.693301,0.091224 z"
         id="path192" />
      <path
         d="m 118.59392,2.9200069 q -0.11859,0 -0.25542,-0.018245 -0.19157,-0.027367 -0.41051,-0.027367 -0.93048,-0.027367 -1.02171,-1.0125823 -0.0547,-0.5382194 -0.50173,-0.96697049 -0.44699,-0.43787344 -0.96697,-0.46524053 -0.36489,0 -0.99433,0.28279326 -0.55647,0.24630381 -0.55647,0.80276796 0,0.072979 0.0182,0.1368355 0.073,0.2189367 0.073,0.3831392 0,0.50173 -0.66594,0.5929536 -0.29191,0 -0.61119,0.072979 -0.23719,-0.018245 -0.46525,-0.018245 -0.36489,0 -0.96697,0.03649 l -0.59295,0.00912 q -0.31928,0 -0.43787,-0.018245 -0.67506,-0.063856 -0.8575,-0.063856 -0.29192,0 -0.60208,-0.1550802 -0.50173,-0.2371815 -0.63857,-0.7115444 -0.0182,-0.091224 -0.0182,-0.1824472 0,-0.1277131 0.0365,-0.2554262 0,-0.1550802 0.34665,-1.35923212 0.0912,-0.26454854 0.20069,-0.51085234 0.13684,-0.31016036 0.23718,-0.63856544 0.20069,-0.7845232 0.38314,-1.5690465 0.19157,-0.830135 0.41051,-1.6602701 0.10947,-0.3648945 0.26455,-0.7115443 0.23718,-0.5564642 0.30103,-0.9213587 0.0639,-0.3192827 0.6112,-1.9704305 0.78453,-2.399182 1.19503,-3.867882 0.20069,-0.839257 1.16766,-1.00346 0.16421,0 0.5291,0.03649 l 0.83926,0.01825 0.53822,-0.0091 q 0.17332,0 0.31928,-0.0091 0.15508,-0.01824 0.2463,-0.01824 l 0.18245,0.0091 q 0.11859,0 0.59296,-0.01825 0.47436,-0.01824 0.83013,-0.01824 1.01258,0 1.33187,1.15854 0.15508,0.565586 0.39226,1.112928 0.30104,0.675055 0.55646,1.6329031 0.15508,0.5655866 0.34665,1.1129283 0.17333,0.5108524 0.26455,1.0308271 0.10035,0.602076 0.31016,1.1220507 0.20981,0.5108523 0.31928,1.0217047 0.10947,0.50173 0.30104,0.9669705 0.073,0.200692 0.073,0.4378734 0.009,0.2371815 0.0456,0.4196287 0.10947,0.3740169 0.23718,0.7389115 0.2007,0.5382194 0.24631,0.8210127 0.009,0.1094683 0.0547,0.2736709 0.13684,0.69329956 0.22806,1.331865 0.0912,0.63856543 0.50173,1.331865 0.0547,0.1185908 0.0547,0.2371815 0,0.3192827 -0.48348,0.6476878 -0.35577,0.2827932 -0.6112,0.2827932 -0.18245,0 -0.83926,0.03649 -0.65681,0.045612 -1.01258,0.045612 -0.30104,0 -0.48348,0.00912 -0.34665,0.027367 -0.59296,0.027367 z m -2.30796,-7.3617472 q 0.32841,0 0.32841,-0.2827933 0,-0.063856 -0.0182,-0.091224 l -0.2463,-1.3592321 -0.14596,-0.2827933 q -0.15508,-0.3648945 -0.41963,-0.602076 -0.10034,-0.072979 -0.18244,-0.072979 -0.16421,0 -0.48349,0.1915696 -0.0639,0.072979 -0.12771,0.1277131 -0.0182,0.018245 -0.0365,0.045612 -0.0182,0.027367 -0.0547,0.045612 -0.2007,0.2463038 -0.2007,0.3466498 l -0.12771,0.3557721 q 0,0.1915697 -0.17332,0.7662786 -0.10035,0.1003459 -0.12772,0.6568101 0.2828,0.03649 0.55647,0.03649 l 0.42875,-0.018245 q 0.23718,0 0.35577,0.054734 0.30104,0 0.57471,0.054734 0.0365,0.027367 0.10034,0.027367 z"
         id="path194" />
      <path
         d="m 129.99688,3.0659647 q -1.10381,0 -1.39572,-0.045612 -0.29192,-0.045612 -0.51998,-0.045612 -0.33753,0 -1.13117,-0.200692 h -0.51998 q -0.36489,0 -0.72066,-0.091224 -0.37402,-0.1368354 -1.01258,-0.1368354 -1.15854,-0.00912 -1.15854,-1.1402954 0,-0.54734184 -0.009,-1.08556128 0,-0.81189033 0.0912,-1.95218572 0.0547,-0.5473418 0.27367,-5.3274602 0.0821,-2.0707765 0.35577,-3.1380934 0.20069,-0.729789 0.20069,-1.268008 0,-0.273671 -0.0365,-0.547342 v -0.200692 q 0,-0.574709 0.55647,-1.094683 0.13683,-0.136836 0.2463,-0.155081 1.35011,-0.209814 1.77886,-0.264548 l 0.46524,0.07298 q 2.62724,0.364894 2.80969,0.383139 0.19157,0.0091 0.51085,0.109468 0.76628,0.182448 1.13117,0.602076 0.20982,0.255427 0.67506,0.34665 0.54734,0.109469 1.17678,0.675055 0.31017,0.273671 0.65681,0.483485 0.51998,0.319283 0.93961,0.775401 l 0.23718,0.2280593 q 0.90311,0.8757468 1.28625,2.0251646 0.0639,0.1642025 0.20069,0.301038 0.19157,0.2827933 0.19157,0.6476878 0.073,0.072979 0.073,0.1459578 l -0.009,0.045612 q 0.0547,0.1642026 0.0547,0.3192827 0,0.4196287 0.19156,0.7571562 0.1186,0.2463038 0.1186,0.5382194 l -0.009,0.602076 q 0,0.091224 0.0183,0.200692 0.0365,0.2189367 0.0365,0.602076 0,0.7480338 -0.21894,1.4048439 -0.11859,0.1550802 -0.3284,0.6111984 0,0.4105063 -0.35578,0.6841772 -0.23718,0.20981436 -0.40138,0.51085235 -0.22806,0.40138398 -0.7754,0.91223633 -0.28279,0.28279326 -0.40139,0.38313925 -0.23718,0.19156963 -0.40138,0.42875107 -0.40138,0.6659325 -1.35011,0.8939916 -0.3284,0.072979 -0.60208,0.2554262 -0.56558,0.4469958 -1.07643,0.4469958 -0.15508,0 -0.33753,-0.03649 -0.0639,-0.00912 -0.13684,-0.00912 -0.28279,0 -0.67505,0.1824472 -0.34665,0.1642026 -0.6933,0.1642026 z m 0.33753,-5.0811564 q 0.20981,0 0.37401,-0.1733249 1.18591,-1.1402954 1.39572,-1.6785148 0.10035,-0.3922617 0.10035,-0.7662785 0,-0.6932997 -0.42875,-1.8153503 l -0.14596,-0.4469958 q -0.18245,-0.4469958 -0.53822,-0.8301351 -0.27367,-0.3284051 -0.44699,-0.5838313 -0.10947,-0.018245 -0.19157,-0.018245 -0.13684,0 -0.18245,0.054734 -0.11859,0.1459578 -0.20981,0.301038 -0.0912,0.1459578 -0.2007,0.2827933 -0.26455,0.3466498 -0.26455,0.6568101 0.0639,0.301038 0.0639,0.5108524 0,0.082101 -0.009,0.1459578 -0.0365,0.228059 -0.0365,0.4926076 0,0.2554262 -0.0821,0.5382194 -0.0547,0.2919156 -0.0547,1.4230887 0,0.3831392 -0.11859,1.0399494 0.0274,0 0.0365,0.00912 l 0.0912,0.3557721 0.17332,0.3101604 0.38314,0.1185907 q 0.15508,0.072979 0.29192,0.072979 z"
         id="path196" />
      <path
         d="m 141.95629,-3.228466 q -0.58383,0 -1.2224,-0.4652405 -0.53822,-0.3101604 -0.54734,-0.9760929 0,-0.3375274 -0.14596,-0.6841772 0.0274,-0.2645486 0.0365,-0.5199748 0,-0.1368354 -0.31928,-0.7754008 v -0.072979 l 0.009,-0.4105064 q 0.19157,-0.3831392 0.19157,-0.5929536 -0.0365,-0.401384 -0.13683,-0.802768 -0.14596,-0.6385654 -0.14596,-1.1950296 0,-0.1185907 0,-0.2463038 0.009,-0.1368355 0.009,-0.2919155 0,-0.07298 0.0182,-0.136836 0.0182,-0.07298 0.0182,-0.136835 l -0.0182,-0.109468 q -0.0821,-0.264549 -0.0821,-0.519975 0,-0.519975 0.48348,-1.304498 0.18245,-0.355772 0.49261,-0.437873 0.27367,-0.06386 0.51997,-0.06386 0.2007,0 0.49261,0.03649 0.20982,0.02737 0.42875,0.02737 0.20982,0 0.42875,-0.118591 0.0639,-0.03649 0.15508,-0.03649 0.13684,0 0.27367,0.02737 0.6112,0.03649 1.84272,0.182448 0.63857,0.09122 0.66593,1.140295 -0.009,0.337528 -0.0456,0.675055 -0.0274,0.328405 -0.0274,0.665933 0,0.5290966 0.0365,1.0581937 0.0274,0.3284051 0.0365,0.6659325 l -0.45611,1.6693925 0.0365,0.50173 q 0.0456,0.401384 0.0456,0.8027679 -0.20982,0.8757469 -0.40139,1.7423714 l -0.0274,0.1277131 q -0.073,0.2919156 -0.2828,0.3922616 -0.20981,0.091224 -0.45612,0.1277131 l -0.22805,0.03649 -0.14596,0.00912 q -0.1642,0 -0.34665,-0.054734 -0.27367,-0.072979 -0.47436,-0.072979 -0.13684,0 -0.27368,0.036489 -0.22805,0.100346 -0.43787,0.100346 z m 3.16546,3.44825333 v 0.0547342 q 0,0.10946835 -0.0274,0.22805908 0,0.0547342 0.009,0.11859072 0.0182,0.0547342 0.0182,0.23718145 0,0.10034599 -0.0274,0.18244724 -0.10034,0.2280591 -0.13683,0.4652405 -0.0182,0.1094684 -0.10035,0.2098144 -0.0365,0.036489 -0.0639,0.082101 -0.0182,0.045612 -0.0456,0.082101 l -0.0821,0.1459579 q -0.10947,0.2189367 -0.3284,0.3192827 -0.10035,0.045612 -0.16421,0.1368354 -0.073,0.1733249 -0.26454,0.2189367 -0.0912,0.027367 -0.18245,0.091224 -0.14596,0.1094683 -0.46524,0.1824472 -0.31928,0.082101 -0.42875,0.091224 -0.46524,0 -0.82102,-0.027367 h -0.0274 q -0.18245,-0.1277131 -0.39226,-0.1368355 -0.2007,-0.00912 -0.47437,-0.1733249 -0.58383,-0.3466498 -1.01258,-1.0855612 -0.27367,-0.5655865 -0.27367,-1.18590723 0,-0.49260762 0.20981,-0.90311396 0.0365,-0.0729789 0.10947,-0.13683545 l 0.23718,-0.28279327 q 0.31016,-0.44699579 0.54735,-0.54734179 0.0547,-0.027367 0.10946,-0.054734 0.0639,-0.036489 0.1186,-0.063856 0.0638,-0.03649 0.10946,-0.063857 0.0456,-0.036489 0.0547,-0.036489 0.15508,-0.045612 0.31016,-0.1277131 0.30104,-0.1459578 0.50173,-0.1459578 l 0.12771,0.00912 v -0.036489 l 0.25543,0.045612 q 0.28279,0.063856 0.56558,0.100346 0.33753,0.063856 0.62945,0.2189367 0.11859,0.054734 0.22806,0.1094684 0.11859,0.054734 0.13683,0.100346 0.13684,0.200692 0.35577,0.2919156 0.0821,0.03649 0.11859,0.10946836 0.0456,0.0729789 0.073,0.20069199 0.0274,0.0638566 0.073,0.100346 0.25543,0.20981436 0.25543,0.42875107 l -0.009,0.0638565 q 0,0.09122363 0.0456,0.13683545 0.10947,0.11859072 0.12771,0.24630381 z"
         id="path198" />
    </g>
  </g>
</svg>
