<?xml version="1.0" encoding="UTF-8" standalone="no"?>
<!-- Created with Inkscape (http://www.inkscape.org/) -->

<svg
   width="525"
   height="105"
   viewBox="0 0 138.90625 27.78125"
   version="1.1"
   id="svg5"
   xml:space="preserve"
   inkscape:version="1.2 (dc2aedaf03, 2022-05-15)"
   sodipodi:docname="avsluta1.svg"
   inkscape:export-filename="spela1.png"
   inkscape:export-xdpi="96"
   inkscape:export-ydpi="96"
   xmlns:inkscape="http://www.inkscape.org/namespaces/inkscape"
   xmlns:sodipodi="http://sodipodi.sourceforge.net/DTD/sodipodi-0.dtd"
   xmlns="http://www.w3.org/2000/svg"
   xmlns:svg="http://www.w3.org/2000/svg"><sodipodi:namedview
     id="namedview7"
     pagecolor="#ffffff"
     bordercolor="#000000"
     borderopacity="0.25"
     inkscape:showpageshadow="2"
     inkscape:pageopacity="0.0"
     inkscape:pagecheckerboard="0"
     inkscape:deskcolor="#d1d1d1"
     inkscape:document-units="mm"
     showgrid="false"
     showguides="false"
     inkscape:zoom="1.9855336"
     inkscape:cx="244.26683"
     inkscape:cy="103.75045"
     inkscape:window-width="1920"
     inkscape:window-height="986"
     inkscape:window-x="-11"
     inkscape:window-y="-11"
     inkscape:window-maximized="1"
     inkscape:current-layer="layer1" /><defs
     id="defs2" /><g
     inkscape:label="Lager 1"
     inkscape:groupmode="layer"
     id="layer1"><rect
       style="fill:#ff8484;fill-opacity:1;stroke:none;stroke-width:2.19981;stroke-linejoin:bevel"
       id="rect184"
       width="138.90625"
       height="17.45479"
       x="-1.1546319e-14"
       y="10.260675"
       ry="2.7983661"
       rx="2.7983661" /><rect
       style="fill:#ffecec;fill-opacity:1;stroke:none;stroke-width:2.64234;stroke-linejoin:bevel"
       id="rect5848"
       width="138.90625"
       height="25.183611"
       x="-2.1316282e-14"
       y="-3.1789145e-07"
       ry="2.7983661"
       rx="2.7983661" /><g
       aria-label="AVSLUTA"
       id="text290"
       style="font-size:13.8536px;font-family:'Source Sans Pro';-inkscape-font-specification:'Source Sans Pro';fill:#ff8484;stroke-width:0.353267;stroke-linejoin:bevel"><path
         d="m 38.495609,18.517465 q -0.08794,0 -0.189405,-0.01353 -0.142054,-0.02029 -0.3044,-0.02029 -0.689975,-0.02029 -0.757619,-0.750854 -0.04059,-0.399103 -0.372045,-0.717032 -0.331458,-0.324694 -0.717032,-0.344987 -0.270578,0 -0.737325,0.209698 -0.412632,0.18264 -0.412632,0.595272 0,0.05412 0.01353,0.101467 0.05411,0.162346 0.05411,0.284107 0,0.372044 -0.493805,0.439689 -0.216462,0 -0.453218,0.05412 -0.175876,-0.01353 -0.344987,-0.01353 -0.270578,0 -0.717032,0.02706 l -0.439689,0.0068 q -0.236756,0 -0.324694,-0.01353 -0.50057,-0.04735 -0.635859,-0.04735 -0.216462,0 -0.446454,-0.114996 -0.372045,-0.175876 -0.473511,-0.527627 -0.01353,-0.06764 -0.01353,-0.135289 0,-0.0947 0.02706,-0.189405 0,-0.114996 0.257049,-1.007903 0.06764,-0.196169 0.148818,-0.37881 0.101466,-0.229991 0.175875,-0.473511 0.148818,-0.581743 0.284107,-1.163486 0.142054,-0.615566 0.304401,-1.231131 0.08117,-0.270578 0.196169,-0.527627 0.175876,-0.412632 0.223227,-0.68321 0.04735,-0.236756 0.453218,-1.461122 0.581743,-1.7790508 0.886144,-2.8681277 0.148818,-0.6223296 0.86585,-0.7440898 0.12176,0 0.392338,0.027058 l 0.62233,0.013529 0.399102,-0.00676 q 0.128525,0 0.236756,-0.00676 0.114996,-0.013529 0.18264,-0.013529 l 0.135289,0.00676 q 0.08794,0 0.43969,-0.013529 0.351751,-0.013529 0.615565,-0.013529 0.750854,0 0.98761,0.8590855 0.114996,0.4193961 0.290872,0.8252632 0.223227,0.5005695 0.412631,1.2108371 0.114996,0.4193961 0.257049,0.8252631 0.128525,0.37881 0.19617,0.764383 0.07441,0.446454 0.229991,0.832028 0.155582,0.378809 0.236756,0.757619 0.08117,0.372045 0.223227,0.717032 0.05412,0.148818 0.05412,0.324694 0.0068,0.175875 0.03382,0.311164 0.08117,0.277343 0.175875,0.547921 0.148818,0.399103 0.182641,0.608801 0.0068,0.08117 0.04059,0.202933 0.101467,0.514099 0.169112,0.987611 0.06764,0.473511 0.372045,0.98761 0.04059,0.08794 0.04059,0.175875 0,0.236756 -0.358516,0.480277 -0.263813,0.209698 -0.453218,0.209698 -0.135289,0 -0.62233,0.02706 -0.48704,0.03382 -0.750854,0.03382 -0.223227,0 -0.358516,0.0068 -0.257049,0.02029 -0.439689,0.02029 z m -1.711407,-5.458913 q 0.24352,0 0.24352,-0.209698 0,-0.04735 -0.01353,-0.06764 l -0.18264,-1.007903 -0.108231,-0.209698 q -0.114996,-0.270578 -0.311165,-0.446454 -0.07441,-0.05412 -0.135289,-0.05412 -0.12176,0 -0.358516,0.142054 -0.04735,0.05412 -0.0947,0.0947 -0.01353,0.01353 -0.02706,0.03382 -0.01353,0.02029 -0.04059,0.03382 -0.148818,0.18264 -0.148818,0.257049 l -0.0947,0.263814 q 0,0.142053 -0.128525,0.568214 -0.07441,0.07441 -0.0947,0.48704 0.209698,0.02706 0.412632,0.02706 l 0.317929,-0.01353 q 0.175876,0 0.263814,0.04059 0.223226,0 0.42616,0.04059 0.02706,0.02029 0.07441,0.02029 z"
         style="font-family:Kaph;-inkscape-font-specification:Kaph"
         id="path237" /><path
         d="m 48.087603,18.659519 q -0.0947,0 -0.202934,-0.03382 -0.108231,-0.03382 -0.18264,-0.03382 -1.352891,0.02706 -1.603176,0.02706 -0.3044,0 -0.602036,-0.05411 -0.202933,-0.04735 -0.297636,-0.196169 -0.08794,-0.142054 -0.155582,-0.37881 -0.324694,-0.838792 -0.432925,-1.204072 -0.175876,-0.568215 -0.419396,-1.1229 -0.243521,-0.561449 -0.419396,-1.149957 -0.37881,-1.278481 -0.86585,-2.516376 Q 42.533987,10.9751 42.324289,10.494824 42.134884,10.04837 41.965773,9.5951521 41.850777,9.2569295 41.776368,8.8984135 41.674901,8.4181373 41.580199,8.2557904 41.478732,8.0596213 41.478732,7.8837455 q 0,-0.1555824 0.08117,-0.2976359 0.175875,-0.2976359 0.541156,-0.3382227 0.229991,-0.020293 0.466747,-0.081173 0.290872,-0.067645 0.588507,-0.081173 0.344988,0.013529 0.919966,0.047351 0.581743,0.033822 0.832028,0.033822 0.257049,0 0.500569,0.1149957 0.473512,0.2164625 0.710268,1.0281969 0.236756,0.8117343 0.42616,1.2784816 0.155583,0.3991027 0.175876,0.8049703 l 0.05412,0.514098 q 0.03382,0.426161 0.331458,0.426161 0.372045,-0.05412 0.385574,-0.507334 0,-0.764384 0.175876,-1.3596555 Q 47.6885,9.324574 47.81026,9.0201736 l 0.05412,-0.4396894 0.277342,-1.3528906 Q 48.216127,7.02466 48.398767,6.8961354 48.581408,6.7676108 48.770812,6.7676108 l 0.0947,0.00676 q 0.405867,0.067645 0.818498,0.067645 0.338223,0.00676 1.163486,0.087938 0.825264,0.081173 0.947024,0.081173 0.392338,0 0.689974,0.3111648 0.169111,0.1961692 0.169111,0.3855738 0,0.1758758 -0.18264,0.7508543 -0.175876,0.5749785 -0.257049,0.7711476 l -0.08794,0.3382227 q -0.0947,0.4667477 -0.317929,0.8455567 -0.270578,0.473512 -0.351752,0.98761 -0.06088,0.311165 -0.175876,0.62233 -0.108231,0.3044 -0.209698,0.635858 -0.216462,0.703503 -0.507334,1.359655 -0.317929,0.784677 -0.344987,1.014668 0,0.101467 -0.710267,2.022572 -0.101467,0.250284 -0.148818,0.520863 -0.06764,0.541156 -0.392339,0.791441 -0.324693,0.257049 -0.66968,0.257049 -0.101467,0.03382 -0.209698,0.03382 z"
         style="font-family:Kaph;-inkscape-font-specification:Kaph"
         id="path239" /><path
         d="m 57.361669,18.625697 q -0.202934,0 -0.581743,-0.0947 l -0.04735,-0.0068 q -0.06764,0 -0.142053,0.03382 -0.175876,-0.06088 -0.257049,-0.06088 -0.06088,0 -0.114996,0.02029 -0.12176,-0.03382 -0.229991,-0.03382 -0.209698,0 -0.405868,-0.06764 l -0.189404,-0.04059 q -0.229992,-0.101467 -0.351752,-0.101467 l -0.08117,0.0068 q -0.0947,-0.04059 -0.18264,-0.04059 -0.304401,0 -0.480277,-0.284107 -0.175875,-0.257049 -0.175875,-0.473512 0,-0.169111 0.12176,-0.338222 0.08794,-0.114996 0.101467,-0.25705 0.01353,-0.574978 0.331458,-1.082312 0.108231,-0.175876 0.128524,-0.412632 0.01353,-0.128524 0.04735,-0.257049 0.236755,-0.642623 0.960552,-0.642623 0.209698,0 0.412631,0.08794 0.662917,0.317929 1.352891,0.568214 0.02706,0.0068 0.06764,0.0068 0.202933,0 0.331458,-0.101466 0.01353,-0.01353 0.01353,-0.04735 0,-0.04735 -0.02029,-0.135289 -0.135289,-0.229991 -0.270578,-0.250284 -0.358516,-0.08117 -0.676445,-0.270579 -0.473512,-0.263813 -0.852321,-0.284107 -0.290872,-0.02706 -0.574979,-0.175875 -0.12176,-0.06088 -0.250284,-0.108232 -0.108232,-0.06764 -0.142054,-0.06764 l -0.114996,0.0068 q -0.311164,-0.06764 -0.48704,-0.229991 -0.216463,-0.12176 -0.365281,-0.392338 -0.0947,-0.155583 -0.196169,-0.290872 -0.277342,-0.36528 -0.419396,-0.777912 -0.142053,-0.412631 -0.257049,-0.899672 -0.04059,-0.148818 -0.04059,-0.250285 0,-0.263814 0.03382,-0.385574 0.0068,-0.284107 0.08117,-0.446454 0.07441,-0.1691109 0.08794,-0.3449866 0.155582,-0.3044004 0.392338,-0.7237965 0.56145,-0.9876101 1.251424,-1.359655 0.615565,-0.3382227 1.264952,-0.5749785 0.656152,-0.2367559 1.379949,-0.2638137 l 0.561449,-0.020293 q 0.358516,-0.027058 0.717032,-0.027058 0.25705,0 0.514099,0.013529 0.547921,0.06088 1.075548,0.2570492 0.412632,0.1285246 0.757619,0.2908715 l 0.297636,0.1285246 q 0.446453,0.2029336 0.446453,0.5546852 0,0.1758757 -0.114995,0.3923382 -0.07441,0.1014668 -0.108231,0.1894047 -0.473512,1.9143402 -0.473512,2.0090422 l 0.0068,0.07441 q 0,0.128525 -0.04059,0.155583 -0.08117,0.04059 -0.229992,0.04059 -0.128524,0 -0.202933,0.01353 -0.223227,0.06088 -0.432925,0.06088 -0.453219,0 -1.217602,-0.399102 -0.06088,-0.02029 -0.128525,-0.02029 -0.148818,0 -0.3044,0.128525 l -0.04735,0.128525 0.05412,0.08794 q 0.142053,0.229992 1.420535,0.615566 0.351751,0.08117 0.791441,0.392338 0.142053,0.108231 0.290871,0.162347 0.284107,0.101467 0.426161,0.263813 0.541156,0.696739 0.66968,0.798206 0.07441,0 0.13529,0.02706 0.189404,0.284107 0.196169,0.331458 0.12176,0.344987 0.175875,1.264953 -0.0068,0.284107 -0.08794,0.574978 -0.04059,0.155583 -0.06765,0.311165 -0.08794,0.642623 -0.568214,1.082312 -0.175876,0.162347 -0.209698,0.277343 -0.114996,0.487041 -0.453218,0.717032 -0.331459,0.229991 -0.784677,0.446454 l -0.202934,0.135289 q -0.459982,0.216462 -0.852321,0.216462 l -0.500569,-0.0068 q -0.108231,0 -0.202934,0.02706 -0.399102,0.128524 -0.669681,0.128524 l -0.419396,-0.0068 q -0.05411,-0.02029 -0.114995,-0.02029 -0.06088,0 -0.270578,-0.01353 -0.148818,0.04735 -0.284107,0.06088 z"
         style="font-family:Kaph;-inkscape-font-specification:Kaph"
         id="path241" /><path
         d="m 66.757493,18.52423 h -0.317929 q -0.284107,0 -0.378809,-0.02029 -0.297636,-0.06764 -0.595272,-0.06764 -0.56145,0 -0.777912,-0.466747 -0.209698,-0.466747 -0.25705,-0.98761 -0.02706,-0.446454 -0.02706,-0.892908 0,-0.811734 0.07441,-1.292011 0.04059,-0.257049 0.06088,-0.514098 0,-0.223227 -0.02706,-0.439689 -0.02706,-0.216463 -0.02706,-0.426161 0.04059,-1.190544 0.257049,-5.7768428 0.03382,-0.358516 0.25705,-0.6764453 0.229991,-0.3179293 0.602036,-0.3314582 0.432925,0 1.603175,0.027058 0.723797,0.074409 1.04849,0.074409 0.534392,0 0.730561,0.1894047 0.202934,0.1894047 0.202934,0.5276273 0,0.1082313 -0.01353,0.2367559 -0.08794,0.9064367 -0.08794,1.1364281 l -0.05412,1.8940465 q 0,0.06764 -0.05411,0.764383 -0.02029,0.0068 -0.02029,0.13529 0,0.169111 0,0.202933 0.0068,0.02706 0.0068,0.04059 0,0.0947 -0.04059,0.480276 -0.06764,0.547921 -0.06764,0.845557 0,0.08794 0.01353,0.18264 0.01353,0.08794 0.01353,0.169111 l -0.0068,0.473512 q 0,0.216462 0.114996,0.344987 0.07441,0.0947 0.162347,0.0947 0.385573,-0.0068 0.777912,-0.04059 0.642623,-0.07441 2.151096,-0.135289 0.148818,0.0068 0.297636,0.06088 0.18264,0.06764 0.480276,0.06764 l 0.196169,-0.0068 q 0.284107,0 0.507334,0.209698 0.223227,0.209698 0.263814,0.54792 0.05411,0.514099 0.12176,1.522002 -0.02706,0.710268 -0.05412,0.940259 -0.05412,0.290872 -0.331458,0.466748 -0.277343,0.169111 -0.541156,0.169111 l -0.223227,-0.01353 q -0.196169,0 -0.392339,0.04059 -0.189404,0.04059 -0.42616,0.04059 -0.0947,0 -0.202934,-0.0068 -0.101466,-0.0068 -0.324693,-0.0068 -0.162347,0.02029 -0.31793,0.05412 -0.351751,0.08794 -0.886143,0.101467 -0.527627,0.02029 -0.662916,0.03382 l -0.270579,-0.0068 -2.015807,0.01353 q -0.290871,0.02029 -0.541156,0.02029 z"
         style="font-family:Kaph;-inkscape-font-specification:Kaph"
         id="path243" /><path
         d="m 79.643776,18.558052 q -0.290872,0 -0.960552,-0.135289 -0.662917,-0.135289 -1.190544,-0.581743 -0.527628,-0.446454 -0.703503,-0.622329 -0.169112,-0.175876 -0.304401,-0.399103 -0.08794,-0.135289 -0.18264,-0.263814 -0.351751,-0.459983 -0.696739,-1.488179 -0.07441,-0.405868 -0.162346,-0.80497 l 0.0068,-0.114996 q 0,-0.338223 -0.07441,-0.656152 -0.07441,-0.602036 -0.07441,-1.204073 0,-0.642623 0.114996,-1.542295 0.02029,-0.236756 0.02029,-0.439689 0,-0.202934 -0.02029,-0.4058675 -0.01353,-0.4667473 -0.01353,-1.0958414 0,-0.642623 0.03382,-1.2784816 0.05412,-0.3923383 0.399103,-0.4870406 0.351751,-0.094702 0.629094,-0.094702 0.128525,0 0.257049,0.033822 l 0.277343,-0.074409 q 0.04735,0 0.08794,-0.00676 0.135289,-0.027058 0.263813,-0.027058 0.250285,0 0.615566,0.047351 0.3044,0.1082312 0.48704,0.1082312 0.06764,0 0.290872,-0.020293 0.236755,0 0.42616,0.1961692 0.223227,0.2164625 0.270578,0.5208629 0.02029,0.1961691 0.05412,0.3991027 0.142053,0.8929078 0.142053,2.2322696 0,0.723796 -0.02706,1.062019 -0.01353,0.277343 -0.01353,0.554685 0,0.967317 0.257049,2.130803 0.05411,0.223227 0.270578,0.277342 0.216462,0.05412 0.344987,0.05412 0.331458,0 0.446454,-0.189405 0.101467,-0.162347 0.101467,-0.568214 l -0.03382,-0.798205 Q 80.95608,11.360674 80.8952,9.9401392 80.780204,9.4936853 80.780204,9.1351693 q 0,-0.1555824 0.02029,-0.2908715 0,-0.4126316 0.05412,-0.8320277 0.05412,-0.2908714 0.05412,-0.7508542 0.114995,-0.3246938 0.554685,-0.3382227 0.825263,-0.074409 1.251423,-0.074409 0.791441,0 1.562589,0.1082313 0.317929,0.06088 0.473512,0.2976359 0.162347,0.2367559 0.189404,0.5411562 0.02029,0.2164625 0.02029,0.432925 0,0.1691113 -0.01353,0.3314582 l -0.0068,0.4735117 q 0.02029,0.3720449 0.06088,0.7440898 l 0.142053,1.8466957 q 0.04735,0.500569 0.08794,1.007903 0,0.121761 -0.01353,0.243521 -0.0068,0.07441 -0.0068,0.155582 0,0.223227 0.07441,0.892908 0,0.175876 -0.04059,0.635859 -0.08794,0.284107 -0.142054,0.581742 -0.08794,0.534392 -0.378809,0.933495 -0.08117,0.108231 -0.128525,0.263814 -0.392338,0.98761 -1.562588,1.623468 -0.142054,0.07441 -0.527628,0.202934 -0.169111,0.05412 -0.338222,0.08794 -0.250285,0.05411 -0.487041,0.148818 -0.338222,0.135289 -0.689974,0.135289 z"
         style="font-family:Kaph;-inkscape-font-specification:Kaph"
         id="path245" /><path
         d="m 91.454509,18.625697 q -0.169111,-0.0068 -0.358516,-0.0068 -0.419396,0 -0.777912,-0.04735 -0.405867,-0.06088 -0.771147,-0.311165 -0.493806,-0.399102 -0.493806,-1.400241 0,-0.25705 0.05412,-0.514099 0.162347,-0.629094 0.162347,-1.285246 l -0.0068,-0.311165 q -0.02706,-0.331458 -0.02706,-0.662916 l 0.01353,-0.662917 -0.01353,-0.649387 q 0,-0.656152 0.135289,-1.312304 0.02029,-0.0947 0.02029,-0.175876 0,-0.48704 -0.615565,-0.568214 -0.757619,-0.108231 -1.474651,-0.344987 -0.270578,-0.101467 -0.446454,-0.5140982 -0.148818,-0.4126317 -0.155582,-0.6426231 0,-0.2299914 0,-0.2705781 0,-0.3923382 0.06764,-0.791441 0.05412,-0.4126316 0.07441,-0.8252632 0.02706,-0.3111649 0.216463,-0.5208629 0.196169,-0.209698 0.500569,-0.2367558 l 0.277343,-0.020293 q 0.385574,-0.047351 0.777912,-0.047351 0.189405,0 0.392338,0.020293 0.209698,0.020293 0.419396,0.020293 0.405868,0 0.80497,-0.094702 0.08117,-0.013529 0.155583,-0.013529 l 0.480276,-0.00676 q 0.02706,0 0.06764,0.00676 0.04735,0.00676 0.121761,0.00676 0.03382,0 0.06088,-0.013529 0.229991,-0.047351 0.453218,-0.047351 0.250285,0 0.635859,0.033822 0.392338,0.027058 0.642623,0.027058 0.311164,0 0.622329,0.06088 0.270578,0.054116 0.541156,0.054116 0.162347,0 0.351752,-0.020293 0.223227,0 0.432925,0.067645 0.114996,0.040587 0.229991,0.06088 0.08117,0.013529 0.155583,0.040587 0.142053,0.047351 0.284107,0.047351 l 0.351751,-0.027058 q 0.419396,0 0.656152,0.2164625 0.277343,0.2638136 0.277343,0.6696808 0,0.094702 -0.03382,0.2164625 l 0.01353,0.3652805 -0.0068,0.1285246 q 0,0.047351 0.0068,0.067645 v 0.4870406 q 0,0.2908715 -0.114996,0.642623 l -0.07441,0.297636 q -0.114996,0.5952719 -0.520863,0.7576189 -0.236756,0.101467 -1.007904,0.114995 -0.344987,0.01353 -0.689974,0.04059 -0.351751,0.06088 -0.351751,0.446454 0,0.108231 0.02706,0.24352 0.08117,0.297636 0.08117,0.595272 0,0.365281 -0.08117,0.906437 -0.06764,0.527627 -0.202934,1.907576 -0.02029,0.162347 -0.04735,0.317929 -0.04735,0.270578 -0.06088,0.534392 0,0.284107 0.02029,0.561449 0.02706,0.365281 0.02706,0.906437 0,0.351752 -0.02029,0.696739 -0.0068,0.0947 -0.07441,0.202933 -0.06088,0.101467 -0.148818,0.148818 -0.852321,0.426161 -2.036101,0.426161 z"
         style="font-family:Kaph;-inkscape-font-specification:Kaph"
         id="path247" /><path
         d="m 105.19311,18.517465 q -0.0879,0 -0.1894,-0.01353 -0.14206,-0.02029 -0.3044,-0.02029 -0.68998,-0.02029 -0.75762,-0.750854 -0.0406,-0.399103 -0.37205,-0.717032 -0.33146,-0.324694 -0.71703,-0.344987 -0.27058,0 -0.73733,0.209698 -0.41263,0.18264 -0.41263,0.595272 0,0.05412 0.0135,0.101467 0.0541,0.162346 0.0541,0.284107 0,0.372044 -0.49381,0.439689 -0.21646,0 -0.45322,0.05412 -0.17587,-0.01353 -0.34498,-0.01353 -0.27058,0 -0.717035,0.02706 l -0.439689,0.0068 q -0.236756,0 -0.324694,-0.01353 -0.50057,-0.04735 -0.635859,-0.04735 -0.216462,0 -0.446454,-0.114996 -0.372044,-0.175876 -0.473511,-0.527627 -0.01353,-0.06764 -0.01353,-0.135289 0,-0.0947 0.02706,-0.189405 0,-0.114996 0.257049,-1.007903 0.06764,-0.196169 0.148818,-0.37881 0.101467,-0.229991 0.175876,-0.473511 0.148818,-0.581743 0.284107,-1.163486 0.142053,-0.615566 0.3044,-1.231131 0.08117,-0.270578 0.196169,-0.527627 0.175876,-0.412632 0.223227,-0.68321 0.04735,-0.236756 0.453218,-1.461122 0.581739,-1.7790508 0.886139,-2.8681277 0.14882,-0.6223296 0.86585,-0.7440898 0.12176,0 0.39234,0.027058 l 0.62233,0.013529 0.39911,-0.00676 q 0.12852,0 0.23675,-0.00676 0.115,-0.013529 0.18264,-0.013529 l 0.13529,0.00676 q 0.0879,0 0.43969,-0.013529 0.35175,-0.013529 0.61557,-0.013529 0.75085,0 0.98761,0.8590855 0.11499,0.4193961 0.29087,0.8252632 0.22322,0.5005695 0.41263,1.2108371 0.11499,0.4193961 0.25705,0.8252631 0.12852,0.37881 0.19617,0.764383 0.0744,0.446454 0.22999,0.832028 0.15558,0.378809 0.23675,0.757619 0.0812,0.372045 0.22323,0.717032 0.0541,0.148818 0.0541,0.324694 0.007,0.175875 0.0338,0.311164 0.0812,0.277343 0.17587,0.547921 0.14882,0.399103 0.18264,0.608801 0.007,0.08117 0.0406,0.202933 0.10147,0.514099 0.16911,0.987611 0.0677,0.473511 0.37205,0.98761 0.0406,0.08794 0.0406,0.175875 0,0.236756 -0.35851,0.480277 -0.26382,0.209698 -0.45322,0.209698 -0.13529,0 -0.62233,0.02706 -0.48704,0.03382 -0.75085,0.03382 -0.22323,0 -0.35852,0.0068 -0.25705,0.02029 -0.43969,0.02029 z m -1.71141,-5.458913 q 0.24352,0 0.24352,-0.209698 0,-0.04735 -0.0135,-0.06764 l -0.18264,-1.007903 -0.10824,-0.209698 q -0.11499,-0.270578 -0.31116,-0.446454 -0.0744,-0.05412 -0.13529,-0.05412 -0.12176,0 -0.35852,0.142054 -0.0473,0.05412 -0.0947,0.0947 -0.0135,0.01353 -0.0271,0.03382 -0.0135,0.02029 -0.0406,0.03382 -0.14882,0.18264 -0.14882,0.257049 l -0.0947,0.263814 q 0,0.142053 -0.12853,0.568214 -0.0744,0.07441 -0.0947,0.48704 0.2097,0.02706 0.41263,0.02706 l 0.31793,-0.01353 q 0.17588,0 0.26381,0.04059 0.22323,0 0.42617,0.04059 0.027,0.02029 0.0744,0.02029 z"
         style="font-family:Kaph;-inkscape-font-specification:Kaph"
         id="path249" /></g></g></svg>
