<?xml version="1.0" encoding="UTF-8" standalone="no"?>
<!-- Created with Inkscape (http://www.inkscape.org/) -->

<svg
   width="525"
   height="104.75137"
   viewBox="0 0 138.90625 27.715465"
   version="1.1"
   id="svg324"
   inkscape:version="1.2 (dc2aedaf03, 2022-05-15)"
   sodipodi:docname="börjaspelaOpac.svg"
   xmlns:inkscape="http://www.inkscape.org/namespaces/inkscape"
   xmlns:sodipodi="http://sodipodi.sourceforge.net/DTD/sodipodi-0.dtd"
   xmlns="http://www.w3.org/2000/svg"
   xmlns:svg="http://www.w3.org/2000/svg">
  <sodipodi:namedview
     id="namedview326"
     pagecolor="#ffffff"
     bordercolor="#000000"
     borderopacity="0.25"
     inkscape:showpageshadow="2"
     inkscape:pageopacity="0.0"
     inkscape:pagecheckerboard="0"
     inkscape:deskcolor="#d1d1d1"
     inkscape:document-units="mm"
     showgrid="false"
     inkscape:zoom="1.4039843"
     inkscape:cx="298.43639"
     inkscape:cy="94.018145"
     inkscape:window-width="1920"
     inkscape:window-height="986"
     inkscape:window-x="-11"
     inkscape:window-y="-11"
     inkscape:window-maximized="1"
     inkscape:current-layer="layer1-1" />
  <defs
     id="defs321" />
  <g
     inkscape:label="Lager 1"
     inkscape:groupmode="layer"
     id="layer1"
     transform="translate(31.38587,46.64834)">
    <g
       inkscape:label="Lager 1"
       id="layer1-1"
       transform="translate(-31.38587,-46.64834)"
       style="opacity:0.5">
      <rect
         style="fill:#ff8484;fill-opacity:1;stroke:none;stroke-width:2.19981;stroke-linejoin:bevel"
         id="rect184"
         width="138.90625"
         height="17.45479"
         x="-1.1546319e-14"
         y="10.260675"
         ry="2.7983661"
         rx="2.7983661" />
      <rect
         style="fill:#ffecec;fill-opacity:1;stroke:none;stroke-width:2.64234;stroke-linejoin:bevel"
         id="rect5848"
         width="138.90625"
         height="25.183611"
         x="-2.1316282e-14"
         y="-3.1789145e-07"
         ry="2.7983661"
         rx="2.7983661" />
      <g
         aria-label="BÖRJA SPELA"
         id="text290"
         style="font-size:13.8536px;font-family:'Source Sans Pro';-inkscape-font-specification:'Source Sans Pro';fill:#ff8484;stroke-width:0.353267;stroke-linejoin:bevel">
        <path
           d="m 12.225854,18.625697 q -0.223227,0 -0.453219,-0.03382 -0.155582,-0.02029 -0.311164,-0.02706 -0.06088,-0.0068 -0.128525,-0.02029 -0.06765,-0.01353 -0.18264,-0.01353 -0.114996,0.02029 -0.189405,0.02029 -0.169111,0 -0.3044,-0.06764 h -0.08794 l -0.04735,-0.08794 q -0.114996,-0.101466 -0.19617,-0.270578 -0.175875,-0.358516 -0.216462,-0.74409 -0.101467,-1.47465 -0.1691114,-2.956066 -0.013529,-0.135289 -0.013529,-0.277342 0,-0.263814 -0.020293,-0.527627 -0.00676,-0.717032 -0.00676,-2.638137 0,-0.730561 -0.074409,-1.4543574 -0.033822,-0.2773426 -0.033822,-0.5411563 0,-0.5817429 0.1758757,-1.5828819 0.067645,-0.4261606 0.3517516,-0.6088008 0.236756,-0.1623469 0.574978,-0.1623469 l 0.182641,0.00676 q 0.277342,0 0.561449,-0.067645 0.142054,-0.033822 0.277343,-0.054116 h 4.160138 q 0.811735,0.3044004 1.095842,0.4261606 0.541156,0.2435203 1.312304,0.9199656 0.04059,0.040587 0.114995,0.094702 0.155583,0.1082312 0.229992,0.2570492 0.12176,0.2773426 0.263813,0.5411562 0.19617,0.3788094 0.344987,0.7711477 0.148818,0.3855738 0.148818,0.8455564 0,0.196169 0.06764,0.358516 0.04735,0.0947 0.04735,0.175876 0,0.202934 -0.311165,0.432925 -0.236756,0.148818 -0.270578,0.270578 -0.05411,0.162347 -0.608801,0.385574 -0.311164,0.128524 -0.439689,0.229991 0.142054,0.101467 0.432925,0.216463 0.290871,0.114995 0.527627,0.257049 0.236756,0.135289 0.236756,0.344987 0,0.08117 0.229992,0.24352 0.0947,0.07441 0.142053,0.135289 0.24352,0.37881 0.24352,0.777913 0,0.784676 -0.297636,1.366419 -0.0947,0.202934 -0.169111,0.412632 -0.189405,0.534391 -0.696739,0.818498 -0.290871,0.209698 -0.527627,0.50057 -0.229991,0.257049 -0.290871,0.277343 -0.872615,0.331458 -1.30554,0.527627 -0.236756,0.12176 -0.480276,0.12176 -0.08794,0.04059 -0.18264,0.04059 l -0.175876,-0.03382 -0.439689,0.114996 q -0.68321,0.08117 -1.095842,0.114996 -0.3044,0.02029 -1.095841,0.02029 -0.50057,0.142054 -0.899672,0.142054 z m 2.854599,-7.407076 q 0.196169,-0.0068 0.358516,-0.135289 0.250285,-0.229992 0.507334,-0.43969 0.175876,-0.148818 0.175876,-0.297636 0,-0.148818 -0.182641,-0.290871 -0.3044,-0.2299915 -0.602036,-0.4735118 -0.189405,-0.148818 -0.372045,-0.148818 -0.547921,0 -0.913201,0.1082313 -0.358516,0.1826402 -0.358516,0.2232269 v 0.3314586 q 0,0.399102 0.101467,0.771147 0.07441,0.175876 0.412631,0.270578 0.311165,0.08117 0.649388,0.08117 z m -0.304401,4.166903 q 0.297636,0 0.581743,-0.03382 0.284107,-0.05412 0.466748,-0.25705 0.18264,-0.202933 0.317929,-0.446454 0.07441,-0.12176 0.07441,-0.142053 l -0.01353,-0.08794 Q 16.095121,14.086749 15.797485,13.931166 15.594551,13.8297 15.378089,13.8297 q -0.114996,0 -0.229992,0.02706 -0.378809,0.08117 -0.771147,0.08117 -0.270578,0 -0.37881,0.108231 -0.06764,0.06088 -0.06764,0.148818 0,0.05412 0.02706,0.12176 -0.03382,0.216463 -0.03382,0.426161 0,0.216462 0.02706,0.42616 -0.0068,0.02029 -0.0068,0.04735 l 0.0068,0.148818 q 0.229992,0 0.453219,0.0068 0.189404,0.01353 0.372044,0.01353 z"
           style="font-family:Kaph;-inkscape-font-specification:Kaph"
           id="path3636" />
        <path
           d="m 26.458263,18.625697 q -0.98761,0 -1.887282,-0.365281 -0.155583,-0.07441 -0.284107,-0.189404 -0.128525,-0.114996 -0.649388,-0.432925 -0.466747,-0.270579 -0.892908,-0.581743 -0.209698,-0.175876 -0.541156,-0.717032 -0.223227,-0.331459 -0.250285,-0.344987 -0.02706,-0.02029 -0.07441,-0.114996 -0.07441,-0.216463 -0.24352,-0.487041 -0.331458,-0.527627 -0.331458,-0.879379 0,-0.12176 0.02706,-0.257049 l 0.02029,-0.459983 q 0.142053,-0.500569 0.223227,-1.014668 0.08117,-0.473511 0.487041,-1.129663 0.128524,-0.209698 0.24352,-0.426161 0.07441,-0.162347 0.223227,-0.24352 l 0.656152,-0.629094 q 0.08794,-0.142054 0.236756,-0.202934 0.148818,-0.06764 0.324693,-0.114995 0.243521,-0.1623473 0.372045,-0.2705786 0.446454,-0.3449871 0.953788,-0.3449871 l 0.175876,-0.1014668 q 0.18264,0 0.277342,-0.074409 0.365281,-0.1217602 0.730561,-0.1217602 0.223227,0 0.453219,0.040587 l 0.114995,0.00676 q 0.08117,0 0.169112,-0.013529 0.114995,-0.020293 0.520863,-0.027058 0.223226,0 0.419396,0.047351 0.493805,0.1758758 1.034961,0.2367559 0.236756,0.047351 0.466747,0.1894047 0.0947,0.054116 0.189405,0.1014668 0.0947,0.047351 0.175876,0.087938 0.162346,0.087938 0.331458,0.1623469 0.493805,0.1826399 0.953788,0.5952719 0.466747,0.405867 0.574978,0.757619 0.06088,0.169111 0.202934,0.324693 0.257049,0.270579 0.446454,0.92673 0.162347,0.419397 0.162347,0.825264 0,1.034961 -0.13529,1.346126 -0.08117,0.189405 -0.223226,0.737325 -0.13529,0.547921 -0.270579,0.696739 -0.06764,0.07441 -0.12176,0.148818 -0.06764,0.101467 -0.148818,0.189405 -0.92673,1.001139 -2.306678,1.630233 -0.689974,0.3044 -1.393477,0.399102 -0.703504,0.0947 -1.413771,0.0947 z m 0.378809,-3.253702 0.257049,-0.02029 q 0.209699,-0.0068 0.432925,-0.128525 0.223227,-0.12176 0.419397,-0.18264 l 0.128524,-0.229992 q 0.12176,-0.466747 0.311165,-0.771147 0,-0.480276 -0.05412,-0.703503 0,-0.331459 -0.277342,-0.62233 -0.365281,-0.378809 -0.919966,-0.378809 -0.331458,0 -0.68321,0.175875 -0.344987,0.169112 -0.446453,0.37881 -0.08794,0.175875 -0.216463,0.534391 -0.114996,0.277343 -0.114996,0.473512 0,0.196169 -0.01353,0.43969 -0.01353,0.108231 -0.01353,0.169111 0.04059,0.04735 0.04059,0.135289 0.202934,0.344987 0.730561,0.656152 0.135289,0.07441 0.419396,0.07441 z M 24.428927,5.6447116 h 0.03382 q 0.06088,0 0.128525,0.013529 0.03382,0 0.06764,0 0.03382,-0.00676 0.142054,-0.00676 0.05412,0 0.101467,0.00676 0.128524,0.054116 0.263813,0.074409 0.06764,0.013529 0.121761,0.054116 0.02029,0.020293 0.04735,0.033822 0.02706,0.013529 0.04735,0.027058 l 0.08794,0.040587 q 0.12176,0.06088 0.18264,0.1758758 0.02029,0.054116 0.07441,0.087938 0.101467,0.040587 0.128525,0.1420535 0.01353,0.047351 0.05411,0.094702 0.06088,0.081174 0.101467,0.2570492 0.04735,0.1691114 0.05412,0.223227 0,0.2502847 -0.02029,0.4396894 v 0.013529 q -0.06764,0.094702 -0.07441,0.2096981 -0.0068,0.1082312 -0.101467,0.2502847 -0.202933,0.3111649 -0.622329,0.5411563 -0.324694,0.1488179 -0.676445,0.1488179 -0.284107,0 -0.520863,-0.1149957 -0.04059,-0.020293 -0.08117,-0.054116 L 23.806597,8.174617 q -0.257049,-0.1691113 -0.311164,-0.2908715 -0.01353,-0.033822 -0.03382,-0.06088 -0.02029,-0.033822 -0.04059,-0.06088 -0.01353,-0.033822 -0.03382,-0.06088 l -0.02029,-0.027058 q -0.02706,-0.087938 -0.07441,-0.1691113 -0.08117,-0.1555825 -0.08117,-0.2638137 l 0.0068,-0.067645 h -0.02029 l 0.02706,-0.1420535 q 0.03382,-0.148818 0.05412,-0.297636 0.04059,-0.1826402 0.128525,-0.3382226 0.02706,-0.06088 0.05411,-0.1217602 0.03382,-0.06088 0.06088,-0.074409 0.12176,-0.074409 0.169112,-0.1894046 0.02029,-0.040587 0.06088,-0.06088 0.04735,-0.020293 0.12176,-0.040587 0.03382,-0.013529 0.05412,-0.040587 0.12176,-0.1285246 0.24352,-0.1285246 h 0.04059 q 0.05411,0 0.07441,-0.027058 0.07441,-0.054116 0.142053,-0.067645 z m 4.32925,2.807248 q -0.07441,-0.013529 -0.142054,-0.067645 -0.02706,-0.027058 -0.07441,-0.027058 h -0.04059 q -0.12176,0 -0.243521,-0.1285246 -0.02029,-0.027058 -0.06088,-0.040587 -0.07441,-0.020293 -0.114995,-0.040587 -0.04059,-0.020293 -0.06088,-0.06088 -0.05412,-0.1149957 -0.169112,-0.1894047 -0.02706,-0.013529 -0.06088,-0.074409 -0.02706,-0.06088 -0.06088,-0.1217601 -0.08794,-0.1555824 -0.12176,-0.3382227 -0.02029,-0.1488179 -0.06088,-0.2976359 l -0.02706,-0.1420535 h 0.02029 l -0.0068,-0.067645 q 0,-0.1082313 0.08794,-0.2638137 0.04735,-0.081173 0.07441,-0.1691113 l 0.02029,-0.027058 q 0.01353,-0.027058 0.03382,-0.054116 0.02029,-0.033822 0.03382,-0.06088 0.02029,-0.033822 0.03382,-0.067644 0.06088,-0.1217602 0.317929,-0.2908715 l 0.162347,-0.1285246 q 0.03382,-0.033822 0.08117,-0.054116 0.236755,-0.1149957 0.520862,-0.1149957 0.351752,0 0.676446,0.1488179 0.42616,0.2299914 0.629094,0.5411562 0.0947,0.1420536 0.0947,0.2570493 0.0068,0.1082312 0.08117,0.2029335 v 0.013529 q 0.01353,0.1894046 0.01353,0.4396894 0,0.054116 -0.04735,0.2299914 -0.04735,0.1691113 -0.108231,0.2502847 -0.03382,0.047351 -0.05412,0.094702 -0.02706,0.1014668 -0.12176,0.1420535 -0.05411,0.033822 -0.08117,0.087938 -0.06088,0.1149957 -0.18264,0.1758758 l -0.08794,0.040587 q -0.02029,0.013529 -0.04735,0.027058 -0.02029,0.013529 -0.04735,0.033822 -0.05411,0.040587 -0.114995,0.054116 -0.142054,0.020293 -0.270578,0.074409 -0.04735,0.00676 -0.101467,0.00676 -0.108231,0 -0.142054,0 -0.03382,-0.00676 -0.06764,-0.00676 -0.06764,0.013529 -0.128525,0.013529 z"
           style="font-family:Kaph;-inkscape-font-specification:Kaph"
           id="path3638" />
        <path
           d="m 41.874451,18.625697 q -0.216462,0 -0.791441,-0.04059 -0.108231,-0.04059 -0.236756,-0.04059 -0.08117,0 -0.142053,0.0068 -0.05412,0.01353 -0.08117,0.01353 -0.06088,0 -0.135289,-0.02706 -0.07441,-0.02706 -0.148818,-0.02706 l -0.06088,0.0068 -0.202933,0.0068 q -0.588508,0 -0.588508,-0.372045 0,-0.08117 0.02706,-0.175876 l 0.0068,-0.08117 q 0,-0.257049 -0.0947,-0.595272 -0.196169,-0.263814 -0.196169,-0.446454 0,-0.07441 -0.05412,-0.216462 -0.04735,-0.142054 -0.0947,-0.182641 -0.08117,-0.236756 -0.148818,-0.405867 -0.142053,-0.331458 -0.257049,-0.649387 -0.03382,-0.128525 -0.128525,-0.128525 l -0.04059,0.0068 -0.07441,-0.02029 -0.02029,0.0068 q -0.08794,0.06764 -0.142053,0.257049 -0.108232,0.257049 -0.108232,0.588507 0,0.216463 -0.07441,0.527628 -0.01353,0.250284 -0.01353,0.432925 l -0.0068,0.216462 q 0.03382,0.114996 0.03382,0.229991 l 0.0068,0.162347 q 0,0.432925 -0.250285,0.662917 -0.229991,0.202933 -0.62233,0.202933 -0.0947,0 -0.202933,-0.01353 -0.101467,-0.0068 -0.216463,-0.0068 -0.148818,0 -0.290871,0.01353 -0.142054,0.01353 -0.277343,0.01353 l -0.263813,0.02706 q -0.108232,0 -0.19617,-0.04059 -0.338222,-0.07441 -0.872614,-0.07441 -0.196169,0 -0.385574,-0.02706 -0.500569,-0.142053 -0.615565,-0.832028 l -0.05412,-1.981984 q 0,-0.426161 0.02029,-0.852321 0.02029,-0.324694 0.02029,-0.656152 0,-0.459983 -0.04059,-0.92673 -0.03382,-0.365281 -0.03382,-0.730561 0,-0.466748 0.05412,-0.92673 0.05412,-0.541157 0.05412,-1.089077 -0.0068,-0.135289 -0.03382,-0.270578 -0.02029,-0.135289 -0.02029,-0.2705785 0,-0.1217602 0.07441,-0.9808457 0.101467,-1.001139 0.101467,-1.4137706 0,-0.1623469 0.02029,-0.2908715 0.04735,-0.284107 0.710267,-0.6696809 0.412632,-0.2367558 1.779052,-0.3044003 l 0.142053,0.00676 q 0.385574,-0.013529 0.615565,-0.013529 0.175876,0 0.257049,0.00676 0.642624,0.054116 1.292011,0.074409 0.12176,0 0.24352,-0.027058 l 0.05412,-0.00676 q 0.135289,0 0.588507,0.06088 1.055255,0.074409 2.009043,0.5276273 0.500569,0.2029336 0.784676,0.717032 0.08794,0.1420535 0.270579,0.2367558 0.162346,0.1014668 0.250284,0.1894047 0.236756,0.223227 0.284107,0.358516 l 0.459983,0.7846766 q 0.114996,0.1082312 0.169111,0.3246937 0.05412,0.209698 0.05412,0.3517516 0,0.290871 0.05412,0.534392 0.05411,0.236756 0.05411,0.514098 l -0.02029,0.311165 q -0.01353,0.459983 -0.128525,0.892908 -0.114995,0.432925 -0.527627,0.757619 -0.01353,0.01353 -0.04059,0.02706 -0.02029,0.01353 -0.236756,0.392339 -0.317929,0.527627 -0.574978,1.082312 -0.02706,0.05412 -0.02706,0.12176 0,0.0947 0.0947,0.419396 0.189405,1.014668 0.344988,1.156722 0.08117,0.07441 0.3044,0.500569 0.223227,0.426161 0.405867,0.737326 0.148818,0.236755 0.148818,0.48704 0,0.358516 -0.324694,0.56145 -0.311165,0.229991 -0.534391,0.229991 -0.169112,0 -0.520863,0.03382 -0.351752,0.03382 -0.635859,0.03382 z M 39.161905,11.65831 q 0.162347,0 0.344988,-0.02706 0.24352,0 0.344987,-0.07441 0.480276,-0.520862 0.48704,-0.635858 l 0.0068,-0.06088 q 0,-0.04735 -0.02029,-0.08794 -0.175875,-0.480276 -0.541156,-0.717032 -0.155582,-0.1352892 -0.372045,-0.162347 -0.358516,-0.047351 -0.92673,-0.047351 -0.108231,0 -0.18264,0.033822 -0.06764,0.027058 -0.135289,0.9876099 -0.01353,0.108231 -0.01353,0.196169 0,0.243521 0.108231,0.338223 0.07441,0.108231 0.385574,0.189405 0.24352,0.06764 0.514098,0.06764 z"
           style="font-family:Kaph;-inkscape-font-specification:Kaph"
           id="path3640" />
        <path
           d="m 50.086499,18.625697 q -0.311165,0 -0.602037,-0.162347 -0.114995,-0.04059 -0.257049,-0.04059 -0.108231,0 -0.223227,-0.03382 -0.446454,-0.114996 -0.838792,-0.290872 -0.250285,-0.135289 -0.480276,-0.3044 -0.223227,-0.175876 -0.297636,-0.196169 -0.07441,-0.02706 -0.0947,-0.05412 -0.25705,-0.385574 -0.595272,-0.717032 -0.270578,-0.270578 -0.50057,-0.574978 -0.223227,-0.304401 -0.3044,-0.703503 -0.03382,-0.229992 -0.142054,-0.419396 -0.202933,-0.31793 -0.229991,-0.581743 -0.02029,-0.263814 -0.02029,-0.459983 0,-0.148818 0.01353,-0.304401 0,-0.324693 0.202933,-0.527627 0.08117,-0.07441 0.155583,-0.155582 0.202933,-0.236756 0.42616,-0.37881 0.229991,-0.148818 0.541156,-0.148818 0.689974,0.02706 1.650527,0.344987 l 0.216462,0.06088 q 0.426161,0.128524 0.662917,0.392338 0.24352,0.263813 0.378809,0.649387 0.284107,0.703503 0.581743,0.703503 0.385574,0 0.480276,-0.378809 0.114996,-0.331458 0.114996,-0.547921 0,-0.142053 -0.04735,-0.311164 -0.08117,-0.344988 -0.08117,-0.717032 0,-0.189405 0.01353,-0.37881 0.02029,-0.189405 0.02029,-0.372045 0.0068,-0.18264 0.06764,-1.555824 l 0.0068,-0.399103 q 0,-0.7305606 -0.169111,-1.1837789 -0.08117,-0.209698 -0.08117,-0.3991027 0,-0.1285246 0.04059,-0.2570492 0.08794,-0.3111649 0.25705,-0.5952719 0.527627,-1.0079035 1.021432,-1.0079035 h 0.01353 q 0.906437,-0.013529 1.244659,-0.081173 0.101467,-0.020293 0.879379,-0.020293 0.229992,0 0.432925,0.1014668 0.290872,0.1352891 0.514099,0.4058672 0.114995,0.1420535 0.114995,0.3179293 0,0.284107 -0.02029,0.5276273 -0.02706,0.2976359 -0.02706,0.5952719 0.0068,0.3179293 0.04735,0.6358585 0.04059,0.3652805 0.04059,0.5614496 l -0.02706,0.4802764 q 0,0.86585 0.02706,0.967317 0.02706,0.0947 0.03382,0.189404 -0.04735,1.508473 -0.05412,1.866989 0,0.114996 0.04735,0.229992 0.06764,0.223227 0.06764,0.378809 0,0.250285 -0.114995,0.493805 -0.108232,0.277343 -0.142054,0.595272 -0.114996,0.730561 -0.642623,1.616704 -0.135289,0.196169 -0.534392,0.602036 -0.317929,0.351752 -0.602036,0.588508 -0.209698,0.148818 -0.466747,0.257049 -0.0947,0.04059 -0.196169,0.0947 -0.101467,0.04735 -0.216463,0.0947 -0.202933,0.08117 -0.399103,0.202933 -0.372045,0.25705 -0.649387,0.25705 l -0.892908,-0.0068 q -0.18264,0.05412 -0.36528,0.05412 z"
           style="font-family:Kaph;-inkscape-font-specification:Kaph"
           id="path3642" />
        <path
           d="m 63.750693,18.517465 q -0.08794,0 -0.189405,-0.01353 -0.142054,-0.02029 -0.3044,-0.02029 -0.689975,-0.02029 -0.757619,-0.750854 -0.04059,-0.399103 -0.372045,-0.717032 -0.331458,-0.324694 -0.717032,-0.344987 -0.270578,0 -0.737325,0.209698 -0.412632,0.18264 -0.412632,0.595272 0,0.05412 0.01353,0.101467 0.05412,0.162346 0.05412,0.284107 0,0.372044 -0.493806,0.439689 -0.216462,0 -0.453218,0.05412 -0.175876,-0.01353 -0.344987,-0.01353 -0.270578,0 -0.717032,0.02706 l -0.439689,0.0068 q -0.236756,0 -0.324694,-0.01353 -0.50057,-0.04735 -0.635859,-0.04735 -0.216462,0 -0.446454,-0.114996 -0.372045,-0.175876 -0.473511,-0.527627 -0.01353,-0.06764 -0.01353,-0.135289 0,-0.0947 0.02706,-0.189405 0,-0.114996 0.257049,-1.007903 0.06764,-0.196169 0.148818,-0.37881 0.101467,-0.229991 0.175876,-0.473511 0.148817,-0.581743 0.284107,-1.163486 0.142053,-0.615566 0.3044,-1.231131 0.08117,-0.270578 0.196169,-0.527627 0.175876,-0.412632 0.223227,-0.68321 0.04735,-0.236756 0.453218,-1.461122 0.581743,-1.7790508 0.886144,-2.8681277 0.148818,-0.6223296 0.86585,-0.7440898 0.12176,0 0.392338,0.027058 l 0.62233,0.013529 0.399102,-0.00676 q 0.128525,0 0.236756,-0.00676 0.114996,-0.013529 0.18264,-0.013529 l 0.135289,0.00676 q 0.08794,0 0.43969,-0.013529 0.351751,-0.013529 0.615565,-0.013529 0.750854,0 0.98761,0.8590855 0.114996,0.4193961 0.290872,0.8252632 0.223227,0.5005695 0.412631,1.2108371 0.114996,0.4193961 0.25705,0.8252631 0.128524,0.37881 0.196169,0.764383 0.07441,0.446454 0.229991,0.832028 0.155582,0.378809 0.236756,0.757619 0.08117,0.372045 0.223227,0.717032 0.05412,0.148818 0.05412,0.324694 0.0068,0.175875 0.03382,0.311164 0.08117,0.277343 0.175876,0.547921 0.148817,0.399103 0.18264,0.608801 0.0068,0.08117 0.04059,0.202933 0.101467,0.514099 0.169112,0.987611 0.06764,0.473511 0.372045,0.98761 0.04059,0.08794 0.04059,0.175875 0,0.236756 -0.358516,0.480277 -0.263813,0.209698 -0.453218,0.209698 -0.135289,0 -0.62233,0.02706 -0.48704,0.03382 -0.750854,0.03382 -0.223227,0 -0.358516,0.0068 -0.257049,0.02029 -0.439689,0.02029 z m -1.711407,-5.458913 q 0.24352,0 0.24352,-0.209698 0,-0.04735 -0.01353,-0.06764 l -0.18264,-1.007903 -0.108231,-0.209698 q -0.114996,-0.270578 -0.311165,-0.446454 -0.07441,-0.05412 -0.135289,-0.05412 -0.12176,0 -0.358516,0.142054 -0.04735,0.05412 -0.0947,0.0947 -0.01353,0.01353 -0.02706,0.03382 -0.01353,0.02029 -0.04059,0.03382 -0.148818,0.18264 -0.148818,0.257049 l -0.0947,0.263814 q 0,0.142053 -0.128525,0.568214 -0.07441,0.07441 -0.0947,0.48704 0.209698,0.02706 0.412632,0.02706 l 0.317929,-0.01353 q 0.175876,0 0.263814,0.04059 0.223227,0 0.42616,0.04059 0.02706,0.02029 0.07441,0.02029 z"
           style="font-family:Kaph;-inkscape-font-specification:Kaph"
           id="path3644" />
        <path
           d="m 78.828655,18.625697 q -0.202933,0 -0.581743,-0.0947 l -0.04735,-0.0068 q -0.06764,0 -0.142053,0.03382 -0.175876,-0.06088 -0.25705,-0.06088 -0.06088,0 -0.114995,0.02029 -0.12176,-0.03382 -0.229992,-0.03382 -0.209698,0 -0.405867,-0.06764 l -0.189405,-0.04059 q -0.229991,-0.101467 -0.351751,-0.101467 l -0.08117,0.0068 q -0.0947,-0.04059 -0.18264,-0.04059 -0.3044,0 -0.480276,-0.284107 -0.175876,-0.257049 -0.175876,-0.473512 0,-0.169111 0.12176,-0.338222 0.08794,-0.114996 0.101467,-0.25705 0.01353,-0.574978 0.331458,-1.082312 0.108232,-0.175876 0.128525,-0.412632 0.01353,-0.128524 0.04735,-0.257049 0.236756,-0.642623 0.960552,-0.642623 0.209699,0 0.412632,0.08794 0.662916,0.317929 1.352891,0.568214 0.02706,0.0068 0.06764,0.0068 0.202934,0 0.331458,-0.101466 0.01353,-0.01353 0.01353,-0.04735 0,-0.04735 -0.02029,-0.135289 -0.135289,-0.229991 -0.270578,-0.250284 -0.358516,-0.08117 -0.676445,-0.270579 -0.473512,-0.263813 -0.852322,-0.284107 -0.290871,-0.02706 -0.574978,-0.175875 -0.12176,-0.06088 -0.250285,-0.108232 -0.108231,-0.06764 -0.142053,-0.06764 l -0.114996,0.0068 q -0.311165,-0.06764 -0.487041,-0.229991 -0.216462,-0.12176 -0.36528,-0.392338 -0.0947,-0.155583 -0.196169,-0.290872 -0.277343,-0.36528 -0.419396,-0.777912 -0.142054,-0.412631 -0.257049,-0.899672 -0.04059,-0.148818 -0.04059,-0.250285 0,-0.263814 0.03382,-0.385574 0.0068,-0.284107 0.08117,-0.446454 0.07441,-0.1691109 0.08794,-0.3449866 0.155583,-0.3044004 0.392339,-0.7237965 0.561449,-0.9876101 1.251423,-1.359655 0.615566,-0.3382227 1.264953,-0.5749785 0.656152,-0.2367559 1.379949,-0.2638137 l 0.561449,-0.020293 q 0.358516,-0.027058 0.717032,-0.027058 0.257049,0 0.514099,0.013529 0.54792,0.06088 1.075548,0.2570492 0.412631,0.1285246 0.757618,0.2908715 l 0.297636,0.1285246 q 0.446454,0.2029336 0.446454,0.5546852 0,0.1758757 -0.114996,0.3923382 -0.07441,0.1014668 -0.108231,0.1894047 -0.473512,1.9143402 -0.473512,2.0090422 l 0.0068,0.07441 q 0,0.128525 -0.04059,0.155583 -0.08117,0.04059 -0.229991,0.04059 -0.128525,0 -0.202934,0.01353 -0.223227,0.06088 -0.432925,0.06088 -0.453218,0 -1.217601,-0.399102 -0.06088,-0.02029 -0.128525,-0.02029 -0.148818,0 -0.3044,0.128525 l -0.04735,0.128525 0.05411,0.08794 q 0.142054,0.229992 1.420535,0.615566 0.351752,0.08117 0.791441,0.392338 0.142054,0.108231 0.290872,0.162347 0.284107,0.101467 0.42616,0.263813 0.541157,0.696739 0.669681,0.798206 0.07441,0 0.135289,0.02706 0.189405,0.284107 0.196169,0.331458 0.12176,0.344987 0.175876,1.264953 -0.0068,0.284107 -0.08794,0.574978 -0.04059,0.155583 -0.06764,0.311165 -0.08794,0.642623 -0.568214,1.082312 -0.175876,0.162347 -0.209698,0.277343 -0.114996,0.487041 -0.453219,0.717032 -0.331458,0.229991 -0.784676,0.446454 l -0.202934,0.135289 q -0.459983,0.216462 -0.852321,0.216462 l -0.500569,-0.0068 q -0.108232,0 -0.202934,0.02706 -0.399103,0.128524 -0.669681,0.128524 l -0.419396,-0.0068 q -0.05412,-0.02029 -0.114996,-0.02029 -0.06088,0 -0.270578,-0.01353 -0.148818,0.04735 -0.284107,0.06088 z"
           style="font-family:Kaph;-inkscape-font-specification:Kaph"
           id="path3646" />
        <path
           d="m 87.426278,18.652755 q -0.114995,0 -0.311165,-0.162347 l -0.05411,0.0068 q -0.128525,0 -0.202934,-0.24352 -0.162347,-0.209698 -0.202933,-0.541156 -0.04059,-0.338223 -0.07441,-0.669681 -0.04059,-0.56145 -0.135289,-1.116135 -0.19617,-1.298775 -0.229992,-2.611079 -0.04735,-1.271717 -0.189404,-2.313443 -0.155583,-1.2311301 -0.155583,-1.900811 0,-0.6088007 0.07441,-1.2176015 0.04059,-0.5005695 0.3044,-0.7305609 0.270579,-0.2299914 0.832028,-0.2638137 0.135289,-0.013529 0.832028,-0.1082312 0.257049,-0.040587 1.379948,-0.094702 0.05412,0 0.155583,-0.033822 0.209698,0.033822 0.419396,0.033822 0.175876,0 0.568214,-0.06088 l 0.879379,-0.00676 q 0.710267,0 1.305539,0.2029336 0.344987,0.1285246 0.703503,0.1691113 0.284107,0.027058 0.554685,0.3314582 l 0.0947,0.1014668 q 0.02706,0.020293 0.05411,0.054116 0.135289,0.1352891 0.229992,0.1691114 0.405867,0.094702 0.629094,0.3720449 0.229991,0.2705781 0.480276,0.6088007 0.250285,0.3314582 0.351752,0.6764453 0.108231,0.3449871 0.142053,0.7237964 0.04059,0.378809 0.155582,0.737325 0.04059,0.142054 0.04059,0.290872 0,0.128525 -0.0947,0.520863 -0.06764,0.290871 -0.175876,0.568214 -0.101467,0.277342 -0.317929,0.514098 -0.12176,0.142054 -0.18264,0.358516 -0.05412,0.209698 -0.182641,0.351752 -0.588507,0.561449 -1.29201,0.947023 -0.581743,0.284107 -1.197308,0.514099 -0.385574,0.142053 -0.764384,0.3044 -0.108231,0.04735 -0.689974,0.128525 -0.581743,0.07441 -0.717032,0.270578 l 0.0068,0.114995 -0.0068,0.263814 q 0.01353,0.284107 0.216463,0.974081 0,0.196169 0.162347,0.459983 0.01353,0.03382 0.01353,0.08117 0,0.18264 -0.216463,0.493805 -0.18264,0.250284 -0.466747,0.405867 -0.284107,0.175876 -0.608801,0.229991 -0.662916,0.06764 -1.278482,0.06764 -0.148818,0 -0.378809,0.01353 -0.229991,0.01353 -0.459983,0.01353 z m 3.104884,-7.393547 q 0.906437,0 1.170251,-0.372045 0.155582,-0.229992 0.155582,-0.392339 0,-0.07441 -0.02029,-0.135289 -0.114996,-0.229991 -0.365281,-0.3652802 -0.24352,-0.135289 -0.473512,-0.135289 l -0.08117,0.00676 q -0.297636,0.033822 -0.602036,0.06088 -0.209698,0.013529 -0.209698,0.1555827 0,0.04735 0.01353,0.108231 0.01353,0.12176 0.01353,0.24352 0,0.142054 -0.02029,0.284107 -0.01353,0.06764 -0.01353,0.324694 0,0.05412 0.01353,0.0947 0.05412,0.121761 0.419396,0.121761 z"
           style="font-family:Kaph;-inkscape-font-specification:Kaph"
           id="path3648" />
        <path
           d="m 101.89544,18.503937 q -0.38557,0.05411 -0.66292,0.05411 -0.33145,0 -0.50057,-0.08117 -0.0812,-0.04059 -0.15558,-0.04059 -0.0473,0 -0.0879,0.01353 l -1.204069,-0.03382 q -0.175876,-0.0068 -0.351751,-0.0068 -0.142054,0 -0.277343,0.04735 -0.196169,-0.01353 -0.358516,-0.01353 -0.730561,0 -0.825263,-1.18378 l -0.02029,-0.635858 q -0.04059,-0.906437 -0.04059,-1.819638 0,-1.014668 0.108231,-2.0361 l 0.07441,-0.947024 q 0,-0.128524 -0.02706,-0.250285 -0.02706,-0.128524 -0.02706,-0.236755 v -0.04735 q 0.04059,-0.446454 0.04059,-0.899672 0.02029,-1.0687835 0.196169,-1.6775842 0.08117,-0.3246938 0.101467,-0.6629164 l 0.04735,-0.3788094 q 0.12176,-0.8590855 0.845557,-0.9943745 0.128524,0 0.277342,0.027058 0.196169,0.040587 0.37881,0.040587 0.202933,0.054116 0.378809,0.054116 0.243516,0 0.426156,-0.1082312 0.0677,-0.054116 0.21647,-0.087938 l 0.0744,-0.013529 q 0.0947,-0.027058 0.19617,-0.027058 0.12176,0 0.25028,0.040587 0.31793,-0.067645 0.73733,-0.067645 0.43292,0 0.97408,0.074409 0.14881,0 0.31793,0.040587 0.31793,0 0.64262,0.040587 0.35851,0.033822 1.23789,0.1420535 0.64939,0.1217601 0.73056,0.1217601 l 0.19617,-0.013529 q 0.46675,0 0.75086,0.3246938 0.21646,0.2367558 0.21646,0.5614495 0,0.1623469 -0.0541,0.3449871 -0.0744,0.1826403 -0.0744,0.3652805 0,0.2164625 -0.0271,0.4261605 0.0473,0.087938 0.0473,0.2164625 0,0.067645 -0.0338,0.1014668 v 0.4599828 q 0,0.148818 0.0338,0.2976364 0.0338,0.142053 0.0338,0.257049 0,0.209698 -0.20293,0.378809 -0.19617,0.169111 -0.36528,0.236756 -0.16235,0.06088 -0.28411,0.06088 -0.12176,0 -0.25028,-0.04059 -0.83203,-0.290871 -1.46113,-0.290871 -0.26381,0 -0.53439,-0.02029 l -0.0609,0.0068 q -0.13529,0 -0.27734,-0.06764 -0.23676,-0.04059 -1.17702,-0.04059 l -0.38557,0.0068 q -0.0338,0.0068 -0.0676,0.06088 -0.0271,0.05412 -0.0947,0.229992 -0.0609,0.175875 -0.0947,0.236755 0.39234,0.108232 0.6088,0.108232 0.14882,0 0.29764,-0.03382 0.0474,-0.01353 0.10147,-0.01353 0.10823,0.04735 0.32469,0.04735 0.10147,0 0.23675,-0.01353 0.18264,0.03382 0.26382,0.03382 h 0.0609 q 0.0947,0 0.19617,-0.06764 0.0676,-0.0068 0.13529,-0.0068 0.22999,0 0.48704,0.05412 0.0744,-0.01353 0.13529,-0.01353 0.33145,0 0.33145,0.3044 0,0.135289 -0.0541,0.290872 -0.0541,0.155582 -0.0541,0.297636 0,0.189404 0.10147,0.36528 0.0609,0.08794 0.0609,0.18264 -0.0338,0.250285 -0.0406,0.50057 -0.0135,0.297636 -0.0541,0.588507 -0.0406,0.290872 -0.10823,0.432925 -0.14882,0.12176 -0.33146,0.162347 -0.18264,0.03382 -0.24352,0.03382 -0.2097,0 -0.38558,-0.01353 -0.1894,0.0068 -0.31793,0.0068 -0.10823,0 -0.22322,0.02029 -0.15558,0.02706 -0.37205,0.02706 -0.31793,0 -0.50733,-0.101467 -0.10147,-0.03382 -0.20293,-0.03382 -0.13529,0 -0.25705,0.101467 -0.19617,0.142053 -0.19617,0.324694 0,0.08117 0.0338,0.175875 0.0609,0.135289 0.12852,0.148818 0.0744,0.01353 0.12853,0.01353 0.0947,0 0.19617,0.02029 0.10146,0.01353 0.22322,0.01353 0.22323,0 0.38558,0.02029 0.16911,0.01353 0.27734,0.01353 0.19617,0 0.45998,-0.03382 0.14882,-0.0068 0.19617,-0.0068 l 0.0338,0.0068 q 0.20969,-0.0068 0.48027,-0.07441 0.27058,-0.06764 0.59527,-0.114995 0.115,-0.04735 0.24352,-0.135289 0.13529,-0.0947 0.25705,-0.148818 0.12176,-0.06088 0.2097,-0.216463 0.0406,-0.06764 0.14205,-0.06764 0.18264,0 0.41264,0.114995 0.17587,0.0947 0.2841,0.223227 0.42616,0.507334 0.42616,1.210837 -0.007,0.284107 -0.0338,0.574979 -0.0271,0.250285 -0.0271,0.507334 0,0.385574 0.12853,0.703503 0.0271,0.07441 0.0271,0.142053 0,0.182641 -0.17588,0.358517 -0.22999,0.236755 -0.57498,0.317929 -0.16911,-0.0068 -0.33822,-0.05412 -0.19617,0.01353 -0.32469,0.01353 -0.12853,0 -0.24353,0.06088 -0.27734,0.03382 -0.43968,0.05412 -0.15559,0.02029 -0.19617,0.02029 -0.24352,0 -0.74409,0.02706 -0.49381,0.02706 -0.80497,0.02706 -0.22323,0 -0.46675,-0.04059 -0.0474,-0.02706 -0.115,-0.02706 -0.12852,0 -0.32469,0.02029 z"
           style="font-family:Kaph;-inkscape-font-specification:Kaph"
           id="path3650" />
        <path
           d="m 110.49983,18.52423 h -0.31793 q -0.28411,0 -0.37881,-0.02029 -0.29764,-0.06764 -0.59527,-0.06764 -0.56145,0 -0.77791,-0.466747 -0.2097,-0.466747 -0.25705,-0.98761 -0.0271,-0.446454 -0.0271,-0.892908 0,-0.811734 0.0744,-1.292011 0.0406,-0.257049 0.0609,-0.514098 0,-0.223227 -0.0271,-0.439689 -0.0271,-0.216463 -0.0271,-0.426161 0.0406,-1.190544 0.25705,-5.7768428 0.0338,-0.358516 0.25705,-0.6764453 0.22999,-0.3179293 0.60204,-0.3314582 0.43292,0 1.60317,0.027058 0.7238,0.074409 1.04849,0.074409 0.53439,0 0.73056,0.1894047 0.20294,0.1894047 0.20294,0.5276273 0,0.1082313 -0.0135,0.2367559 -0.0879,0.9064367 -0.0879,1.1364281 l -0.0541,1.8940465 q 0,0.06764 -0.0541,0.764383 -0.0203,0.0068 -0.0203,0.13529 0,0.169111 0,0.202933 0.007,0.02706 0.007,0.04059 0,0.0947 -0.0406,0.480276 -0.0676,0.547921 -0.0676,0.845557 0,0.08794 0.0135,0.18264 0.0135,0.08794 0.0135,0.169111 l -0.007,0.473512 q 0,0.216462 0.115,0.344987 0.0744,0.0947 0.16234,0.0947 0.38558,-0.0068 0.77792,-0.04059 0.64262,-0.07441 2.15109,-0.135289 0.14882,0.0068 0.29764,0.06088 0.18264,0.06764 0.48028,0.06764 l 0.19616,-0.0068 q 0.28411,0 0.50734,0.209698 0.22323,0.209698 0.26381,0.54792 0.0541,0.514099 0.12176,1.522002 -0.0271,0.710268 -0.0541,0.940259 -0.0541,0.290872 -0.33146,0.466748 -0.27734,0.169111 -0.54116,0.169111 l -0.22322,-0.01353 q -0.19617,0 -0.39234,0.04059 -0.18941,0.04059 -0.42616,0.04059 -0.0947,0 -0.20294,-0.0068 -0.10146,-0.0068 -0.32469,-0.0068 -0.16235,0.02029 -0.31793,0.05412 -0.35175,0.08794 -0.88614,0.101467 -0.52763,0.02029 -0.66292,0.03382 l -0.27058,-0.0068 -2.01581,0.01353 q -0.29087,0.02029 -0.54115,0.02029 z"
           style="font-family:Kaph;-inkscape-font-specification:Kaph"
           id="path3652" />
        <path
           d="m 126.13248,18.517465 q -0.0879,0 -0.18941,-0.01353 -0.14205,-0.02029 -0.3044,-0.02029 -0.68997,-0.02029 -0.75762,-0.750854 -0.0406,-0.399103 -0.37204,-0.717032 -0.33146,-0.324694 -0.71704,-0.344987 -0.27057,0 -0.73732,0.209698 -0.41263,0.18264 -0.41263,0.595272 0,0.05412 0.0135,0.101467 0.0541,0.162346 0.0541,0.284107 0,0.372044 -0.4938,0.439689 -0.21647,0 -0.45322,0.05412 -0.17588,-0.01353 -0.34499,-0.01353 -0.27058,0 -0.71703,0.02706 l -0.43969,0.0068 q -0.23676,0 -0.32469,-0.01353 -0.50057,-0.04735 -0.63586,-0.04735 -0.21646,0 -0.44646,-0.114996 -0.37204,-0.175876 -0.47351,-0.527627 -0.0135,-0.06764 -0.0135,-0.135289 0,-0.0947 0.0271,-0.189405 0,-0.114996 0.25705,-1.007903 0.0676,-0.196169 0.14882,-0.37881 0.10147,-0.229991 0.17587,-0.473511 0.14882,-0.581743 0.28411,-1.163486 0.14205,-0.615566 0.3044,-1.231131 0.0812,-0.270578 0.19617,-0.527627 0.17588,-0.412632 0.22323,-0.68321 0.0473,-0.236756 0.45322,-1.461122 0.58174,-1.7790508 0.88614,-2.8681277 0.14882,-0.6223296 0.86585,-0.7440898 0.12176,0 0.39234,0.027058 l 0.62233,0.013529 0.3991,-0.00676 q 0.12852,0 0.23676,-0.00676 0.11499,-0.013529 0.18264,-0.013529 l 0.13528,0.00676 q 0.0879,0 0.43969,-0.013529 0.35176,-0.013529 0.61557,-0.013529 0.75085,0 0.98761,0.8590855 0.115,0.4193961 0.29087,0.8252632 0.22323,0.5005695 0.41263,1.2108371 0.115,0.4193961 0.25705,0.8252631 0.12853,0.37881 0.19617,0.764383 0.0744,0.446454 0.22999,0.832028 0.15559,0.378809 0.23676,0.757619 0.0812,0.372045 0.22323,0.717032 0.0541,0.148818 0.0541,0.324694 0.007,0.175875 0.0338,0.311164 0.0812,0.277343 0.17588,0.547921 0.14882,0.399103 0.18264,0.608801 0.007,0.08117 0.0406,0.202933 0.10146,0.514099 0.16911,0.987611 0.0676,0.473511 0.37204,0.98761 0.0406,0.08794 0.0406,0.175875 0,0.236756 -0.35852,0.480277 -0.26381,0.209698 -0.45322,0.209698 -0.13528,0 -0.62233,0.02706 -0.48704,0.03382 -0.75085,0.03382 -0.22323,0 -0.35852,0.0068 -0.25704,0.02029 -0.43968,0.02029 z m -1.71141,-5.458913 q 0.24352,0 0.24352,-0.209698 0,-0.04735 -0.0135,-0.06764 l -0.18264,-1.007903 -0.10823,-0.209698 q -0.115,-0.270578 -0.31117,-0.446454 -0.0744,-0.05412 -0.13529,-0.05412 -0.12176,0 -0.35851,0.142054 -0.0474,0.05412 -0.0947,0.0947 -0.0135,0.01353 -0.0271,0.03382 -0.0135,0.02029 -0.0406,0.03382 -0.14882,0.18264 -0.14882,0.257049 l -0.0947,0.263814 q 0,0.142053 -0.12852,0.568214 -0.0744,0.07441 -0.0947,0.48704 0.2097,0.02706 0.41264,0.02706 l 0.31793,-0.01353 q 0.17587,0 0.26381,0.04059 0.22323,0 0.42616,0.04059 0.0271,0.02029 0.0744,0.02029 z"
           style="font-family:Kaph;-inkscape-font-specification:Kaph"
           id="path3654" />
      </g>
    </g>
  </g>
</svg>
