<?xml version="1.0" encoding="UTF-8" standalone="no"?>
<!-- Created with Inkscape (http://www.inkscape.org/) -->

<svg
   width="525"
   height="105"
   viewBox="0 0 138.90625 27.78125"
   version="1.1"
   id="svg5"
   xml:space="preserve"
   inkscape:version="1.2 (dc2aedaf03, 2022-05-15)"
   sodipodi:docname="fortsätt1.svg"
   inkscape:export-filename="spela1.png"
   inkscape:export-xdpi="96"
   inkscape:export-ydpi="96"
   xmlns:inkscape="http://www.inkscape.org/namespaces/inkscape"
   xmlns:sodipodi="http://sodipodi.sourceforge.net/DTD/sodipodi-0.dtd"
   xmlns="http://www.w3.org/2000/svg"
   xmlns:svg="http://www.w3.org/2000/svg"><sodipodi:namedview
     id="namedview7"
     pagecolor="#ffffff"
     bordercolor="#000000"
     borderopacity="0.25"
     inkscape:showpageshadow="2"
     inkscape:pageopacity="0.0"
     inkscape:pagecheckerboard="0"
     inkscape:deskcolor="#d1d1d1"
     inkscape:document-units="mm"
     showgrid="false"
     showguides="false"
     inkscape:zoom="1.9855336"
     inkscape:cx="244.26683"
     inkscape:cy="23.167576"
     inkscape:window-width="1920"
     inkscape:window-height="986"
     inkscape:window-x="-11"
     inkscape:window-y="-11"
     inkscape:window-maximized="1"
     inkscape:current-layer="layer1" /><defs
     id="defs2" /><g
     inkscape:label="Lager 1"
     inkscape:groupmode="layer"
     id="layer1"><rect
       style="fill:#ff8484;fill-opacity:1;stroke:none;stroke-width:2.19981;stroke-linejoin:bevel"
       id="rect184"
       width="138.90625"
       height="17.45479"
       x="-1.1546319e-14"
       y="10.260675"
       ry="2.7983661"
       rx="2.7983661" /><rect
       style="fill:#ffecec;fill-opacity:1;stroke:none;stroke-width:2.64234;stroke-linejoin:bevel"
       id="rect5848"
       width="138.90625"
       height="25.183611"
       x="-2.1316282e-14"
       y="-3.1789145e-07"
       ry="2.7983661"
       rx="2.7983661" /><g
       aria-label="FORTSÄTT"
       id="text290"
       style="font-size:13.8536px;font-family:'Source Sans Pro';-inkscape-font-specification:'Source Sans Pro';fill:#ff8484;stroke-width:0.353267;stroke-linejoin:bevel"><path
         d="m 27.750274,18.625697 q -0.101467,0 -0.236756,-0.04735 -0.02029,-0.02029 -0.08117,-0.02029 -0.05412,0 -0.128525,-0.02029 -0.07441,-0.01353 -0.175876,-0.01353 -0.263813,-0.04735 -0.784676,-0.162347 l -0.263814,-0.04059 q -0.581743,-0.04735 -1.04849,-0.169111 -0.223227,-0.08117 -0.331458,-0.36528 -0.101467,-0.284107 -0.101467,-0.514099 0,-0.0947 0.01353,-0.18264 0.01353,-0.148818 0.01353,-0.419396 -0.01353,-0.175876 -0.03382,-1.67082 0,-0.142054 0.06088,-1.785816 0.06088,-1.799344 0.148818,-3.5919241 0.08117,-1.224366 0.257049,-2.4419675 0.114995,-0.717032 0.764383,-0.717032 0.155582,0 0.649387,-0.027058 0.50057,-0.033822 0.68321,-0.033822 0.209698,0 0.574979,0.047351 0.324693,0.040587 0.48704,0.040587 0.07441,0 0.142054,0.040587 0.18264,-0.013529 0.36528,-0.013529 0.223227,0 0.43969,0.054116 0.08794,0.047351 0.229991,0.047351 0.148818,0 0.487041,0.033822 0.216462,-0.027058 0.432925,-0.027058 l 0.42616,0.020293 q 0.142054,0.047351 0.304401,0.047351 0.08117,0 0.128524,-0.00676 0.04735,-0.00676 0.05412,-0.00676 0.07441,0 0.142053,0.06088 0.297636,0 1.30554,0.1420535 0.135289,0.013529 0.263813,0.033822 1.068784,0.087938 1.068784,0.8184988 0,0.1217601 -0.03382,0.2638136 -0.02706,0.1691113 -0.02706,0.3449871 0,0.1014668 0.0068,0.2096981 0.0068,0.1082312 0.0068,0.2232269 0,0.7508543 -0.324694,1.7384647 -0.04735,0.148818 -0.311165,0.338222 -0.175876,0.148818 -0.344987,0.223227 l -0.142053,0.07441 -1.440829,-0.784676 q -0.01353,0 -0.02029,-0.0068 -0.06088,-0.03382 -0.128525,-0.04735 l -2.394616,-0.04735 -0.02029,0.12176 q -0.04059,0.331458 -0.08794,0.595272 l 0.135289,-0.0068 q 0.169111,0 0.392338,0.121761 0.297636,0 0.507334,-0.02706 0.216462,0 0.344987,0.03382 0.128525,0.03382 0.257049,0.03382 0.196169,0 0.358516,-0.128524 0.08117,-0.05412 0.209698,-0.05412 0.270578,0 0.629094,0.196169 0.324694,0.05412 0.351752,0.229992 0,0.0947 -0.0068,0.128524 -0.169111,0.43969 -0.169111,1.36642 -0.0068,0.290871 -0.02706,0.588507 -0.05412,0.324694 -0.257049,0.635859 l -0.07441,0.135289 q -0.01353,0.02029 -0.114996,0.02029 -0.0947,0 -0.175875,-0.02029 -0.459983,-0.0068 -0.676446,-0.02029 -0.338222,-0.0068 -0.602036,-0.108231 -0.169111,0.0947 -0.473512,0.0947 -0.142053,0 -0.3044,0.02029 l 0.04059,0.811734 q -0.0068,0.148818 -0.0068,0.730561 0,0.581743 -0.0068,0.872615 -0.03382,0.385573 -0.101467,0.764383 -0.02029,0.101467 -0.04059,0.209698 -0.02029,0.101467 -0.0947,0.175876 -0.07441,0.06764 -0.155582,0.148818 -0.236756,0.250284 -0.520863,0.453218 -0.05412,0.03382 -0.101467,0.08117 -0.169111,0.155583 -0.311165,0.155583 z"
         style="font-family:Kaph;-inkscape-font-specification:Kaph"
         id="path237" /><path
         d="m 40.582441,18.747457 q -0.98761,0 -1.887283,-0.473512 -0.155582,-0.08794 -0.284107,-0.236756 -0.128524,-0.148818 -0.649387,-0.554685 -0.466747,-0.344987 -0.892908,-0.737325 -0.209698,-0.223227 -0.541156,-0.919966 -0.223227,-0.419396 -0.250285,-0.439689 -0.02706,-0.02029 -0.07441,-0.142054 -0.07441,-0.277342 -0.24352,-0.622329 -0.331458,-0.669681 -0.331458,-1.1229 0,-0.155582 0.02706,-0.324693 l 0.02029,-0.581743 q 0.142053,-0.642623 0.223227,-1.298775 0.08117,-0.602037 0.48704,-1.4408287 0.128525,-0.2705781 0.243521,-0.5411562 0.07441,-0.2164625 0.223227,-0.3111648 l 0.656152,-0.8049699 q 0.08794,-0.1826403 0.236755,-0.2638137 0.148818,-0.081173 0.324694,-0.1352891 0.243521,-0.2164625 0.372045,-0.3517515 0.446454,-0.4396895 0.953788,-0.4396895 L 39.371604,6.875842 q 0.18264,0 0.277342,-0.094702 0.365281,-0.1555824 0.730561,-0.1555824 0.223227,0 0.453219,0.054116 l 0.114995,0.00676 q 0.08117,0 0.169112,-0.020293 0.114995,-0.020293 0.520862,-0.033822 0.223227,0 0.419397,0.067645 0.493805,0.2164625 1.034961,0.2976359 0.236756,0.06088 0.466747,0.2435203 0.0947,0.067644 0.189405,0.1285246 0.0947,0.06088 0.175876,0.1149957 0.162346,0.1082312 0.331458,0.1961691 0.493805,0.2367559 0.953788,0.7643832 0.466747,0.5208629 0.574978,0.9673168 0.06088,0.2164625 0.202934,0.4126316 0.257049,0.3449875 0.446454,1.1837795 0.162346,0.534392 0.162346,1.055254 0,1.319069 -0.135289,1.718171 -0.08117,0.236756 -0.223227,0.933495 -0.135289,0.696739 -0.270578,0.886143 -0.06764,0.101467 -0.12176,0.196169 -0.06764,0.121761 -0.148818,0.236756 -0.92673,1.271717 -2.306678,2.083452 -0.689974,0.385574 -1.393478,0.507334 -0.703503,0.12176 -1.41377,0.12176 z m 0.378809,-4.153374 0.257049,-0.02706 q 0.209698,-0.0068 0.432925,-0.155582 0.223227,-0.155583 0.419396,-0.243521 l 0.128525,-0.290871 q 0.12176,-0.588508 0.311165,-0.974081 0,-0.615566 -0.05412,-0.906437 0,-0.419396 -0.277342,-0.784677 -0.365281,-0.48704 -0.919966,-0.48704 -0.331458,0 -0.68321,0.223227 -0.344987,0.216462 -0.446454,0.480276 -0.08794,0.229991 -0.216462,0.68321 -0.114996,0.351751 -0.114996,0.6088 0,0.250285 -0.01353,0.554685 -0.01353,0.13529 -0.01353,0.216463 0.04059,0.06088 0.04059,0.175876 0.202934,0.439689 0.730561,0.832027 0.135289,0.0947 0.419396,0.0947 z"
         style="font-family:Kaph;-inkscape-font-specification:Kaph"
         id="path239" /><path
         d="m 55.998628,18.625697 q -0.216462,0 -0.791441,-0.04059 -0.108231,-0.04059 -0.236756,-0.04059 -0.08117,0 -0.142053,0.0068 -0.05412,0.01353 -0.08117,0.01353 -0.06088,0 -0.135289,-0.02706 -0.07441,-0.02706 -0.148818,-0.02706 l -0.06088,0.0068 -0.202933,0.0068 q -0.588508,0 -0.588508,-0.372045 0,-0.08117 0.02706,-0.175876 l 0.0068,-0.08117 q 0,-0.257049 -0.0947,-0.595272 -0.196169,-0.263814 -0.196169,-0.446454 0,-0.07441 -0.05412,-0.216462 -0.04735,-0.142054 -0.0947,-0.182641 -0.08117,-0.236756 -0.148818,-0.405867 -0.142053,-0.331458 -0.257049,-0.649387 -0.03382,-0.128525 -0.128525,-0.128525 l -0.04059,0.0068 -0.07441,-0.02029 -0.02029,0.0068 q -0.08794,0.06764 -0.142053,0.257049 -0.108232,0.257049 -0.108232,0.588507 0,0.216463 -0.07441,0.527628 -0.01353,0.250284 -0.01353,0.432925 l -0.0068,0.216462 q 0.03382,0.114996 0.03382,0.229991 l 0.0068,0.162347 q 0,0.432925 -0.250285,0.662917 -0.229991,0.202933 -0.62233,0.202933 -0.0947,0 -0.202933,-0.01353 -0.101467,-0.0068 -0.216463,-0.0068 -0.148818,0 -0.290871,0.01353 -0.142054,0.01353 -0.277343,0.01353 l -0.263813,0.02706 q -0.108232,0 -0.19617,-0.04059 -0.338222,-0.07441 -0.872614,-0.07441 -0.196169,0 -0.385574,-0.02706 -0.500569,-0.142053 -0.615565,-0.832028 l -0.05412,-1.981984 q 0,-0.426161 0.02029,-0.852321 0.02029,-0.324694 0.02029,-0.656152 0,-0.459983 -0.04059,-0.92673 -0.03382,-0.365281 -0.03382,-0.730561 0,-0.466748 0.05412,-0.92673 0.05412,-0.541157 0.05412,-1.089077 -0.0068,-0.135289 -0.03382,-0.270578 -0.02029,-0.135289 -0.02029,-0.2705785 0,-0.1217602 0.07441,-0.9808457 0.101467,-1.001139 0.101467,-1.4137706 0,-0.1623469 0.02029,-0.2908715 0.04735,-0.284107 0.710267,-0.6696809 0.412632,-0.2367558 1.779052,-0.3044003 l 0.142053,0.00676 q 0.385574,-0.013529 0.615565,-0.013529 0.175876,0 0.257049,0.00676 0.642624,0.054116 1.292011,0.074409 0.12176,0 0.24352,-0.027058 l 0.05412,-0.00676 q 0.135289,0 0.588507,0.06088 1.055255,0.074409 2.009043,0.5276273 0.500569,0.2029336 0.784676,0.717032 0.08794,0.1420535 0.270578,0.2367558 0.162347,0.1014668 0.250285,0.1894047 0.236756,0.223227 0.284107,0.358516 l 0.459983,0.7846766 q 0.114996,0.1082312 0.169111,0.3246937 0.05412,0.209698 0.05412,0.3517516 0,0.290871 0.05412,0.534392 0.05412,0.236756 0.05412,0.514098 l -0.02029,0.311165 q -0.01353,0.459983 -0.128525,0.892908 -0.114995,0.432925 -0.527627,0.757619 -0.01353,0.01353 -0.04059,0.02706 -0.02029,0.01353 -0.236756,0.392339 -0.317929,0.527627 -0.574978,1.082312 -0.02706,0.05412 -0.02706,0.12176 0,0.0947 0.0947,0.419396 0.189405,1.014668 0.344988,1.156722 0.08117,0.07441 0.3044,0.500569 0.223227,0.426161 0.405867,0.737326 0.148818,0.236755 0.148818,0.48704 0,0.358516 -0.324694,0.56145 -0.311165,0.229991 -0.534391,0.229991 -0.169112,0 -0.520863,0.03382 -0.351752,0.03382 -0.635859,0.03382 z M 53.286082,11.65831 q 0.162347,0 0.344988,-0.02706 0.24352,0 0.344987,-0.07441 0.480276,-0.520862 0.48704,-0.635858 l 0.0068,-0.06088 q 0,-0.04735 -0.02029,-0.08794 -0.175875,-0.480276 -0.541156,-0.717032 -0.155582,-0.1352892 -0.372045,-0.162347 -0.358516,-0.047351 -0.92673,-0.047351 -0.108231,0 -0.18264,0.033822 -0.06764,0.027058 -0.135289,0.9876099 -0.01353,0.108231 -0.01353,0.196169 0,0.243521 0.108231,0.338223 0.07441,0.108231 0.385574,0.189405 0.24352,0.06764 0.514098,0.06764 z"
         style="font-family:Kaph;-inkscape-font-specification:Kaph"
         id="path241" /><path
         d="m 64.379785,18.625697 q -0.169111,-0.0068 -0.358516,-0.0068 -0.419396,0 -0.777912,-0.04735 -0.405867,-0.06088 -0.771148,-0.311165 -0.493805,-0.399102 -0.493805,-1.400241 0,-0.25705 0.05412,-0.514099 0.162347,-0.629094 0.162347,-1.285246 l -0.0068,-0.311165 q -0.02706,-0.331458 -0.02706,-0.662916 l 0.01353,-0.662917 -0.01353,-0.649387 q 0,-0.656152 0.135289,-1.312304 0.02029,-0.0947 0.02029,-0.175876 0,-0.48704 -0.615565,-0.568214 -0.757619,-0.108231 -1.474651,-0.344987 -0.270578,-0.101467 -0.446454,-0.5140982 -0.148818,-0.4126317 -0.155582,-0.6426231 0,-0.2299914 0,-0.2705781 0,-0.3923382 0.06764,-0.791441 0.05412,-0.4126316 0.07441,-0.8252632 0.02706,-0.3111649 0.216463,-0.5208629 0.196169,-0.209698 0.500569,-0.2367558 l 0.277343,-0.020293 q 0.385574,-0.047351 0.777912,-0.047351 0.189405,0 0.392338,0.020293 0.209698,0.020293 0.419396,0.020293 0.405867,0 0.80497,-0.094702 0.08117,-0.013529 0.155583,-0.013529 l 0.480276,-0.00676 q 0.02706,0 0.06764,0.00676 0.04735,0.00676 0.12176,0.00676 0.03382,0 0.06088,-0.013529 0.229992,-0.047351 0.453219,-0.047351 0.250285,0 0.635858,0.033822 0.392339,0.027058 0.642623,0.027058 0.311165,0 0.62233,0.06088 0.270578,0.054116 0.541156,0.054116 0.162347,0 0.351752,-0.020293 0.223227,0 0.432925,0.067645 0.114995,0.040587 0.229991,0.06088 0.08117,0.013529 0.155583,0.040587 0.142053,0.047351 0.284107,0.047351 l 0.351751,-0.027058 q 0.419396,0 0.656152,0.2164625 0.277343,0.2638136 0.277343,0.6696808 0,0.094702 -0.03382,0.2164625 l 0.01353,0.3652805 -0.0068,0.1285246 q 0,0.047351 0.0068,0.067645 v 0.4870406 q 0,0.2908715 -0.114995,0.642623 l -0.07441,0.297636 q -0.114996,0.5952719 -0.520863,0.7576189 -0.236756,0.101467 -1.007904,0.114995 -0.344987,0.01353 -0.689974,0.04059 -0.351751,0.06088 -0.351751,0.446454 0,0.108231 0.02706,0.24352 0.08117,0.297636 0.08117,0.595272 0,0.365281 -0.08117,0.906437 -0.06764,0.527627 -0.202933,1.907576 -0.02029,0.162347 -0.04735,0.317929 -0.04735,0.270578 -0.06088,0.534392 0,0.284107 0.02029,0.561449 0.02706,0.365281 0.02706,0.906437 0,0.351752 -0.02029,0.696739 -0.0068,0.0947 -0.07441,0.202933 -0.06088,0.101467 -0.148818,0.148818 -0.852321,0.426161 -2.0361,0.426161 z"
         style="font-family:Kaph;-inkscape-font-specification:Kaph"
         id="path243" /><path
         d="m 75.067622,18.625697 q -0.202933,0 -0.581743,-0.0947 l -0.04735,-0.0068 q -0.06764,0 -0.142053,0.03382 -0.175876,-0.06088 -0.25705,-0.06088 -0.06088,0 -0.114995,0.02029 -0.121761,-0.03382 -0.229992,-0.03382 -0.209698,0 -0.405867,-0.06764 l -0.189405,-0.04059 q -0.229991,-0.101467 -0.351751,-0.101467 l -0.08117,0.0068 q -0.0947,-0.04059 -0.18264,-0.04059 -0.3044,0 -0.480276,-0.284107 -0.175876,-0.257049 -0.175876,-0.473512 0,-0.169111 0.12176,-0.338222 0.08794,-0.114996 0.101467,-0.25705 0.01353,-0.574978 0.331458,-1.082312 0.108232,-0.175876 0.128525,-0.412632 0.01353,-0.128524 0.04735,-0.257049 0.236756,-0.642623 0.960552,-0.642623 0.209698,0 0.412632,0.08794 0.662916,0.317929 1.352891,0.568214 0.02706,0.0068 0.06764,0.0068 0.202934,0 0.331458,-0.101466 0.01353,-0.01353 0.01353,-0.04735 0,-0.04735 -0.02029,-0.135289 -0.135289,-0.229991 -0.270578,-0.250284 -0.358516,-0.08117 -0.676446,-0.270579 -0.473511,-0.263813 -0.852321,-0.284107 -0.290871,-0.02706 -0.574978,-0.175875 -0.12176,-0.06088 -0.250285,-0.108232 -0.108231,-0.06764 -0.142053,-0.06764 l -0.114996,0.0068 q -0.311165,-0.06764 -0.487041,-0.229991 -0.216462,-0.12176 -0.36528,-0.392338 -0.0947,-0.155583 -0.196169,-0.290872 -0.277343,-0.36528 -0.419396,-0.777912 -0.142054,-0.412631 -0.25705,-0.899672 -0.04059,-0.148818 -0.04059,-0.250285 0,-0.263814 0.03382,-0.385574 0.0068,-0.284107 0.08117,-0.446454 0.07441,-0.1691109 0.08794,-0.3449866 0.155583,-0.3044004 0.392339,-0.7237965 0.561449,-0.9876101 1.251423,-1.359655 0.615566,-0.3382227 1.264953,-0.5749785 0.656152,-0.2367559 1.379948,-0.2638137 l 0.56145,-0.020293 q 0.358516,-0.027058 0.717032,-0.027058 0.257049,0 0.514099,0.013529 0.54792,0.06088 1.075548,0.2570492 0.412631,0.1285246 0.757618,0.2908715 l 0.297636,0.1285246 q 0.446454,0.2029336 0.446454,0.5546852 0,0.1758757 -0.114996,0.3923382 -0.07441,0.1014668 -0.108231,0.1894047 -0.473512,1.9143402 -0.473512,2.0090422 l 0.0068,0.07441 q 0,0.128525 -0.04059,0.155583 -0.08117,0.04059 -0.229991,0.04059 -0.128525,0 -0.202934,0.01353 -0.223227,0.06088 -0.432925,0.06088 -0.453218,0 -1.217601,-0.399102 -0.06088,-0.02029 -0.128525,-0.02029 -0.148818,0 -0.3044,0.128525 l -0.04735,0.128525 0.05412,0.08794 q 0.142054,0.229992 1.420535,0.615566 0.351752,0.08117 0.791441,0.392338 0.142054,0.108231 0.290872,0.162347 0.284107,0.101467 0.42616,0.263813 0.541156,0.696739 0.669681,0.798206 0.07441,0 0.135289,0.02706 0.189405,0.284107 0.196169,0.331458 0.12176,0.344987 0.175876,1.264953 -0.0068,0.284107 -0.08794,0.574978 -0.04059,0.155583 -0.06764,0.311165 -0.08794,0.642623 -0.568214,1.082312 -0.175876,0.162347 -0.209698,0.277343 -0.114996,0.487041 -0.453219,0.717032 -0.331458,0.229991 -0.784676,0.446454 l -0.202934,0.135289 q -0.459983,0.216462 -0.852321,0.216462 l -0.50057,-0.0068 q -0.108231,0 -0.202933,0.02706 -0.399103,0.128524 -0.669681,0.128524 l -0.419396,-0.0068 q -0.05412,-0.02029 -0.114996,-0.02029 -0.06088,0 -0.270578,-0.01353 -0.148818,0.04735 -0.284107,0.06088 z"
         style="font-family:Kaph;-inkscape-font-specification:Kaph"
         id="path245" /><path
         d="m 89.198564,18.517465 q -0.08794,0 -0.189405,-0.01353 -0.142053,-0.01353 -0.3044,-0.01353 -0.689974,-0.01353 -0.757619,-0.602037 -0.04059,-0.317929 -0.372045,-0.574978 -0.331458,-0.257049 -0.717032,-0.270578 -0.270578,0 -0.737325,0.162347 -0.412632,0.148818 -0.412632,0.480276 0,0.04059 0.01353,0.08117 0.05412,0.128525 0.05412,0.223227 0,0.297636 -0.493805,0.351752 -0.216463,0 -0.453219,0.04735 -0.175875,-0.01353 -0.344987,-0.01353 -0.270578,0 -0.717032,0.02029 l -0.439689,0.0068 q -0.236756,0 -0.324694,-0.0068 -0.500569,-0.04059 -0.635859,-0.04059 -0.216462,0 -0.446453,-0.0947 -0.372045,-0.135289 -0.473512,-0.419396 -0.01353,-0.05411 -0.01353,-0.108231 0,-0.07441 0.02706,-0.148818 0,-0.0947 0.257049,-0.811734 0.06764,-0.155583 0.148818,-0.297636 0.101467,-0.189405 0.175876,-0.37881 0.148818,-0.466747 0.284107,-0.933494 0.142053,-0.493805 0.3044,-0.98761 0.08117,-0.216463 0.196169,-0.419396 0.175876,-0.331459 0.223227,-0.547921 0.04735,-0.189405 0.453219,-1.17025 0.581742,-1.420536 0.886143,-2.2931499 0.148818,-0.4938051 0.86585,-0.5952719 0.12176,0 0.392338,0.020293 l 0.62233,0.013529 0.399103,-0.00676 q 0.128524,0 0.236755,-0.00676 0.114996,-0.00676 0.182641,-0.00676 l 0.135289,0.00676 q 0.08794,0 0.439689,-0.013529 0.351752,-0.013529 0.615565,-0.013529 0.750855,0 0.98761,0.6899742 0.114996,0.338223 0.290872,0.662916 0.223227,0.399103 0.412632,0.967317 0.114995,0.331458 0.257049,0.656152 0.128524,0.3044 0.196169,0.615565 0.07441,0.358516 0.229991,0.662917 0.155583,0.3044 0.236756,0.6088 0.08117,0.297636 0.223227,0.574979 0.05412,0.114996 0.05412,0.257049 0.0068,0.142054 0.03382,0.250285 0.08117,0.223227 0.175876,0.439689 0.148818,0.31793 0.18264,0.487041 0.0068,0.06088 0.04059,0.162347 0.101466,0.405867 0.169111,0.784676 0.06764,0.37881 0.372045,0.791441 0.04059,0.07441 0.04059,0.142054 0,0.189405 -0.358516,0.385574 -0.263814,0.169111 -0.453219,0.169111 -0.135289,0 -0.622329,0.02029 -0.487041,0.02706 -0.750855,0.02706 -0.223227,0 -0.358516,0.0068 -0.257049,0.01353 -0.439689,0.01353 z m -1.711407,-4.369836 q 0.243521,0 0.243521,-0.162347 0,-0.04059 -0.01353,-0.05412 l -0.182641,-0.811734 -0.108231,-0.162347 q -0.114995,-0.216462 -0.311165,-0.358516 -0.07441,-0.04735 -0.135289,-0.04735 -0.12176,0 -0.358516,0.114996 -0.04735,0.04735 -0.0947,0.07441 -0.01353,0.01353 -0.02706,0.03382 -0.01353,0.01353 -0.04059,0.02029 -0.148818,0.148818 -0.148818,0.209698 l -0.0947,0.209698 q 0,0.114996 -0.128524,0.453219 -0.07441,0.06088 -0.0947,0.392338 0.209698,0.02029 0.412632,0.02029 l 0.317929,-0.0068 q 0.175876,0 0.263814,0.02706 0.223227,0 0.42616,0.03382 0.02706,0.01353 0.07441,0.01353 z M 84.42286,5.6447116 h 0.03382 q 0.06088,0 0.128525,0.013529 0.03382,0 0.06764,0 0.03382,-0.00676 0.142053,-0.00676 0.05412,0 0.101467,0.00676 0.128524,0.054116 0.263814,0.074409 0.06764,0.013529 0.12176,0.054116 0.02029,0.020293 0.04735,0.033822 0.02706,0.013529 0.04735,0.027058 l 0.08794,0.040587 q 0.12176,0.06088 0.18264,0.1758758 0.02029,0.054116 0.07441,0.087938 0.101467,0.040587 0.128525,0.1420535 0.01353,0.047351 0.05411,0.094702 0.06088,0.081174 0.101467,0.2570492 0.04735,0.1691114 0.05412,0.223227 0,0.2502847 -0.02029,0.4396894 v 0.013529 q -0.06764,0.094702 -0.07441,0.2096981 -0.0068,0.1082312 -0.101466,0.2502847 -0.202934,0.3111649 -0.62233,0.5411563 -0.324694,0.1488179 -0.676445,0.1488179 -0.284107,0 -0.520863,-0.1149957 -0.04059,-0.020293 -0.08117,-0.054116 L 83.80053,8.174617 q -0.257049,-0.1691113 -0.311164,-0.2908715 -0.01353,-0.033822 -0.03382,-0.06088 -0.02029,-0.033822 -0.04059,-0.06088 -0.01353,-0.033822 -0.03382,-0.06088 l -0.02029,-0.027058 q -0.02706,-0.087938 -0.07441,-0.1691113 -0.08117,-0.1555825 -0.08117,-0.2638137 l 0.0068,-0.067645 h -0.02029 l 0.02706,-0.1420535 q 0.03382,-0.148818 0.05411,-0.297636 0.04059,-0.1826402 0.128525,-0.3382226 0.02706,-0.06088 0.05412,-0.1217602 0.03382,-0.06088 0.06088,-0.074409 0.121761,-0.074409 0.169112,-0.1894046 0.02029,-0.040587 0.06088,-0.06088 0.04735,-0.020293 0.12176,-0.040587 0.03382,-0.013529 0.05412,-0.040587 0.12176,-0.1285246 0.24352,-0.1285246 h 0.04059 q 0.05412,0 0.07441,-0.027058 0.07441,-0.054116 0.142053,-0.067645 z m 4.32925,2.807248 q -0.07441,-0.013529 -0.142054,-0.067645 -0.02706,-0.027058 -0.07441,-0.027058 h -0.04059 q -0.12176,0 -0.243521,-0.1285246 -0.02029,-0.027058 -0.06088,-0.040587 -0.07441,-0.020293 -0.114995,-0.040587 -0.04059,-0.020293 -0.06088,-0.06088 -0.05412,-0.1149957 -0.169112,-0.1894047 -0.02706,-0.013529 -0.06088,-0.074409 -0.02706,-0.06088 -0.06088,-0.1217601 -0.08794,-0.1555824 -0.12176,-0.3382227 -0.02029,-0.1488179 -0.06088,-0.2976359 l -0.02706,-0.1420535 h 0.02029 l -0.0068,-0.067645 q 0,-0.1082313 0.08794,-0.2638137 0.04735,-0.081173 0.07441,-0.1691113 l 0.02029,-0.027058 q 0.01353,-0.027058 0.03382,-0.054116 0.02029,-0.033822 0.03382,-0.06088 0.02029,-0.033822 0.03382,-0.067644 0.06088,-0.1217602 0.317929,-0.2908715 l 0.162347,-0.1285246 q 0.03382,-0.033822 0.08117,-0.054116 0.236755,-0.1149957 0.520863,-0.1149957 0.351751,0 0.676445,0.1488179 0.42616,0.2299914 0.629094,0.5411562 0.0947,0.1420536 0.0947,0.2570493 0.0068,0.1082312 0.08117,0.2029335 v 0.013529 q 0.01353,0.1894046 0.01353,0.4396894 0,0.054116 -0.04735,0.2299914 -0.04735,0.1691113 -0.108231,0.2502847 -0.03382,0.047351 -0.05411,0.094702 -0.02706,0.1014668 -0.121761,0.1420535 -0.05411,0.033822 -0.08117,0.087938 -0.06088,0.1149957 -0.18264,0.1758758 l -0.08794,0.040587 q -0.02029,0.013529 -0.04735,0.027058 -0.02029,0.013529 -0.04735,0.033822 -0.05412,0.040587 -0.114996,0.054116 -0.142054,0.020293 -0.270578,0.074409 -0.04735,0.00676 -0.101467,0.00676 -0.108231,0 -0.142054,0 -0.03382,-0.00676 -0.06764,-0.00676 -0.06764,0.013529 -0.128525,0.013529 z"
         style="font-family:Kaph;-inkscape-font-specification:Kaph"
         id="path247" /><path
         d="m 97.613546,18.625697 q -0.169111,-0.0068 -0.358516,-0.0068 -0.419396,0 -0.777912,-0.04735 -0.405867,-0.06088 -0.771148,-0.311165 -0.493805,-0.399102 -0.493805,-1.400241 0,-0.25705 0.05412,-0.514099 0.162347,-0.629094 0.162347,-1.285246 l -0.0068,-0.311165 q -0.02706,-0.331458 -0.02706,-0.662916 l 0.01353,-0.662917 -0.01353,-0.649387 q 0,-0.656152 0.135289,-1.312304 0.02029,-0.0947 0.02029,-0.175876 0,-0.48704 -0.615565,-0.568214 Q 94.177204,10.60982 93.460172,10.373064 93.189594,10.271597 93.013718,9.8589658 92.8649,9.4463341 92.858136,9.2163427 q 0,-0.2299914 0,-0.2705781 0,-0.3923382 0.06764,-0.791441 0.05412,-0.4126316 0.07441,-0.8252632 0.02706,-0.3111649 0.216463,-0.5208629 0.196169,-0.209698 0.500569,-0.2367558 l 0.277343,-0.020293 q 0.385573,-0.047351 0.777912,-0.047351 0.189404,0 0.392338,0.020293 0.209698,0.020293 0.419396,0.020293 0.405867,0 0.80497,-0.094702 0.08117,-0.013529 0.155582,-0.013529 l 0.480276,-0.00676 q 0.02706,0 0.06764,0.00676 0.04735,0.00676 0.12176,0.00676 0.03382,0 0.06088,-0.013529 0.229992,-0.047351 0.453219,-0.047351 0.250284,0 0.635858,0.033822 0.392338,0.027058 0.642623,0.027058 0.311165,0 0.62233,0.06088 0.270578,0.054116 0.541157,0.054116 0.16235,0 0.35175,-0.020293 0.22323,0 0.43293,0.067645 0.11499,0.040587 0.22999,0.06088 0.0812,0.013529 0.15558,0.040587 0.14205,0.047351 0.28411,0.047351 l 0.35175,-0.027058 q 0.41939,0 0.65615,0.2164625 0.27734,0.2638136 0.27734,0.6696808 0,0.094702 -0.0338,0.2164625 l 0.0135,0.3652805 -0.007,0.1285246 q 0,0.047351 0.007,0.067645 v 0.4870406 q 0,0.2908715 -0.115,0.642623 l -0.0744,0.297636 q -0.11499,0.5952719 -0.52086,0.7576189 -0.23675,0.101467 -1.0079,0.114995 -0.34499,0.01353 -0.68998,0.04059 -0.35175,0.06088 -0.35175,0.446454 0,0.108231 0.0271,0.24352 0.0812,0.297636 0.0812,0.595272 0,0.365281 -0.0812,0.906437 -0.0676,0.527627 -0.202933,1.907576 -0.02029,0.162347 -0.04735,0.317929 -0.04735,0.270578 -0.06088,0.534392 0,0.284107 0.02029,0.561449 0.02706,0.365281 0.02706,0.906437 0,0.351752 -0.02029,0.696739 -0.0068,0.0947 -0.07441,0.202933 -0.06088,0.101467 -0.148818,0.148818 -0.852321,0.426161 -2.0361,0.426161 z"
         style="font-family:Kaph;-inkscape-font-specification:Kaph"
         id="path249" /><path
         d="m 109.01841,18.625697 q -0.16911,-0.0068 -0.35852,-0.0068 -0.41939,0 -0.77791,-0.04735 -0.40587,-0.06088 -0.77115,-0.311165 -0.4938,-0.399102 -0.4938,-1.400241 0,-0.25705 0.0541,-0.514099 0.16235,-0.629094 0.16235,-1.285246 l -0.007,-0.311165 q -0.027,-0.331458 -0.027,-0.662916 l 0.0135,-0.662917 -0.0135,-0.649387 q 0,-0.656152 0.13529,-1.312304 0.0203,-0.0947 0.0203,-0.175876 0,-0.48704 -0.61557,-0.568214 -0.75761,-0.108231 -1.47465,-0.344987 -0.27057,-0.101467 -0.44645,-0.5140982 -0.14882,-0.4126317 -0.15558,-0.6426231 0,-0.2299914 0,-0.2705781 0,-0.3923382 0.0676,-0.791441 0.0541,-0.4126316 0.0744,-0.8252632 0.0271,-0.3111649 0.21646,-0.5208629 0.19617,-0.209698 0.50057,-0.2367558 l 0.27735,-0.020293 q 0.38557,-0.047351 0.77791,-0.047351 0.1894,0 0.39234,0.020293 0.20969,0.020293 0.41939,0.020293 0.40587,0 0.80497,-0.094702 0.0812,-0.013529 0.15558,-0.013529 l 0.48028,-0.00676 q 0.0271,0 0.0676,0.00676 0.0474,0.00676 0.12176,0.00676 0.0338,0 0.0609,-0.013529 0.23,-0.047351 0.45322,-0.047351 0.25029,0 0.63586,0.033822 0.39234,0.027058 0.64262,0.027058 0.31117,0 0.62233,0.06088 0.27058,0.054116 0.54116,0.054116 0.16235,0 0.35175,-0.020293 0.22323,0 0.43293,0.067645 0.11499,0.040587 0.22999,0.06088 0.0812,0.013529 0.15558,0.040587 0.14205,0.047351 0.28411,0.047351 l 0.35175,-0.027058 q 0.4194,0 0.65615,0.2164625 0.27734,0.2638136 0.27734,0.6696808 0,0.094702 -0.0338,0.2164625 l 0.0135,0.3652805 -0.007,0.1285246 q 0,0.047351 0.007,0.067645 v 0.4870406 q 0,0.2908715 -0.115,0.642623 l -0.0744,0.297636 q -0.115,0.5952719 -0.52087,0.7576189 -0.23675,0.101467 -1.0079,0.114995 -0.34499,0.01353 -0.68997,0.04059 -0.35176,0.06088 -0.35176,0.446454 0,0.108231 0.0271,0.24352 0.0812,0.297636 0.0812,0.595272 0,0.365281 -0.0812,0.906437 -0.0676,0.527627 -0.20293,1.907576 -0.0203,0.162347 -0.0473,0.317929 -0.0473,0.270578 -0.0609,0.534392 0,0.284107 0.0203,0.561449 0.0271,0.365281 0.0271,0.906437 0,0.351752 -0.0203,0.696739 -0.007,0.0947 -0.0744,0.202933 -0.0609,0.101467 -0.14882,0.148818 -0.85232,0.426161 -2.0361,0.426161 z"
         style="font-family:Kaph;-inkscape-font-specification:Kaph"
         id="path251" /></g></g></svg>
