<?xml version="1.0" encoding="UTF-8" standalone="no"?>
<!-- Created with Inkscape (http://www.inkscape.org/) -->

<svg
   width="36.012218mm"
   height="61.591438mm"
   viewBox="0 0 36.012218 61.591438"
   version="1.1"
   id="svg23291"
   inkscape:version="1.2 (dc2aedaf03, 2022-05-15)"
   sodipodi:docname="kretsn.svg"
   xmlns:inkscape="http://www.inkscape.org/namespaces/inkscape"
   xmlns:sodipodi="http://sodipodi.sourceforge.net/DTD/sodipodi-0.dtd"
   xmlns="http://www.w3.org/2000/svg"
   xmlns:svg="http://www.w3.org/2000/svg">
  <sodipodi:namedview
     id="namedview23293"
     pagecolor="#ffffff"
     bordercolor="#000000"
     borderopacity="0.25"
     inkscape:showpageshadow="2"
     inkscape:pageopacity="0.0"
     inkscape:pagecheckerboard="0"
     inkscape:deskcolor="#d1d1d1"
     inkscape:document-units="mm"
     showgrid="false"
     inkscape:zoom="0.70199214"
     inkscape:cx="562.68436"
     inkscape:cy="125.35753"
     inkscape:window-width="1920"
     inkscape:window-height="986"
     inkscape:window-x="-11"
     inkscape:window-y="-11"
     inkscape:window-maximized="1"
     inkscape:current-layer="layer1" />
  <defs
     id="defs23288">
    <clipPath
       clipPathUnits="userSpaceOnUse"
       id="clipPath2331">
      <path
         style="display:inline;opacity:1;fill:#eceac6;stroke:none;stroke-width:0.31995;stroke-linecap:butt;stroke-linejoin:bevel;stroke-dasharray:none;stroke-opacity:1"
         d="m 161.08392,234.51214 c 0.89457,0.62185 1.55722,1.06542 2.82322,1.31585 1.16378,0.2122 2.05271,0.19479 3.21649,-0.0938 0.77519,-0.28377 1.70088,-0.34182 2.0425,-1.61681 0,-0.61558 -0.0791,-1.46749 -0.3923,-1.78071 -0.48221,-0.48221 -0.9315,-0.82704 -1.56052,-1.19021 -1.08367,-0.62566 -1.73533,-0.99832 -3.72935,-1.34893 -1.11585,-0.0709 -1.64695,0.26036 -2.43335,0.7406 -0.51557,0.38263 -0.74592,0.44355 -0.98436,1.67907 0.16844,0.84371 -0.002,1.70641 1.01767,2.29493 z"
         id="path2333"
         sodipodi:nodetypes="cccccccccc"
         inkscape:label="Fot" />
    </clipPath>
    <clipPath
       clipPathUnits="userSpaceOnUse"
       id="clipPath23259">
      <path
         style="display:inline;opacity:1;fill:#eceac6;stroke:none;stroke-width:0.31995;stroke-linecap:butt;stroke-linejoin:bevel;stroke-dasharray:none;stroke-opacity:1"
         d="m 161.08392,234.51214 c 0.89457,0.62185 1.55722,1.06542 2.82322,1.31585 1.16378,0.2122 2.05271,0.19479 3.21649,-0.0938 0.77519,-0.28377 1.70088,-0.34182 2.0425,-1.61681 0,-0.61558 -0.0791,-1.46749 -0.3923,-1.78071 -0.48221,-0.48221 -0.9315,-0.82704 -1.56052,-1.19021 -1.08367,-0.62566 -1.73533,-0.99832 -3.72935,-1.34893 -1.11585,-0.0709 -1.64695,0.26036 -2.43335,0.7406 -0.51557,0.38263 -0.74592,0.44355 -0.98436,1.67907 0.16844,0.84371 -0.002,1.70641 1.01767,2.29493 z"
         id="path23257"
         sodipodi:nodetypes="cccccccccc"
         inkscape:label="Fot" />
    </clipPath>
    <clipPath
       clipPathUnits="userSpaceOnUse"
       id="clipPath7466">
      <path
         style="display:inline;opacity:1;fill:none;fill-opacity:1;stroke:#eceac6;stroke-width:0;stroke-linecap:butt;stroke-linejoin:bevel;stroke-dasharray:none;stroke-opacity:1"
         d="m 234.95719,194.29284 -2.53047,29.95828 c 1.31384,2.75557 4.43107,4.24941 10.39849,3.8708 3.69831,-0.30982 7.22519,-1.56633 10.69502,-4.13734 l -2.44122,-29.91928 z"
         id="path7468"
         sodipodi:nodetypes="cccccc"
         inkscape:label="Överkropp" />
    </clipPath>
  </defs>
  <g
     inkscape:label="Lager 1"
     inkscape:groupmode="layer"
     id="layer1"
     transform="translate(43.635547,-115.44286)">
    <g
       id="g1013"
       inkscape:label="Kretsn"
       transform="translate(-194.63455,-59.251028)"
       style="display:inline"
       sodipodi:insensitive="true">
      <g
         id="g2390"
         inkscape:label="Underkropp">
        <path
           style="display:inline;opacity:1;fill:#eceac6;stroke:none;stroke-width:0.319951;stroke-linecap:butt;stroke-linejoin:bevel;stroke-dasharray:none;stroke-opacity:1"
           d="m 173.03969,234.82625 c 0.89457,0.62186 1.55722,1.06543 2.82322,1.31586 1.16378,0.2122 2.05271,0.19478 3.21649,-0.0938 0.77519,-0.28377 1.70088,-0.34183 2.0425,-1.61681 0,-0.61558 -0.0791,-1.46749 -0.3923,-1.78071 -0.48221,-0.48221 -0.9315,-0.82704 -1.56052,-1.19021 -1.08367,-0.62566 -1.73533,-0.99832 -3.72935,-1.34893 -1.11585,-0.0709 -1.64695,0.26036 -2.43335,0.7406 -0.51557,0.38263 -0.74592,0.44355 -0.98436,1.67907 0.16844,0.84371 -0.002,1.70641 1.01767,2.29493 z"
           id="path2338"
           sodipodi:nodetypes="cccccccccc"
           inkscape:label="Fot" />
        <path
           style="display:inline;opacity:1;fill:#eceac6;stroke:none;stroke-width:0.319951;stroke-linecap:butt;stroke-linejoin:bevel;stroke-dasharray:none;stroke-opacity:1"
           d="m 161.08392,234.51214 c 0.89457,0.62186 1.55722,1.06543 2.82322,1.31586 1.16378,0.2122 2.05271,0.19478 3.21649,-0.0938 0.77519,-0.28377 1.70088,-0.34183 2.0425,-1.61681 0,-0.61558 -0.0791,-1.46749 -0.3923,-1.78071 -0.48221,-0.48221 -0.9315,-0.82704 -1.56052,-1.19021 -1.08367,-0.62566 -1.73533,-0.99832 -3.72935,-1.34893 -1.11585,-0.0709 -1.64695,0.26036 -2.43335,0.7406 -0.51557,0.38263 -0.74592,0.44355 -0.98436,1.67907 0.16844,0.84371 -0.002,1.70641 1.01767,2.29493 z"
           id="path12021-5"
           sodipodi:nodetypes="cccccccccc"
           inkscape:label="Fot" />
        <path
           style="display:inline;opacity:1;fill:#eceac6;stroke:none;stroke-width:0.282521;stroke-linecap:butt;stroke-linejoin:bevel;stroke-dasharray:none;stroke-opacity:1"
           d="m 161.08665,214.87134 -1.03232,17.38832 c 0.92377,0.61945 2.00883,0.89328 3.15129,1.04411 1.66725,0.14778 2.32207,-0.21066 3.15128,-0.4819 l 3.04262,-15.66155 2.60797,15.4206 c 0.73118,0.73118 2.02057,0.84391 3.21016,0.84601 2.09608,0 2.58747,-0.45644 3.47273,-0.82593 l -2.3363,-17.85015 z"
           id="path12013-1"
           sodipodi:nodetypes="cccccccccc"
           inkscape:label="Ben" />
        <path
           style="display:inline;fill:none;fill-opacity:1;stroke:#b98d73;stroke-width:0.675217;stroke-linejoin:bevel;stroke-opacity:1"
           d="m 161.18468,235.10827 c 1.87434,-2.36178 4.26202,-3.33022 6.74687,-4.03489"
           id="path373"
           sodipodi:nodetypes="cc"
           clip-path="url(#clipPath2331)"
           inkscape:label="Sandal" />
        <path
           style="display:inline;fill:none;fill-opacity:1;stroke:#b98d73;stroke-width:0.675217;stroke-linejoin:bevel;stroke-opacity:1"
           d="m 161.18468,235.10827 c 1.87434,-2.36178 4.26202,-3.33022 6.74687,-4.03489"
           id="path2340"
           sodipodi:nodetypes="cc"
           clip-path="url(#clipPath2331)"
           transform="translate(11.955767,0.31410687)"
           inkscape:label="Sandal" />
      </g>
      <g
         id="g4769"
         inkscape:label="Överkropp"
         style="display:inline"
         transform="translate(-74.46129,1.122532)">
        <path
           style="display:inline;opacity:1;fill:#b98d73;fill-opacity:1;stroke:none;stroke-width:0.490415;stroke-linecap:butt;stroke-linejoin:bevel;stroke-dasharray:none;stroke-opacity:1"
           d="m 234.95719,194.29284 -2.53047,29.95828 c 1.31384,2.75557 4.43107,4.24941 10.39849,3.8708 3.69831,-0.30982 7.22519,-1.56633 10.69502,-4.13734 l -2.44122,-29.91928 z"
           id="path11251-4"
           sodipodi:nodetypes="cccccc"
           inkscape:label="Överkropp" />
        <path
           id="path4106"
           style="display:inline;fill:none;fill-opacity:1;stroke:#eceac6;stroke-width:0.675217;stroke-linejoin:bevel;stroke-dasharray:none;stroke-opacity:1"
           d="m 233.03758,210.38681 c 6.46002,2.93527 13.17783,3.01863 19.95388,1.2048"
           inkscape:label="Övre rep"
           clip-path="url(#clipPath7466)" />
        <path
           id="path7565"
           style="fill:none;fill-opacity:1;stroke:#eceac6;stroke-width:0.675217;stroke-linejoin:bevel;stroke-dasharray:none;stroke-opacity:1"
           d="m 240.02494,218.2085 c 0.21828,-2.18178 0.82857,-5.26179 2.53483,-5.37236 2.47348,-0.16031 3.82838,4.58875 4.41114,7.3941"
           inkscape:label="Hängande rep" />
        <path
           id="path7552"
           style="display:inline;fill:#272727;fill-opacity:1;stroke:#272727;stroke-width:0.675217;stroke-linejoin:bevel;stroke-dasharray:none;stroke-opacity:1"
           d="m 246.97091,220.23024 c 0.24257,1.16768 0.35136,1.99861 0.35136,1.99861"
           inkscape:label="Svart ände 2" />
        <path
           id="path8253"
           style="fill:#272727;fill-opacity:1;stroke:#272727;stroke-width:0.675217;stroke-linejoin:bevel;stroke-dasharray:none;stroke-opacity:1"
           d="m 239.90339,220.34994 c 0,0 6.4e-4,-0.93292 0.12155,-2.14144"
           inkscape:label="Svart ände 1" />
        <path
           style="fill:#a57153;fill-opacity:1;stroke:none;stroke-width:0.622224;stroke-linejoin:bevel;stroke-dasharray:none;stroke-opacity:1"
           d="m 250.33882,198.4711 c 0,0 2.14145,5.02416 0.73145,6.8269 -1.65521,2.11627 -7.98504,1.09719 -7.98504,1.09719 l 0.24382,7.07072 c 0,0 10.06334,-1.18241 12.31282,-4.99826 1.98503,-3.36727 -1.40195,-11.64233 -1.40195,-11.64233 z"
           id="path8398"
           sodipodi:nodetypes="csccscc"
           inkscape:label="Arm 2" />
        <path
           style="fill:#a57153;fill-opacity:1;stroke:none;stroke-width:0.622224;stroke-linejoin:bevel;stroke-dasharray:none;stroke-opacity:1"
           d="m 237.34939,198.70359 c 0,0 -1.82414,4.48852 -0.73145,6.49949 1.3278,2.44368 7.61086,1.98587 7.61086,1.98587 l -0.57122,5.43369 c 0,0 -8.00537,0.26753 -10.90966,-3.26769 -2.48126,-3.02029 0.70037,-12.29714 0.70037,-12.29714 z"
           id="path11847"
           sodipodi:nodetypes="csccscc"
           inkscape:label="Arm 1" />
      </g>
      <g
         id="g1101"
         inkscape:label="Huvud"
         style="display:inline"
         transform="translate(-74.46129,1.122532)">
        <path
           style="display:inline;fill:#272727;fill-opacity:1;stroke:none;stroke-width:0.806148;stroke-linejoin:bevel;stroke-dasharray:none;stroke-opacity:1"
           d="m 255.05578,195.45388 2.53313,6.42475 c 0,0 -4.38898,2.23884 -6.67398,2.96038 -1.8209,0.57499 -3.68855,0.97932 -5.56166,1.0765 -2.36735,0.12284 -4.76862,-0.0234 -7.09109,-0.62796 -1.82464,-0.475 -3.61285,-1.07998 -5.4005,-1.98164 -0.95896,-0.48368 -2.59101,-1.72906 -2.59101,-1.72906 l 2.64863,-6.12297 z"
           id="path11941"
           sodipodi:nodetypes="ccssssccc"
           inkscape:label="Cape" />
        <ellipse
           style="display:inline;fill:#eceac6;fill-opacity:1;stroke:none;stroke-width:0.402344"
           id="path2123-3"
           cx="163.78809"
           cy="255.46129"
           rx="16.549755"
           ry="12.645203"
           inkscape:label="Huvud"
           transform="translate(79.053005,-68.254772)" />
        <path
           style="fill:#272727;fill-opacity:1;stroke:none;stroke-width:0.160259;stroke-linejoin:bevel;stroke-dasharray:none;stroke-opacity:1"
           d="m 241.97486,201.53261 c -4.81814,-0.58875 -9.18023,-1.27881 -11.86281,-4.16651 L 227.37,194.4144 c -1.67643,-1.80461 -1.91123,-4.28256 -1.9097,-7.0059 0.002,-3.11571 0.87401,-5.77198 2.63438,-8.02234 0.79158,-1.01191 2.73122,-2.2844 3.9036,-3.07414 2.00902,-1.35333 4.60672,-2.35877 6.94034,-2.57242 3.75148,-0.34346 8.81299,-0.25401 12.39888,1.15723 3.25923,1.28277 7.10517,3.4787 8.44287,6.00696 1.67005,3.1564 2.16108,7.53183 1.21633,10.83858 -0.43489,1.52222 -1.47293,3.34962 -2.8796,5.06942 -1.9755,2.41521 -5.13614,3.41258 -9.60375,4.27024 -1.83632,0.35251 -2.655,0.43476 -4.54317,0.45643 -0.97924,0.0113 -1.87714,0.009 -1.99532,-0.005 z m 2.1181,-0.41215 c 3.48615,-0.24121 5.95015,-2.08851 8.20931,-3.69741 1.86326,-1.32696 4.24627,-2.4562 4.91344,-5.26168 0.80392,-3.38044 0.50797,-6.01456 -0.36398,-7.76796 -0.45034,-0.90567 -1.93049,-2.14448 -3.02361,-2.71723 -0.93853,-0.49175 -2.60161,-0.85964 -3.93549,-1.06458 -2.22012,-0.34107 -9.27527,0.98255 -11.81635,1.47584 -2.30636,0.44773 -5.33854,1.39648 -6.31752,3.66423 -0.26649,0.6173 -0.71411,3.71586 -0.61901,4.52225 0.16343,1.38639 1.08637,3.57313 1.60168,4.63291 0.85936,1.76736 1.44841,2.57725 3.5122,3.87851 1.73716,1.09533 3.40412,2.14639 5.56779,2.33058 0.88453,0.0754 1.2386,0.076 2.27158,0.004 z"
           id="path16628"
           sodipodi:nodetypes="csscssssssssccccssssssssssccc"
           inkscape:label="Luva" />
        <g
           id="g1007"
           inkscape:label="Glasögon"
           transform="matrix(1.0154434,-0.03107056,0.03107056,1.0154434,99.337912,-28.607349)"
           style="display:inline">
          <path
             style="opacity:1;fill:#272727;fill-opacity:1;stroke:none;stroke-width:0.366635;stroke-linejoin:bevel;stroke-opacity:1"
             d="m 124.59263,216.12868 23.0713,-1.2503 0.30082,6.36875 -9.6935,0.55486 -0.75583,-2.69617 -2.2578,0.10474 -0.54388,2.77706 -9.79902,0.51024 z"
             id="path2545" />
          <circle
             style="fill:#f6092f;fill-opacity:1;stroke-width:0.158309;stroke-linejoin:bevel"
             id="path349"
             cx="129.77811"
             cy="219.04193"
             r="0.82682294" />
          <circle
             style="fill:#f6092f;fill-opacity:1;stroke-width:0.158309;stroke-linejoin:bevel"
             id="circle1002"
             cx="143.23878"
             cy="218.14897"
             r="0.82682294" />
        </g>
      </g>
    </g>
  </g>
</svg>
