<?xml version="1.0" encoding="UTF-8" standalone="no"?>
<!-- Created with Inkscape (http://www.inkscape.org/) -->

<svg
   width="156.48167"
   height="238.18698"
   viewBox="0 0 41.402442 63.020305"
   version="1.1"
   id="svg22981"
   inkscape:version="1.2 (dc2aedaf03, 2022-05-15)"
   sodipodi:docname="legionen.svg"
   xmlns:inkscape="http://www.inkscape.org/namespaces/inkscape"
   xmlns:sodipodi="http://sodipodi.sourceforge.net/DTD/sodipodi-0.dtd"
   xmlns="http://www.w3.org/2000/svg"
   xmlns:svg="http://www.w3.org/2000/svg">
  <sodipodi:namedview
     id="namedview22983"
     pagecolor="#ffffff"
     bordercolor="#000000"
     borderopacity="0.25"
     inkscape:showpageshadow="2"
     inkscape:pageopacity="0.0"
     inkscape:pagecheckerboard="0"
     inkscape:deskcolor="#d1d1d1"
     inkscape:document-units="mm"
     showgrid="false"
     inkscape:zoom="0.70199214"
     inkscape:cx="508.5527"
     inkscape:cy="148.14981"
     inkscape:window-width="1920"
     inkscape:window-height="986"
     inkscape:window-x="-11"
     inkscape:window-y="-11"
     inkscape:window-maximized="1"
     inkscape:current-layer="layer1" />
  <defs
     id="defs22978" />
  <g
     inkscape:label="Lager 1"
     inkscape:groupmode="layer"
     id="layer1"
     transform="translate(29.370004,-49.147211)">
    <g
       id="g2443"
       inkscape:label="Legionen"
       transform="translate(-169.15775,-191.25013)"
       sodipodi:insensitive="true">
      <g
         id="g1909"
         inkscape:label="Kropp">
        <g
           id="g1891"
           inkscape:label="Luva">
          <path
             style="fill:#d7d7d7;fill-opacity:1;stroke:none;stroke-width:0.767164;stroke-linejoin:bevel"
             d="m 163.34619,262.3935 c 0,0 -2.22605,9.96225 -6.16439,12.32877 -2.4301,1.46024 -6.33842,1.61885 -8.50259,-0.21255 -1.70785,-1.44522 -1.74738,-4.40261 -1.2754,-6.58953 0.87924,-4.07401 7.22721,-10.20312 7.22721,-10.20312 z"
             id="path3843"
             sodipodi:nodetypes="cssscc"
             inkscape:label="Luva grå" />
          <path
             style="fill:#f6092f;fill-opacity:1;stroke-width:0.789127;stroke-linejoin:bevel"
             d="m 155.33358,261.06734 c -2.56824,2.05907 -3.41783,2.87213 -5.17031,6.17849 -0.16576,0.43285 -1.54974,2.33797 -0.73327,4.86336 0.69341,1.39929 1.37756,1.68721 3.06111,1.74921 1.40952,0.1509 2.73776,-0.67348 4.04504,-1.74921 2.35508,-2.39755 2.78838,-5.4357 4.04504,-8.1994 z"
             id="path1447"
             sodipodi:nodetypes="ccccccc"
             inkscape:label="Luva röd" />
        </g>
        <path
           style="display:inline;fill:#e4082c;fill-opacity:1;stroke-width:0.739967;stroke-linejoin:bevel"
           d="m 154.51262,261.7624 h 19.50598 v 38.4359 c -1.53758,1.04595 -9.86863,1.36087 -20.37291,0 z"
           id="path484"
           sodipodi:nodetypes="ccccc"
           inkscape:label="Mantel bak" />
        <path
           style="display:inline;fill:#f6092f;fill-opacity:1;stroke:none;stroke-width:0.537959;stroke-linejoin:bevel;stroke-opacity:1"
           d="m 169.96977,261.7624 3.73061,36.44635 c 1.90539,3.35612 2.30977,3.16838 4.87614,4.21105 -1.71044,-14.35708 -2.34531,-26.30032 -4.36496,-40.6574 z"
           id="path7009"
           sodipodi:nodetypes="ccccc"
           inkscape:label="Mantel höger" />
        <path
           style="fill:#272727;fill-opacity:1;stroke:none;stroke-width:0.319951;stroke-linecap:butt;stroke-linejoin:bevel;stroke-dasharray:none;stroke-opacity:1"
           d="m 168.44807,301.95857 c 0.89457,0.62186 1.55722,1.06543 2.82322,1.31586 1.16378,0.2122 2.05271,0.19478 3.21649,-0.0938 0.77519,-0.28377 1.70088,-0.34183 2.0425,-1.61681 0,-0.61558 -0.0791,-1.46749 -0.3923,-1.78071 -0.48221,-0.48221 -0.9315,-0.82704 -1.56052,-1.19021 -1.08367,-0.62566 -1.73533,-0.99832 -3.72935,-1.34893 -1.11585,-0.0709 -1.64695,0.26036 -2.43335,0.7406 -0.51557,0.38263 -0.74592,0.44355 -0.98436,1.67907 0.16844,0.84371 -0.002,1.70641 1.01767,2.29493 z"
           id="use2433"
           sodipodi:nodetypes="cccccccccc"
           inkscape:label="Fot" />
        <path
           style="opacity:1;fill:#272727;fill-opacity:1;stroke:none;stroke-width:0.319951;stroke-linecap:butt;stroke-linejoin:bevel;stroke-dasharray:none;stroke-opacity:1"
           d="m 156.49221,301.64438 c 0.89457,0.62186 1.55722,1.06543 2.82322,1.31586 1.16378,0.2122 2.05271,0.19478 3.21649,-0.0938 0.77519,-0.28377 1.70088,-0.34183 2.0425,-1.61681 0,-0.61558 -0.0791,-1.46749 -0.3923,-1.78071 -0.48221,-0.48221 -0.9315,-0.82704 -1.56052,-1.19021 -1.08367,-0.62566 -1.73533,-0.99832 -3.72935,-1.34893 -1.11585,-0.0709 -1.64695,0.26036 -2.43335,0.7406 -0.51557,0.38263 -0.74592,0.44355 -0.98436,1.67907 0.16844,0.84371 -0.002,1.70641 1.01767,2.29493 z"
           id="path2435"
           sodipodi:nodetypes="cccccccccc"
           inkscape:label="Fot" />
        <path
           style="opacity:1;fill:#272727;fill-opacity:1;stroke:none;stroke-width:0.282521;stroke-linecap:butt;stroke-linejoin:bevel;stroke-dasharray:none;stroke-opacity:1"
           d="m 156.49494,282.00358 -1.03232,17.38832 c 0.92377,0.61945 2.00883,0.89328 3.15129,1.04411 1.66725,0.14778 2.32207,-0.21066 3.15128,-0.4819 l 3.04262,-15.66155 2.60797,15.4206 c 0.73118,0.73118 2.02057,0.84391 3.21016,0.84601 2.09608,0 2.58747,-0.45644 3.47273,-0.82593 l -2.3363,-17.85015 z"
           id="path2437"
           sodipodi:nodetypes="cccccccccc"
           inkscape:label="Ben" />
        <path
           style="opacity:1;fill:#272727;fill-opacity:1;stroke:none;stroke-width:0.402696;stroke-linecap:butt;stroke-linejoin:bevel;stroke-dasharray:none;stroke-opacity:1"
           d="m 155.90419,262.47349 -2.53047,20.19969 c 1.31384,1.85797 4.43107,2.86521 10.39849,2.60993 3.69831,-0.2089 7.22519,-1.05612 10.69502,-2.78965 l -2.44122,-20.17339 z"
           id="path2439"
           sodipodi:nodetypes="cccccc"
           inkscape:label="Överkropp" />
        <path
           style="display:inline;fill:#d0bd8b;fill-opacity:1;stroke:none;stroke-width:0.612384;stroke-linejoin:bevel"
           d="m 174.71584,269.15099 3.27789,32.63726 c -0.20908,-0.14049 -0.34571,-0.10814 -0.51559,-0.36516 l -3.20818,-32.07632 z"
           id="path5327"
           sodipodi:nodetypes="ccccc"
           inkscape:label="Rand 2" />
        <path
           style="display:inline;fill:#f6092f;fill-opacity:1;stroke:none;stroke-width:0.675217;stroke-linejoin:bevel;stroke-opacity:1"
           d="m 160.24251,261.7624 -2.67598,41.51883 c -2.566,0.13655 -5.08821,-0.38359 -7.47886,-2.87718 l 4.55823,-38.64165 z"
           id="path8317"
           sodipodi:nodetypes="ccccc"
           inkscape:label="Mantel vänster" />
        <path
           style="fill:#d0bd8b;fill-opacity:1;stroke:none;stroke-width:0.675217;stroke-linejoin:bevel"
           d="m 157.18296,302.92641 2.24507,-34.84526 -0.60805,-0.46773 -2.29183,35.21945 c 0.20241,0.12634 0.42122,0.15428 0.65481,0.0935 z"
           id="path5005"
           sodipodi:nodetypes="ccccc"
           inkscape:label="Rand 1" />
        <path
           style="display:inline;fill:#e5e5e5;fill-opacity:1;stroke:none;stroke-width:0.675217;stroke-linejoin:bevel"
           d="m 153.48795,264.8071 8.51254,2.57247 c -0.42305,2.16019 -0.26433,4.50747 -1.78203,6.66766 -0.52201,0.53387 -1.02577,1.54016 -2.93062,2.07403 -1.53253,0.2245 -2.90199,-0.53111 -4.60968,-1.70787 -0.8133,-1.05399 -0.53339,-2.98256 -0.51921,-4.69854 -0.0113,-1.74948 0.6499,-3.33086 1.329,-4.90775 z"
           id="path4583"
           sodipodi:nodetypes="ccccccc"
           inkscape:label="Mörk päls 1" />
        <path
           style="display:inline;fill:#f2f2f2;fill-opacity:1;stroke:none;stroke-width:0.53815;stroke-linejoin:bevel"
           d="m 154.35608,264.21179 7.57826,2.11642 c -0.71628,1.77394 -0.49768,4.97401 -1.88032,6.24818 -0.33255,0.85784 -1.51334,1.37639 -2.70804,1.88937 -1.22781,-0.22097 -2.44309,-0.73471 -3.99596,-1.76835 -1.00059,-0.93194 -0.1521,-2.98172 -0.19888,-3.91366 z"
           id="path4638"
           sodipodi:nodetypes="ccccccc"
           inkscape:label="Ljus päls 1" />
        <path
           style="display:inline;fill:#e5e5e5;fill-opacity:1;stroke:none;stroke-width:0.675217;stroke-linejoin:bevel"
           d="m 170.11601,265.54914 4.82864,-1.91822 c 0.87657,1.4439 1.84973,3.06881 2.49016,5.10194 0.29575,2.32931 0.23544,4.02858 -0.3735,4.62149 -1.22039,1.10497 -2.61674,1.09552 -4.10103,0.52916 -1.1436,-0.92771 -1.47825,-2.31768 -2.05052,-3.57187 -0.47955,-1.5875 -0.54925,-3.175 -0.79375,-4.7625 z"
           id="path4710"
           sodipodi:nodetypes="ccccccc"
           inkscape:label="Mörk päls 2" />
        <path
           style="display:inline;fill:#f2f2f2;fill-opacity:1;stroke:none;stroke-width:0.675217;stroke-linejoin:bevel"
           d="m 171.17434,265.44992 3.175,-0.89296 c 0.9894,1.07075 1.67033,1.84158 2.13771,3.17334 0.43927,2.39165 0.52086,3.24942 0.0524,4.58979 -1.27881,0.88279 -2.23423,0.94403 -3.51304,0.24051 -0.71647,-0.73874 -1.2209,-2.15255 -1.58751,-3.24115 -0.4724,-1.43316 -0.28135,-2.43637 -0.26462,-3.86953 z"
           id="path4767"
           sodipodi:nodetypes="cccccccc"
           inkscape:label="Ljus päls 2" />
      </g>
      <g
         id="g2890"
         inkscape:label="Huvud">
        <ellipse
           style="display:inline;fill:#eceac6;fill-opacity:1;stroke:none;stroke-width:0.402344"
           id="ellipse2441"
           cx="163.78809"
           cy="255.46129"
           rx="16.549755"
           ry="12.645203"
           inkscape:label="Huvud"
           sodipodi:insensitive="true" />
        <path
           style="opacity:1;fill:#a35600;fill-opacity:1;stroke-width:0.713982;stroke-linejoin:bevel"
           d="m 178.18948,229.18714 1.7486,-2.23818 0.21004,-1.44306 -1.60891,2.4922 -0.69944,-1.18903 -0.97921,-0.48961 c 0,0 1.0014,-1.56732 1.25898,-2.44802 0.34841,-1.19124 0.27899,-2.46786 0.34972,-3.70699 0.0665,-1.16406 0.17318,-2.3358 0.0699,-3.49717 -0.0842,-0.9473 -0.30305,-1.88192 -0.55955,-2.79773 -0.14719,-0.52555 -0.55954,-1.53875 -0.55954,-1.53875 0,0 -1.33207,-0.18396 -1.95842,0 -0.7446,0.21869 -1.95841,1.25897 -1.95841,1.25897 l -2.23819,1.04915 c 0,0 -1.17574,-0.6589 -1.81852,-0.83932 -0.5875,-0.1649 -1.21855,-0.0986 -1.81853,-0.20983 -0.82844,-0.15356 -1.6055,-0.63685 -2.44801,-0.62949 -0.70135,0.006 -1.499,0.0994 -2.02836,0.55955 -0.57533,0.50007 -0.74622,1.35366 -0.90926,2.0983 -0.22445,1.02512 -0.17832,2.10365 -0.0699,3.14744 0.0742,0.71438 0.48961,2.09832 0.48961,2.09832 l -0.69943,0.76937 c 0,0 -0.58327,-0.99634 -0.76938,-1.53875 -0.23149,-0.67469 -0.41966,-2.09831 -0.41966,-2.09831 0,0 -0.17497,2.33243 -0.27978,3.49717 -0.0841,0.93346 -0.20972,1.86314 -0.27977,2.79774 -0.0698,0.93113 -0.23079,1.86842 -0.13988,2.79773 0.0748,0.76538 0.55955,2.2382 0.55955,2.2382 l -1.46882,0.20982 -1.32893,1.95841 -1.88845,-1.32892 -1.6087,1.39886 -0.97922,-0.83932 -0.9792,0.76938 -1.1191,-1.11909 -1.53874,0.62949 -0.97922,-1.53875 -1.25897,-0.62951 0.41965,-3.77692 c 0,0 -0.73277,-1.50955 -0.9792,-2.30814 -0.28043,-0.90876 -0.39705,-1.86067 -0.55954,-2.79773 -0.1369,-0.78943 -0.34972,-2.37807 -0.34972,-2.37807 l -1.76716,0.95047 -1.8699,0.7981 c 0,0 0.46257,-1.02754 0.69943,-1.53875 0.39023,-0.84218 0.79461,-1.67773 1.18904,-2.51795 0.49199,-1.04803 0.9501,-2.11239 1.46881,-3.14745 0.48602,-0.96985 0.80917,-2.06486 1.53875,-2.86768 0.39574,-0.43547 0.90908,-0.79769 1.46881,-0.97921 1.13192,-0.36708 3.56711,-0.13988 3.56711,-0.13988 0,0 1.30611,-1.18007 2.02837,-1.67864 1.12567,-0.77705 2.30361,-1.50441 3.5671,-2.02836 1.29576,-0.53733 2.66527,-0.9414 4.05672,-1.11909 1.52653,-0.19494 3.09354,-0.15291 4.61625,0.0699 1.10273,0.16134 2.15996,0.55732 3.2174,0.90926 0.92434,0.30765 1.83645,0.65599 2.72779,1.04914 0.62009,0.27351 1.22462,0.58281 1.81853,0.90928 0.28681,0.15766 0.59571,0.28986 0.84135,0.50613 0.20005,0.17613 0.2421,0.54529 0.49565,0.62746 0.34305,0.11117 0.45196,-0.11424 1.04102,-0.29427 0.84989,-0.25976 1.81726,-0.49832 2.65785,-0.20984 0.68681,0.2357 1.15182,0.90445 1.60869,1.46882 0.49311,0.60914 0.85488,1.31943 1.18903,2.02835 0.43399,0.9207 0.79314,1.88253 1.04915,2.86767 0.26127,1.00535 0.40775,2.04201 0.48961,3.07752 0.0826,1.04588 0.0932,2.10245 0,3.14744 -0.10533,1.17976 -0.3736,2.49472 -0.62949,3.49716 -0.25588,1.00245 -0.46314,1.7172 -0.83932,2.51797 -0.52539,1.1184 -1.12771,2.23269 -1.95841,3.14745 -0.33543,0.36938 -0.69516,0.83822 -1.18903,0.90926 -0.3214,0.0462 -0.90923,-0.34966 -0.90923,-0.34966 z"
           id="path1982"
           sodipodi:nodetypes="ccccccsssscsccssssssccscsssccccccccccccsscccssssscsssssssssssssssssssscc"
           inkscape:label="Hår"
           transform="translate(-2.5907636,37.213732)" />
        <path
           d="m 174.55291,254.63695 c -0.60451,0.15765 -1.21169,0.30063 -1.80654,0.47464 -0.93398,0.27315 -1.87493,0.5359 -2.78352,0.86324 -0.63263,0.22794 -1.26034,0.27096 -1.9199,0.20964 -0.9139,-0.085 -1.82663,-0.18381 -2.74252,-0.24897 -1.28652,-0.0916 -2.57724,-0.1525 -3.86428,-0.0168 -1.31798,0.13894 -2.63239,0.30276 -3.94821,0.45666 -0.56111,0.42108 -0.50166,0.78016 -0.0318,2.15659 0.15362,0.49075 0.2935,0.98461 0.45085,1.47444 0.11256,0.35035 0.24502,0.69588 0.36713,1.04399 0.25577,0.72875 0.84384,1.14352 1.67947,1.34724 1.41192,0.34432 2.82831,0.34519 4.23803,0.0281 0.84338,-0.18973 1.56362,-0.58567 2.17928,-1.12202 0.69208,-0.60294 1.16289,-1.32208 1.53382,-2.09608 0.15927,-0.33243 0.31318,-0.6668 0.4621,-1.00273 0.0635,-0.14331 0.17239,-0.24168 0.34106,-0.27843 0.29287,-0.0637 0.58873,-0.11755 0.88399,-0.17289 0.0879,-0.0165 0.14185,0.0147 0.13829,0.0976 -0.0194,0.44933 0.1139,0.87255 0.34422,1.26736 0.22783,0.39045 0.4616,0.78454 0.75486,1.13925 0.53065,0.64185 1.28455,0.9283 2.20242,0.87174 0.3453,-0.0212 0.66402,-0.13366 0.97324,-0.26194 0.57059,-0.23673 1.1048,-0.51895 1.5682,-0.89619 0.44898,-0.36559 0.79892,-0.79109 0.99349,-1.29137 0.28631,-0.73627 0.53309,-1.48381 0.79655,-2.22654 0.0687,-0.19362 0.12681,-0.39045 0.20876,-0.57975 0.046,-0.10617 0.13631,-0.19765 0.19694,-0.29999 0.0508,-0.0857 0.11205,-0.17489 0.12569,-0.26718 0.032,-0.21687 0.0352,-0.43676 0.0563,-0.655 0.01,-0.0987 -0.0232,-0.15949 -0.13563,-0.20343 -2.4004,0.0534 -1.80008,0.12061 -3.26226,0.18881"
           style="fill:#272727;fill-opacity:1;fill-rule:nonzero;stroke:none;stroke-width:0.052403"
           id="path797"
           sodipodi:nodetypes="cccccsccsccsssscsccsscccscssccc"
           inkscape:label="Glasögon" />
      </g>
    </g>
  </g>
</svg>
