<?xml version="1.0" encoding="UTF-8" standalone="no"?>
<!-- Created with Inkscape (http://www.inkscape.org/) -->

<svg
   width="154.44244mm"
   height="121.86951mm"
   viewBox="0 0 154.44244 121.86952"
   version="1.1"
   id="svg2987"
   inkscape:version="1.2 (dc2aedaf03, 2022-05-15)"
   sodipodi:docname="paus.svg"
   xmlns:inkscape="http://www.inkscape.org/namespaces/inkscape"
   xmlns:sodipodi="http://sodipodi.sourceforge.net/DTD/sodipodi-0.dtd"
   xmlns="http://www.w3.org/2000/svg"
   xmlns:svg="http://www.w3.org/2000/svg">
  <sodipodi:namedview
     id="namedview2989"
     pagecolor="#5b5b5b"
     bordercolor="#000000"
     borderopacity="0.25"
     inkscape:showpageshadow="2"
     inkscape:pageopacity="0"
     inkscape:pagecheckerboard="0"
     inkscape:deskcolor="#d1d1d1"
     inkscape:document-units="mm"
     showgrid="false"
     inkscape:zoom="0.99276681"
     inkscape:cx="132.96174"
     inkscape:cy="230.66847"
     inkscape:window-width="1920"
     inkscape:window-height="986"
     inkscape:window-x="-11"
     inkscape:window-y="-11"
     inkscape:window-maximized="1"
     inkscape:current-layer="svg2987" />
  <defs
     id="defs2984" />
  <g
     inkscape:label="Lager 1"
     id="layer1-41"
     transform="matrix(1.1118466,0,0,1.1118466,-43.048691,-122.194)">
    <rect
       style="fill:#ffffff;fill-opacity:1;stroke:none;stroke-width:5.51258;stroke-linejoin:bevel"
       id="rect5848-0"
       width="138.90625"
       height="109.61001"
       x="38.718193"
       y="109.90185"
       ry="2.5168633"
       rx="2.5168633" />
    <g
       aria-label="PAUSAT"
       id="text1141-6"
       style="font-size:13.3555px;font-family:Kaph;-inkscape-font-specification:Kaph;text-align:center;text-anchor:middle;fill:#ff8484;stroke-width:4.05623;stroke-linejoin:bevel">
      <path
         d="m 78.066004,128.39575 q -0.110861,0 -0.299977,-0.15651 l -0.05217,0.007 q -0.123903,0 -0.195637,-0.23476 -0.15651,-0.20216 -0.195637,-0.5217 -0.03913,-0.32606 -0.07173,-0.6456 -0.03913,-0.54127 -0.130424,-1.07601 -0.189116,-1.25208 -0.221723,-2.5172 -0.04565,-1.22599 -0.182594,-2.23026 -0.149989,-1.18687 -0.149989,-1.83247 0,-0.58691 0.07173,-1.17382 0.03913,-0.48257 0.293456,-0.7043 0.260849,-0.22172 0.802112,-0.25432 0.130425,-0.013 0.802113,-0.10434 0.247807,-0.0391 1.330333,-0.0913 0.05217,0 0.149988,-0.0326 0.202159,0.0326 0.404317,0.0326 0.169552,0 0.547784,-0.0587 l 0.847762,-0.007 q 0.68473,0 1.258599,0.19563 0.332583,0.12391 0.678209,0.16303 0.273892,0.0261 0.534742,0.31955 l 0.0913,0.0978 q 0.02609,0.0196 0.05217,0.0522 0.130425,0.13043 0.221722,0.16303 0.391275,0.0913 0.606475,0.35867 0.221723,0.26085 0.463009,0.58691 0.241285,0.31955 0.339104,0.65213 0.10434,0.33258 0.136946,0.69777 0.03913,0.36519 0.149989,0.71082 0.03913,0.13694 0.03913,0.28041 0,0.1239 -0.0913,0.50214 -0.06521,0.28041 -0.169553,0.54778 -0.09782,0.26737 -0.306498,0.49561 -0.117382,0.13695 -0.176073,0.34563 -0.05217,0.20216 -0.176074,0.3391 -0.567348,0.54127 -1.245557,0.91298 -0.560826,0.27389 -1.154259,0.49561 -0.371711,0.13695 -0.7369,0.29346 -0.10434,0.0456 -0.665167,0.1239 -0.560827,0.0717 -0.691251,0.26085 l 0.0065,0.11086 -0.0065,0.25433 q 0.01304,0.27389 0.208679,0.93906 0,0.18912 0.15651,0.44344 0.01304,0.0326 0.01304,0.0783 0,0.17607 -0.20868,0.47605 -0.176074,0.24128 -0.449966,0.39127 -0.273892,0.16956 -0.586911,0.22173 -0.639082,0.0652 -1.232515,0.0652 -0.143467,0 -0.365189,0.013 -0.221722,0.013 -0.443445,0.013 z m 2.99325,-7.12771 q 0.873846,0 1.128174,-0.35867 0.149989,-0.22172 0.149989,-0.37823 0,-0.0717 -0.01956,-0.13043 -0.110861,-0.22172 -0.352147,-0.35214 -0.234765,-0.13043 -0.456487,-0.13043 l -0.07825,0.007 q -0.286934,0.0326 -0.58039,0.0587 -0.202158,0.013 -0.202158,0.14999 0,0.0456 0.01304,0.10434 0.01304,0.11738 0.01304,0.23477 0,0.13694 -0.01956,0.27389 -0.01304,0.0652 -0.01304,0.31302 0,0.0522 0.01304,0.0913 0.05217,0.11739 0.404317,0.11739 z"
         id="path236" />
      <path
         d="m 94.525615,128.26533 q -0.08478,0 -0.182595,-0.013 -0.136946,-0.0196 -0.293456,-0.0196 -0.665167,-0.0196 -0.730379,-0.72386 -0.03913,-0.38475 -0.358668,-0.69125 -0.319541,-0.31302 -0.691252,-0.33258 -0.260849,0 -0.710815,0.20216 -0.397795,0.17607 -0.397795,0.57387 0,0.0522 0.01304,0.0978 0.05217,0.15651 0.05217,0.27389 0,0.35867 -0.476051,0.42388 -0.208679,0 -0.436923,0.0522 -0.169552,-0.013 -0.332583,-0.013 -0.26085,0 -0.691251,0.0261 l -0.423881,0.007 q -0.228243,0 -0.31302,-0.013 -0.482571,-0.0456 -0.612996,-0.0456 -0.20868,0 -0.430402,-0.11086 -0.358668,-0.16955 -0.456487,-0.50866 -0.01304,-0.0652 -0.01304,-0.13042 0,-0.0913 0.02608,-0.1826 0,-0.11086 0.247807,-0.97166 0.06521,-0.18912 0.143467,-0.36519 0.09782,-0.22172 0.169552,-0.45649 0.143468,-0.56082 0.273892,-1.12165 0.136946,-0.59343 0.293456,-1.18687 0.07825,-0.26085 0.189116,-0.50865 0.169552,-0.3978 0.215201,-0.65865 0.04565,-0.22824 0.436923,-1.40859 0.560827,-1.71508 0.854283,-2.765 0.143467,-0.59996 0.834718,-0.71734 0.117383,0 0.378232,0.0261 l 0.599954,0.013 0.384754,-0.007 q 0.123903,0 0.228243,-0.007 0.110861,-0.0131 0.176074,-0.0131 l 0.130424,0.007 q 0.08478,0 0.423881,-0.013 0.339104,-0.013 0.593433,-0.013 0.723858,0 0.952101,0.8282 0.110861,0.40431 0.280413,0.79559 0.215201,0.48257 0.397796,1.1673 0.110861,0.40432 0.247807,0.79559 0.123904,0.36519 0.189116,0.7369 0.07173,0.4304 0.221722,0.80211 0.149989,0.36519 0.228244,0.73038 0.07825,0.35867 0.215201,0.69126 0.05217,0.14346 0.05217,0.31301 0.0065,0.16956 0.03261,0.29998 0.07825,0.26737 0.169552,0.52822 0.143467,0.38476 0.176073,0.58691 0.0065,0.0783 0.03913,0.19564 0.09782,0.49562 0.163031,0.9521 0.06521,0.45649 0.358668,0.9521 0.03913,0.0848 0.03913,0.16956 0,0.22824 -0.345626,0.463 -0.254329,0.20216 -0.436923,0.20216 -0.130425,0 -0.599954,0.0261 -0.46953,0.0326 -0.723858,0.0326 -0.215201,0 -0.345626,0.007 -0.247807,0.0196 -0.42388,0.0196 z m -1.649874,-5.26264 q 0.234764,0 0.234764,-0.20216 0,-0.0456 -0.01304,-0.0652 l -0.176074,-0.97167 -0.104339,-0.20216 q -0.110862,-0.26085 -0.299977,-0.4304 -0.07173,-0.0522 -0.130425,-0.0522 -0.117383,0 -0.345626,0.13695 -0.04565,0.0522 -0.0913,0.0913 -0.01304,0.0131 -0.02608,0.0326 -0.01304,0.0196 -0.03913,0.0326 -0.143467,0.17607 -0.143467,0.2478 l -0.0913,0.25433 q 0,0.13695 -0.123904,0.54779 -0.07173,0.0717 -0.0913,0.46953 0.202158,0.0261 0.397795,0.0261 l 0.306499,-0.013 q 0.169552,0 0.254328,0.0391 0.215201,0 0.410838,0.0391 0.02608,0.0196 0.07173,0.0196 z"
         id="path238" />
      <path
         d="m 102.24024,128.30446 q -0.28041,0 -0.92601,-0.13043 -0.63908,-0.13042 -1.14774,-0.56083 -0.508658,-0.4304 -0.67821,-0.59995 -0.163031,-0.16955 -0.293456,-0.38475 -0.08478,-0.13043 -0.176074,-0.25433 -0.339104,-0.44345 -0.671687,-1.43467 -0.07173,-0.39128 -0.15651,-0.77603 l 0.0065,-0.11086 q 0,-0.32607 -0.07173,-0.63256 -0.07173,-0.58039 -0.07173,-1.16078 0,-0.61952 0.110861,-1.48685 0.01956,-0.22824 0.01956,-0.42388 0,-0.19563 -0.01956,-0.39127 -0.01304,-0.44997 -0.01304,-1.05644 0,-0.61952 0.03261,-1.23252 0.05217,-0.37823 0.384753,-0.46953 0.339104,-0.0913 0.606475,-0.0913 0.123904,0 0.247807,0.0326 l 0.267371,-0.0717 q 0.04565,0 0.08478,-0.007 0.130425,-0.0261 0.254326,-0.0261 0.24129,0 0.59344,0.0457 0.29345,0.10434 0.46952,0.10434 0.0652,0 0.28042,-0.0196 0.22824,0 0.41084,0.18911 0.2152,0.20868 0.26085,0.50214 0.0196,0.18911 0.0522,0.38475 0.13694,0.86081 0.13694,2.15201 0,0.69777 -0.0261,1.02384 -0.013,0.26737 -0.013,0.53474 0,0.93253 0.24781,2.05419 0.0522,0.2152 0.26085,0.26737 0.20868,0.0522 0.33258,0.0522 0.31955,0 0.43041,-0.1826 0.0978,-0.15651 0.0978,-0.54778 l -0.0326,-0.76951 q -0.0261,-1.46075 -0.0848,-2.83021 -0.11086,-0.43041 -0.11086,-0.77603 0,-0.14999 0.0196,-0.28042 0,-0.39779 0.0522,-0.80211 0.0522,-0.28041 0.0522,-0.72386 0.11086,-0.31302 0.53474,-0.32606 0.79559,-0.0717 1.20643,-0.0717 0.76298,0 1.5064,0.10434 0.3065,0.0587 0.45649,0.28693 0.15651,0.22825 0.18259,0.5217 0.0196,0.20868 0.0196,0.41736 0,0.16303 -0.013,0.31954 l -0.007,0.45649 q 0.0196,0.35867 0.0587,0.71734 l 0.13694,1.78029 q 0.0456,0.48258 0.0848,0.97167 0,0.11738 -0.013,0.23476 -0.007,0.0717 -0.007,0.14999 0,0.2152 0.0717,0.86081 0,0.16955 -0.0391,0.61299 -0.0848,0.27389 -0.13695,0.56083 -0.0848,0.51518 -0.36519,0.89993 -0.0783,0.10434 -0.1239,0.25433 -0.37823,0.9521 -1.50641,1.5651 -0.13694,0.0717 -0.50865,0.19563 -0.16303,0.0522 -0.32606,0.0848 -0.24129,0.0522 -0.46953,0.14347 -0.32607,0.13042 -0.66517,0.13042 z"
         id="path240" />
      <path
         d="m 112.93508,128.36967 q -0.19564,0 -0.56083,-0.0913 l -0.0457,-0.007 q -0.0652,0 -0.13695,0.0326 -0.16955,-0.0587 -0.2478,-0.0587 -0.0587,0 -0.11086,0.0196 -0.11739,-0.0326 -0.22173,-0.0326 -0.20215,0 -0.39127,-0.0652 l -0.18259,-0.0391 q -0.22173,-0.0978 -0.33911,-0.0978 l -0.0782,0.007 q -0.0913,-0.0391 -0.17608,-0.0391 -0.29345,0 -0.46301,-0.27389 -0.16955,-0.24781 -0.16955,-0.45649 0,-0.16303 0.11738,-0.32606 0.0848,-0.11086 0.0978,-0.24781 0.013,-0.55431 0.31954,-1.0434 0.10434,-0.16955 0.12391,-0.39779 0.013,-0.12391 0.0456,-0.24781 0.22824,-0.61952 0.92601,-0.61952 0.20216,0 0.3978,0.0848 0.63908,0.30649 1.30425,0.54778 0.0261,0.007 0.0652,0.007 0.19564,0 0.31954,-0.0978 0.013,-0.013 0.013,-0.0457 0,-0.0456 -0.0196,-0.13042 -0.13043,-0.22172 -0.26085,-0.24129 -0.34563,-0.0782 -0.65213,-0.26085 -0.45648,-0.25432 -0.82167,-0.27389 -0.28042,-0.0261 -0.55431,-0.16955 -0.11738,-0.0587 -0.24128,-0.10434 -0.10434,-0.0652 -0.13695,-0.0652 l -0.11086,0.007 q -0.29998,-0.0652 -0.46953,-0.22172 -0.20868,-0.11739 -0.35215,-0.37824 -0.0913,-0.14998 -0.18911,-0.28041 -0.26737,-0.35215 -0.40432,-0.74994 -0.13695,-0.3978 -0.24781,-0.86733 -0.0391,-0.14346 -0.0391,-0.24128 0,-0.25433 0.0326,-0.37171 0.007,-0.2739 0.0783,-0.4304 0.0717,-0.16304 0.0848,-0.33259 0.14999,-0.29345 0.37823,-0.69777 0.54127,-0.9521 1.20643,-1.31077 0.59344,-0.32606 1.21948,-0.55431 0.63256,-0.22824 1.33033,-0.25432 l 0.54126,-0.0196 q 0.34563,-0.0261 0.69125,-0.0261 0.24781,0 0.49562,0.013 0.52822,0.0587 1.03688,0.24781 0.39779,0.1239 0.73037,0.28041 l 0.28694,0.1239 q 0.4304,0.19564 0.4304,0.53475 0,0.16955 -0.11086,0.37823 -0.0717,0.0978 -0.10434,0.18259 -0.45649,1.84551 -0.45649,1.93681 l 0.007,0.0717 q 0,0.12391 -0.0391,0.14999 -0.0783,0.0391 -0.22173,0.0391 -0.1239,0 -0.19563,0.013 -0.2152,0.0587 -0.41736,0.0587 -0.43693,0 -1.17383,-0.38475 -0.0587,-0.0196 -0.1239,-0.0196 -0.14347,0 -0.29345,0.1239 l -0.0457,0.1239 0.0522,0.0848 q 0.13694,0.22172 1.36946,0.59343 0.3391,0.0783 0.76298,0.37824 0.13695,0.10433 0.28042,0.1565 0.27389,0.0978 0.41083,0.25433 0.5217,0.67169 0.64561,0.76951 0.0717,0 0.13042,0.0261 0.1826,0.2739 0.18912,0.31955 0.11738,0.33258 0.16955,1.21947 -0.007,0.27389 -0.0848,0.5543 -0.0391,0.14999 -0.0652,0.29998 -0.0848,0.61952 -0.54778,1.0434 -0.16956,0.15651 -0.20216,0.26737 -0.11086,0.46953 -0.43692,0.69125 -0.31955,0.22172 -0.75647,0.4304 l -0.19564,0.13043 q -0.44344,0.20868 -0.82167,0.20868 l -0.48257,-0.007 q -0.10434,0 -0.19564,0.0261 -0.38475,0.1239 -0.6456,0.1239 l -0.40432,-0.007 q -0.0522,-0.0196 -0.11086,-0.0196 -0.0587,0 -0.26085,-0.013 -0.14347,0.0456 -0.27389,0.0587 z"
         id="path242" />
      <path
         d="m 126.55795,128.26533 q -0.0848,0 -0.1826,-0.013 -0.13694,-0.0196 -0.29345,-0.0196 -0.66517,-0.0196 -0.73038,-0.72386 -0.0391,-0.38475 -0.35867,-0.69125 -0.31954,-0.31302 -0.69125,-0.33258 -0.26085,0 -0.71082,0.20216 -0.39779,0.17607 -0.39779,0.57387 0,0.0522 0.013,0.0978 0.0522,0.15651 0.0522,0.27389 0,0.35867 -0.47605,0.42388 -0.20868,0 -0.43692,0.0522 -0.16955,-0.013 -0.33259,-0.013 -0.26085,0 -0.69125,0.0261 l -0.42388,0.007 q -0.22824,0 -0.31302,-0.013 -0.48257,-0.0456 -0.61299,-0.0456 -0.20868,0 -0.43041,-0.11086 -0.35866,-0.16955 -0.45648,-0.50866 -0.013,-0.0652 -0.013,-0.13042 0,-0.0913 0.0261,-0.1826 0,-0.11086 0.24781,-0.97166 0.0652,-0.18912 0.14346,-0.36519 0.0978,-0.22172 0.16956,-0.45649 0.14346,-0.56082 0.27389,-1.12165 0.13694,-0.59343 0.29345,-1.18687 0.0783,-0.26085 0.18912,-0.50865 0.16955,-0.3978 0.2152,-0.65865 0.0457,-0.22824 0.43692,-1.40859 0.56083,-1.71508 0.85429,-2.765 0.14346,-0.59996 0.83472,-0.71734 0.11738,0 0.37823,0.0261 l 0.59995,0.013 0.38475,-0.007 q 0.12391,0 0.22825,-0.007 0.11086,-0.0131 0.17607,-0.0131 l 0.13043,0.007 q 0.0848,0 0.42388,-0.013 0.3391,-0.013 0.59343,-0.013 0.72386,0 0.9521,0.8282 0.11086,0.40431 0.28041,0.79559 0.21521,0.48257 0.3978,1.1673 0.11086,0.40432 0.24781,0.79559 0.1239,0.36519 0.18911,0.7369 0.0717,0.4304 0.22173,0.80211 0.14998,0.36519 0.22824,0.73038 0.0782,0.35867 0.2152,0.69126 0.0522,0.14346 0.0522,0.31301 0.007,0.16956 0.0326,0.29998 0.0782,0.26737 0.16955,0.52822 0.14347,0.38476 0.17607,0.58691 0.007,0.0783 0.0391,0.19564 0.0978,0.49562 0.16303,0.9521 0.0652,0.45649 0.35867,0.9521 0.0391,0.0848 0.0391,0.16956 0,0.22824 -0.34563,0.463 -0.25433,0.20216 -0.43692,0.20216 -0.13043,0 -0.59996,0.0261 -0.46953,0.0326 -0.72385,0.0326 -0.21521,0 -0.34563,0.007 -0.24781,0.0196 -0.42388,0.0196 z m -1.64987,-5.26264 q 0.23476,0 0.23476,-0.20216 0,-0.0456 -0.013,-0.0652 l -0.17608,-0.97167 -0.10434,-0.20216 q -0.11086,-0.26085 -0.29997,-0.4304 -0.0717,-0.0522 -0.13043,-0.0522 -0.11738,0 -0.34562,0.13695 -0.0456,0.0522 -0.0913,0.0913 -0.013,0.0131 -0.0261,0.0326 -0.013,0.0196 -0.0391,0.0326 -0.14347,0.17607 -0.14347,0.2478 l -0.0913,0.25433 q 0,0.13695 -0.1239,0.54779 -0.0717,0.0717 -0.0913,0.46953 0.20216,0.0261 0.3978,0.0261 l 0.30649,-0.013 q 0.16956,0 0.25433,0.0391 0.2152,0 0.41084,0.0391 0.0261,0.0196 0.0717,0.0196 z"
         id="path244" />
      <path
         d="m 134.67037,128.36967 q -0.16303,-0.007 -0.34562,-0.007 -0.40432,0 -0.74995,-0.0456 -0.39127,-0.0587 -0.74342,-0.29998 -0.47605,-0.38475 -0.47605,-1.3499 0,-0.2478 0.0522,-0.49561 0.15651,-0.60648 0.15651,-1.23904 l -0.007,-0.29997 q -0.0261,-0.31954 -0.0261,-0.63908 l 0.013,-0.63909 -0.013,-0.62603 q 0,-0.63257 0.13042,-1.26513 0.0196,-0.0913 0.0196,-0.16955 0,-0.46953 -0.59343,-0.54778 -0.73038,-0.10434 -1.42163,-0.33259 -0.26085,-0.0978 -0.4304,-0.49561 -0.14347,-0.3978 -0.14999,-0.61952 0,-0.22172 0,-0.26085 0,-0.37823 0.0652,-0.76298 0.0522,-0.3978 0.0717,-0.79559 0.0261,-0.29998 0.20868,-0.50214 0.18911,-0.20216 0.48257,-0.22824 l 0.26737,-0.0196 q 0.37171,-0.0456 0.74994,-0.0456 0.1826,0 0.37823,0.0196 0.20216,0.0196 0.40432,0.0196 0.39127,0 0.77603,-0.0913 0.0782,-0.013 0.14999,-0.013 l 0.463,-0.007 q 0.0261,0 0.0652,0.007 0.0456,0.007 0.11738,0.007 0.0326,0 0.0587,-0.013 0.22172,-0.0456 0.43692,-0.0456 0.24129,0 0.613,0.0326 0.37823,0.0261 0.61952,0.0261 0.29997,0 0.59995,0.0587 0.26085,0.0522 0.5217,0.0522 0.15651,0 0.33911,-0.0196 0.2152,0 0.41735,0.0652 0.11087,0.0391 0.22173,0.0587 0.0783,0.013 0.14999,0.0391 0.13694,0.0457 0.27389,0.0457 l 0.3391,-0.0261 q 0.40432,0 0.63256,0.20868 0.26737,0.25432 0.26737,0.6456 0,0.0913 -0.0326,0.20868 l 0.013,0.35215 -0.007,0.1239 q 0,0.0456 0.007,0.0652 v 0.46953 q 0,0.28041 -0.11086,0.61952 l -0.0717,0.28693 q -0.11086,0.57387 -0.50213,0.73038 -0.22824,0.0978 -0.97167,0.11086 -0.33258,0.0131 -0.66516,0.0391 -0.33911,0.0587 -0.33911,0.4304 0,0.10434 0.0261,0.23477 0.0783,0.28693 0.0783,0.57387 0,0.35214 -0.0783,0.87384 -0.0652,0.50866 -0.19564,1.83899 -0.0196,0.15651 -0.0456,0.3065 -0.0456,0.26085 -0.0587,0.51518 0,0.27389 0.0196,0.54126 0.0261,0.35215 0.0261,0.87385 0,0.3391 -0.0196,0.67169 -0.007,0.0913 -0.0717,0.19563 -0.0587,0.0978 -0.14346,0.14347 -0.82168,0.41084 -1.9629,0.41084 z"
         id="path246" />
    </g>
  </g>
</svg>
