<?xml version="1.0" encoding="UTF-8" standalone="no"?>
<!-- Created with Inkscape (http://www.inkscape.org/) -->

<svg
   width="525"
   height="105"
   viewBox="0 0 138.90625 27.78125"
   version="1.1"
   id="svg5"
   xml:space="preserve"
   inkscape:version="1.2 (dc2aedaf03, 2022-05-15)"
   sodipodi:docname="spelaigen1.svg"
   inkscape:export-filename="spela1.png"
   inkscape:export-xdpi="96"
   inkscape:export-ydpi="96"
   xmlns:inkscape="http://www.inkscape.org/namespaces/inkscape"
   xmlns:sodipodi="http://sodipodi.sourceforge.net/DTD/sodipodi-0.dtd"
   xmlns="http://www.w3.org/2000/svg"
   xmlns:svg="http://www.w3.org/2000/svg"><sodipodi:namedview
     id="namedview7"
     pagecolor="#ffffff"
     bordercolor="#000000"
     borderopacity="0.25"
     inkscape:showpageshadow="2"
     inkscape:pageopacity="0.0"
     inkscape:pagecheckerboard="0"
     inkscape:deskcolor="#d1d1d1"
     inkscape:document-units="mm"
     showgrid="false"
     showguides="false"
     inkscape:zoom="1.9855336"
     inkscape:cx="244.26683"
     inkscape:cy="63.459012"
     inkscape:window-width="1920"
     inkscape:window-height="986"
     inkscape:window-x="-11"
     inkscape:window-y="-11"
     inkscape:window-maximized="1"
     inkscape:current-layer="layer1" /><defs
     id="defs2" /><g
     inkscape:label="Lager 1"
     inkscape:groupmode="layer"
     id="layer1"><rect
       style="fill:#ff8484;fill-opacity:1;stroke:none;stroke-width:2.19981;stroke-linejoin:bevel"
       id="rect184"
       width="138.90625"
       height="17.45479"
       x="-1.1546319e-14"
       y="10.260675"
       ry="2.7983661"
       rx="2.7983661" /><rect
       style="fill:#ffecec;fill-opacity:1;stroke:none;stroke-width:2.64234;stroke-linejoin:bevel"
       id="rect5848"
       width="138.90625"
       height="25.183611"
       x="-2.1316282e-14"
       y="-3.1789145e-07"
       ry="2.7983661"
       rx="2.7983661" /><g
       aria-label="SPELA IGEN"
       id="text290"
       style="font-size:13.8536px;font-family:'Source Sans Pro';-inkscape-font-specification:'Source Sans Pro';fill:#ff8484;stroke-width:0.353267;stroke-linejoin:bevel"><path
         d="m 22.8359,18.625697 q -0.202933,0 -0.581743,-0.0947 l -0.04735,-0.0068 q -0.06764,0 -0.142053,0.03382 -0.175876,-0.06088 -0.25705,-0.06088 -0.06088,0 -0.114995,0.02029 -0.12176,-0.03382 -0.229992,-0.03382 -0.209698,0 -0.405867,-0.06764 l -0.189405,-0.04059 q -0.229991,-0.101467 -0.351751,-0.101467 l -0.08117,0.0068 q -0.0947,-0.04059 -0.18264,-0.04059 -0.3044,0 -0.480276,-0.284107 -0.175876,-0.257049 -0.175876,-0.473512 0,-0.169111 0.12176,-0.338222 0.08794,-0.114996 0.101467,-0.25705 0.01353,-0.574978 0.331458,-1.082312 0.108232,-0.175876 0.128525,-0.412632 0.01353,-0.128524 0.04735,-0.257049 0.236756,-0.642623 0.960553,-0.642623 0.209698,0 0.412631,0.08794 0.662917,0.317929 1.352891,0.568214 0.02706,0.0068 0.06764,0.0068 0.202934,0 0.331458,-0.101466 0.01353,-0.01353 0.01353,-0.04735 0,-0.04735 -0.02029,-0.135289 -0.135289,-0.229991 -0.270578,-0.250284 -0.358516,-0.08117 -0.676445,-0.270579 -0.473512,-0.263813 -0.852321,-0.284107 -0.290872,-0.02706 -0.574979,-0.175875 -0.12176,-0.06088 -0.250285,-0.108232 -0.108231,-0.06764 -0.142053,-0.06764 l -0.114996,0.0068 q -0.311165,-0.06764 -0.487041,-0.229991 -0.216462,-0.12176 -0.36528,-0.392338 -0.0947,-0.155583 -0.196169,-0.290872 -0.277343,-0.36528 -0.419396,-0.777912 -0.142054,-0.412631 -0.257049,-0.899672 -0.04059,-0.148818 -0.04059,-0.250285 0,-0.263814 0.03382,-0.385574 0.0068,-0.284107 0.08117,-0.446454 0.07441,-0.1691109 0.08794,-0.3449866 0.155583,-0.3044004 0.392339,-0.7237965 0.561449,-0.9876101 1.251424,-1.359655 0.615565,-0.3382227 1.264952,-0.5749785 0.656152,-0.2367559 1.379949,-0.2638137 l 0.561449,-0.020293 q 0.358516,-0.027058 0.717032,-0.027058 0.257049,0 0.514099,0.013529 0.54792,0.06088 1.075548,0.2570492 0.412631,0.1285246 0.757618,0.2908715 l 0.297636,0.1285246 q 0.446454,0.2029336 0.446454,0.5546852 0,0.1758757 -0.114996,0.3923382 -0.07441,0.1014668 -0.108231,0.1894047 -0.473511,1.9143402 -0.473511,2.0090422 l 0.0068,0.07441 q 0,0.128525 -0.04059,0.155583 -0.08117,0.04059 -0.229991,0.04059 -0.128525,0 -0.202934,0.01353 -0.223227,0.06088 -0.432925,0.06088 -0.453218,0 -1.217601,-0.399102 -0.06088,-0.02029 -0.128525,-0.02029 -0.148818,0 -0.3044,0.128525 l -0.04735,0.128525 0.05411,0.08794 q 0.142054,0.229992 1.420535,0.615566 0.351752,0.08117 0.791441,0.392338 0.142054,0.108231 0.290872,0.162347 0.284107,0.101467 0.42616,0.263813 0.541157,0.696739 0.669681,0.798206 0.07441,0 0.135289,0.02706 0.189405,0.284107 0.196169,0.331458 0.121761,0.344987 0.175876,1.264953 -0.0068,0.284107 -0.08794,0.574978 -0.04059,0.155583 -0.06764,0.311165 -0.08794,0.642623 -0.568214,1.082312 -0.175876,0.162347 -0.209698,0.277343 -0.114996,0.487041 -0.453219,0.717032 -0.331458,0.229991 -0.784676,0.446454 l -0.202934,0.135289 q -0.459983,0.216462 -0.852321,0.216462 l -0.500569,-0.0068 q -0.108232,0 -0.202934,0.02706 -0.399103,0.128524 -0.669681,0.128524 l -0.419396,-0.0068 q -0.05412,-0.02029 -0.114996,-0.02029 -0.06088,0 -0.270578,-0.01353 -0.148818,0.04735 -0.284107,0.06088 z"
         style="font-family:Kaph;-inkscape-font-specification:Kaph"
         id="path237" /><path
         d="m 31.43352,18.652755 q -0.114996,0 -0.311165,-0.162347 l -0.05412,0.0068 q -0.128525,0 -0.202934,-0.24352 -0.162346,-0.209698 -0.202933,-0.541156 -0.04059,-0.338223 -0.07441,-0.669681 -0.04059,-0.56145 -0.135289,-1.116135 -0.196169,-1.298775 -0.229992,-2.611079 -0.04735,-1.271717 -0.189404,-2.313443 -0.155583,-1.2311301 -0.155583,-1.900811 0,-0.6088007 0.07441,-1.2176015 0.04059,-0.5005695 0.304401,-0.7305609 0.270578,-0.2299914 0.832027,-0.2638137 0.135289,-0.013529 0.832028,-0.1082312 0.257049,-0.040587 1.379949,-0.094702 0.05412,0 0.155582,-0.033822 0.209698,0.033822 0.419396,0.033822 0.175876,0 0.568214,-0.06088 l 0.879379,-0.00676 q 0.710268,0 1.305539,0.2029336 0.344987,0.1285246 0.703503,0.1691113 0.284107,0.027058 0.554686,0.3314582 l 0.0947,0.1014668 q 0.02706,0.020293 0.05412,0.054116 0.135289,0.1352891 0.229991,0.1691114 0.405867,0.094702 0.629094,0.3720449 0.229991,0.2705781 0.480276,0.6088007 0.250285,0.3314582 0.351752,0.6764453 0.108231,0.3449871 0.142053,0.7237964 0.04059,0.378809 0.155583,0.737325 0.04059,0.142054 0.04059,0.290872 0,0.128525 -0.0947,0.520863 -0.06764,0.290871 -0.175876,0.568214 -0.101466,0.277342 -0.317929,0.514098 -0.12176,0.142054 -0.18264,0.358516 -0.05412,0.209698 -0.18264,0.351752 -0.588508,0.561449 -1.292011,0.947023 -0.581743,0.284107 -1.197308,0.514099 -0.385574,0.142053 -0.764383,0.3044 -0.108232,0.04735 -0.689974,0.128525 -0.581743,0.07441 -0.717032,0.270578 l 0.0068,0.114995 -0.0068,0.263814 q 0.01353,0.284107 0.216462,0.974081 0,0.196169 0.162347,0.459983 0.01353,0.03382 0.01353,0.08117 0,0.18264 -0.216463,0.493805 -0.18264,0.250284 -0.466747,0.405867 -0.284107,0.175876 -0.608801,0.229991 -0.662916,0.06764 -1.278481,0.06764 -0.148818,0 -0.37881,0.01353 -0.229991,0.01353 -0.459982,0.01353 z m 3.104883,-7.393547 q 0.906437,0 1.170251,-0.372045 0.155582,-0.229992 0.155582,-0.392339 0,-0.07441 -0.02029,-0.135289 -0.114996,-0.229991 -0.365281,-0.3652802 -0.24352,-0.135289 -0.473511,-0.135289 l -0.08117,0.00676 q -0.297636,0.033822 -0.602036,0.06088 -0.209698,0.013529 -0.209698,0.1555827 0,0.04735 0.01353,0.108231 0.01353,0.12176 0.01353,0.24352 0,0.142054 -0.02029,0.284107 -0.01353,0.06764 -0.01353,0.324694 0,0.05412 0.01353,0.0947 0.05412,0.121761 0.419396,0.121761 z"
         style="font-family:Kaph;-inkscape-font-specification:Kaph"
         id="path239" /><path
         d="m 45.902685,18.503937 q -0.385574,0.05411 -0.662916,0.05411 -0.331459,0 -0.50057,-0.08117 -0.08117,-0.04059 -0.155582,-0.04059 -0.04735,0 -0.08794,0.01353 l -1.204073,-0.03382 q -0.175876,-0.0068 -0.351751,-0.0068 -0.142054,0 -0.277343,0.04735 -0.196169,-0.01353 -0.358516,-0.01353 -0.730561,0 -0.825263,-1.18378 l -0.02029,-0.635858 q -0.04059,-0.906437 -0.04059,-1.819638 0,-1.014668 0.108231,-2.0361 l 0.07441,-0.947024 q 0,-0.128524 -0.02706,-0.250285 -0.02706,-0.128524 -0.02706,-0.236755 v -0.04735 q 0.04059,-0.446454 0.04059,-0.899672 0.02029,-1.0687835 0.196169,-1.6775842 0.08117,-0.3246938 0.101467,-0.6629164 l 0.04735,-0.3788094 q 0.12176,-0.8590855 0.845557,-0.9943745 0.128524,0 0.277342,0.027058 0.196169,0.040587 0.37881,0.040587 0.202933,0.054116 0.378809,0.054116 0.24352,0 0.426161,-0.1082312 0.06764,-0.054116 0.216462,-0.087938 l 0.07441,-0.013529 q 0.0947,-0.027058 0.196169,-0.027058 0.12176,0 0.250285,0.040587 0.317929,-0.067645 0.737325,-0.067645 0.432925,0 0.974081,0.074409 0.148818,0 0.31793,0.040587 0.317929,0 0.642623,0.040587 0.358516,0.033822 1.237895,0.1420535 0.649387,0.1217601 0.730561,0.1217601 l 0.196169,-0.013529 q 0.466747,0 0.750854,0.3246938 0.216463,0.2367558 0.216463,0.5614495 0,0.1623469 -0.05412,0.3449871 -0.07441,0.1826403 -0.07441,0.3652805 0,0.2164625 -0.02706,0.4261605 0.04735,0.087938 0.04735,0.2164625 0,0.067645 -0.03382,0.1014668 v 0.4599828 q 0,0.148818 0.03382,0.2976364 0.03382,0.142053 0.03382,0.257049 0,0.209698 -0.202934,0.378809 -0.196169,0.169111 -0.365281,0.236756 -0.162346,0.06088 -0.284107,0.06088 -0.12176,0 -0.250284,-0.04059 -0.832028,-0.290871 -1.461122,-0.290871 -0.263814,0 -0.534392,-0.02029 l -0.06088,0.0068 q -0.135289,0 -0.277343,-0.06764 -0.236755,-0.04059 -1.177014,-0.04059 l -0.385574,0.0068 q -0.03382,0.0068 -0.06764,0.06088 -0.02706,0.05412 -0.0947,0.229992 -0.06088,0.175875 -0.0947,0.236755 0.392338,0.108232 0.6088,0.108232 0.148818,0 0.297636,-0.03382 0.04735,-0.01353 0.101467,-0.01353 0.108231,0.04735 0.324694,0.04735 0.101467,0 0.236756,-0.01353 0.18264,0.03382 0.263813,0.03382 h 0.06088 q 0.0947,0 0.19617,-0.06764 0.06764,-0.0068 0.135289,-0.0068 0.229991,0 0.48704,0.05412 0.07441,-0.01353 0.135289,-0.01353 0.331458,0 0.331458,0.3044 0,0.135289 -0.05412,0.290872 -0.05412,0.155582 -0.05412,0.297636 0,0.189404 0.101467,0.36528 0.06088,0.08794 0.06088,0.18264 -0.03382,0.250285 -0.04059,0.50057 -0.01353,0.297636 -0.05412,0.588507 -0.04059,0.290872 -0.108231,0.432925 -0.148818,0.12176 -0.331459,0.162347 -0.18264,0.03382 -0.24352,0.03382 -0.209698,0 -0.385574,-0.01353 -0.189404,0.0068 -0.317929,0.0068 -0.108231,0 -0.223227,0.02029 -0.155582,0.02706 -0.372045,0.02706 -0.317929,0 -0.507334,-0.101467 -0.101467,-0.03382 -0.202933,-0.03382 -0.13529,0 -0.25705,0.101467 -0.196169,0.142053 -0.196169,0.324694 0,0.08117 0.03382,0.175875 0.06088,0.135289 0.128525,0.148818 0.07441,0.01353 0.128525,0.01353 0.0947,0 0.196169,0.02029 0.101467,0.01353 0.223227,0.01353 0.223227,0 0.385574,0.02029 0.169111,0.01353 0.277342,0.01353 0.196169,0 0.459983,-0.03382 0.148818,-0.0068 0.196169,-0.0068 l 0.03382,0.0068 q 0.209698,-0.0068 0.480276,-0.07441 0.270579,-0.06764 0.595272,-0.114995 0.114996,-0.04735 0.243521,-0.135289 0.135289,-0.0947 0.257049,-0.148818 0.12176,-0.06088 0.209698,-0.216463 0.04059,-0.06764 0.142053,-0.06764 0.182641,0 0.412632,0.114995 0.175876,0.0947 0.284107,0.223227 0.426161,0.507334 0.426161,1.210837 -0.0068,0.284107 -0.03382,0.574979 -0.02706,0.250285 -0.02706,0.507334 0,0.385574 0.128525,0.703503 0.02706,0.07441 0.02706,0.142053 0,0.182641 -0.175876,0.358517 -0.229991,0.236755 -0.574978,0.317929 -0.169112,-0.0068 -0.338223,-0.05412 -0.196169,0.01353 -0.324694,0.01353 -0.128524,0 -0.24352,0.06088 -0.277343,0.03382 -0.43969,0.05412 -0.155582,0.02029 -0.196169,0.02029 -0.24352,0 -0.744089,0.02706 -0.493806,0.02706 -0.80497,0.02706 -0.223227,0 -0.466748,-0.04059 -0.04735,-0.02706 -0.114995,-0.02706 -0.128525,0 -0.324694,0.02029 z"
         style="font-family:Kaph;-inkscape-font-specification:Kaph"
         id="path241" /><path
         d="m 54.507066,18.52423 h -0.317929 q -0.284107,0 -0.37881,-0.02029 -0.297636,-0.06764 -0.595271,-0.06764 -0.56145,0 -0.777913,-0.466747 -0.209698,-0.466747 -0.257049,-0.98761 -0.02706,-0.446454 -0.02706,-0.892908 0,-0.811734 0.07441,-1.292011 0.04059,-0.257049 0.06088,-0.514098 0,-0.223227 -0.02706,-0.439689 -0.02706,-0.216463 -0.02706,-0.426161 0.04059,-1.190544 0.257049,-5.7768428 0.03382,-0.358516 0.257049,-0.6764453 0.229992,-0.3179293 0.602037,-0.3314582 0.432925,0 1.603175,0.027058 0.723796,0.074409 1.04849,0.074409 0.534392,0 0.730561,0.1894047 0.202934,0.1894047 0.202934,0.5276273 0,0.1082313 -0.01353,0.2367559 -0.08794,0.9064367 -0.08794,1.1364281 l -0.05412,1.8940465 q 0,0.06764 -0.05411,0.764383 -0.02029,0.0068 -0.02029,0.13529 0,0.169111 0,0.202933 0.0068,0.02706 0.0068,0.04059 0,0.0947 -0.04059,0.480276 -0.06765,0.547921 -0.06765,0.845557 0,0.08794 0.01353,0.18264 0.01353,0.08794 0.01353,0.169111 l -0.0068,0.473512 q 0,0.216462 0.114995,0.344987 0.07441,0.0947 0.162347,0.0947 0.385574,-0.0068 0.777912,-0.04059 0.642623,-0.07441 2.151096,-0.135289 0.148818,0.0068 0.297636,0.06088 0.182641,0.06764 0.480277,0.06764 l 0.196169,-0.0068 q 0.284107,0 0.507334,0.209698 0.223227,0.209698 0.263813,0.54792 0.05412,0.514099 0.12176,1.522002 -0.02706,0.710268 -0.05412,0.940259 -0.05412,0.290872 -0.331458,0.466748 -0.277343,0.169111 -0.541157,0.169111 l -0.223227,-0.01353 q -0.196169,0 -0.392338,0.04059 -0.189404,0.04059 -0.42616,0.04059 -0.0947,0 -0.202934,-0.0068 -0.101467,-0.0068 -0.324694,-0.0068 -0.162347,0.02029 -0.317929,0.05412 -0.351752,0.08794 -0.886143,0.101467 -0.527628,0.02029 -0.662917,0.03382 l -0.270578,-0.0068 -2.015807,0.01353 q -0.290871,0.02029 -0.541156,0.02029 z"
         style="font-family:Kaph;-inkscape-font-specification:Kaph"
         id="path243" /><path
         d="m 70.13972,18.517465 q -0.08794,0 -0.189404,-0.01353 -0.142054,-0.02029 -0.304401,-0.02029 -0.689974,-0.02029 -0.757619,-0.750854 -0.04059,-0.399103 -0.372044,-0.717032 -0.331459,-0.324694 -0.717032,-0.344987 -0.270579,0 -0.737326,0.209698 -0.412631,0.18264 -0.412631,0.595272 0,0.05412 0.01353,0.101467 0.05412,0.162346 0.05412,0.284107 0,0.372044 -0.493805,0.439689 -0.216462,0 -0.453218,0.05412 -0.175876,-0.01353 -0.344987,-0.01353 -0.270579,0 -0.717032,0.02706 l -0.43969,0.0068 q -0.236756,0 -0.324694,-0.01353 -0.500569,-0.04735 -0.635858,-0.04735 -0.216463,0 -0.446454,-0.114996 -0.372045,-0.175876 -0.473512,-0.527627 -0.01353,-0.06764 -0.01353,-0.135289 0,-0.0947 0.02706,-0.189405 0,-0.114996 0.257049,-1.007903 0.06764,-0.196169 0.148818,-0.37881 0.101467,-0.229991 0.175876,-0.473511 0.148818,-0.581743 0.284107,-1.163486 0.142054,-0.615566 0.304401,-1.231131 0.08117,-0.270578 0.196169,-0.527627 0.175875,-0.412632 0.223227,-0.68321 0.04735,-0.236756 0.453218,-1.461122 0.581743,-1.7790508 0.886143,-2.8681277 0.148818,-0.6223296 0.86585,-0.7440898 0.12176,0 0.392339,0.027058 l 0.622329,0.013529 0.399103,-0.00676 q 0.128524,0 0.236756,-0.00676 0.114995,-0.013529 0.18264,-0.013529 l 0.135289,0.00676 q 0.08794,0 0.439689,-0.013529 0.351752,-0.013529 0.615566,-0.013529 0.750854,0 0.98761,0.8590855 0.114996,0.4193961 0.290871,0.8252632 0.223227,0.5005695 0.412632,1.2108371 0.114996,0.4193961 0.257049,0.8252631 0.128525,0.37881 0.196169,0.764383 0.07441,0.446454 0.229992,0.832028 0.155582,0.378809 0.236756,0.757619 0.08117,0.372045 0.223226,0.717032 0.05412,0.148818 0.05412,0.324694 0.0068,0.175875 0.03382,0.311164 0.08117,0.277343 0.175876,0.547921 0.148818,0.399103 0.18264,0.608801 0.0068,0.08117 0.04059,0.202933 0.101467,0.514099 0.169111,0.987611 0.06764,0.473511 0.372045,0.98761 0.04059,0.08794 0.04059,0.175875 0,0.236756 -0.358516,0.480277 -0.263814,0.209698 -0.453218,0.209698 -0.135289,0 -0.62233,0.02706 -0.487041,0.03382 -0.750854,0.03382 -0.223227,0 -0.358516,0.0068 -0.257049,0.02029 -0.43969,0.02029 z m -1.711406,-5.458913 q 0.24352,0 0.24352,-0.209698 0,-0.04735 -0.01353,-0.06764 l -0.18264,-1.007903 -0.108231,-0.209698 q -0.114996,-0.270578 -0.311165,-0.446454 -0.07441,-0.05412 -0.135289,-0.05412 -0.12176,0 -0.358516,0.142054 -0.04735,0.05412 -0.0947,0.0947 -0.01353,0.01353 -0.02706,0.03382 -0.01353,0.02029 -0.04059,0.03382 -0.148818,0.18264 -0.148818,0.257049 l -0.0947,0.263814 q 0,0.142053 -0.128525,0.568214 -0.07441,0.07441 -0.0947,0.48704 0.209698,0.02706 0.412631,0.02706 l 0.31793,-0.01353 q 0.175875,0 0.263813,0.04059 0.223227,0 0.426161,0.04059 0.02706,0.02029 0.07441,0.02029 z"
         style="font-family:Kaph;-inkscape-font-specification:Kaph"
         id="path245" /><path
         d="m 83.803912,18.625697 q -0.290871,0 -0.595272,-0.07441 -0.0947,-0.02706 -0.202933,-0.02706 -0.148818,0 -0.351752,0.05412 -0.128524,0.04059 -0.257049,0.04059 l -0.108231,-0.0068 -0.169112,-0.02706 q -0.18264,-0.02706 -0.338222,-0.101467 -0.155583,-0.06764 -0.209698,-0.284107 l -0.02029,-0.0947 q -0.142053,-0.642623 -0.162347,-1.292011 0,-0.297636 0.03382,-0.595272 L 81.402531,15.5614 q 0,-0.263814 0.02706,-0.534392 0.02029,-0.202934 0.02029,-0.412632 0,-0.277342 -0.04735,-0.541156 -0.06088,-0.3044 -0.08794,-2.286385 L 81.179304,9.9401392 q 0.0068,-0.2502848 0.02706,-0.4938051 0.02706,-0.3923382 0.02706,-0.7846765 0,-0.2502848 -0.02706,-0.4938051 -0.02029,-0.2502847 -0.02706,-0.5005695 0.02029,-0.7779121 0.493805,-0.8455566 0.913202,-0.1082312 1.36642,-0.135289 0.101467,-0.020293 0.202934,-0.020293 0.06764,0 0.114995,0.027058 0.162347,0.087938 0.31793,0.087938 0.162346,0 0.317929,-0.020293 0.216462,-0.027058 0.372045,-0.027058 0.175875,0 0.378809,0.047351 0.236756,0.06088 0.365281,0.3246937 0.358516,0.581743 0.358516,0.9673168 0,0.1894047 -0.06088,0.3855738 l -0.0068,0.081174 q 0,0.047351 0.0068,0.1014667 0.01353,0.047351 0.01353,0.1014668 0,0.1149957 0.0068,0.2164625 0.0068,0.094702 0.0068,0.1826403 0,0.4126316 -0.114995,0.8861432 -0.07441,0.297636 -0.101467,0.595272 0,0.155582 0.07441,0.317929 0.08117,0.155583 0.0947,0.311165 0,0.547921 -0.02706,1.095841 -0.02706,0.717032 -0.02706,0.872615 0,0.236756 0.06764,0.459983 0.142054,0.36528 0.142054,0.86585 0,0.202933 -0.02029,0.405867 v 0.432925 q 0,0.344987 -0.02029,0.649387 v 0.05412 q -0.03382,0.473512 -0.03382,0.574978 0.0068,0.189405 0.02706,0.385574 0.02706,0.257049 0.02706,0.507334 -0.0068,0.493805 -0.405867,0.723797 -0.676445,0.344987 -1.312304,0.344987 z"
         style="font-family:Kaph;-inkscape-font-specification:Kaph"
         id="path247" /><path
         d="m 92.408299,18.740692 q -0.162347,0 -0.324694,-0.02706 -0.56145,-0.114996 -1.163486,-0.114996 -0.114996,-0.01353 -0.202933,-0.0947 -0.56145,-0.236756 -1.319069,-0.717032 -0.128524,-0.02706 -0.270578,-0.189405 -0.236756,-0.142054 -0.432925,-0.209698 -0.18264,0 -0.344987,-0.202934 -0.155582,-0.209698 -0.385574,-0.683209 l -0.223227,-0.426161 q -0.845556,-1.522002 -0.845556,-2.800484 0,-0.277342 0.03382,-0.54792 l 0.142053,-1.136428 q 0.0068,-0.0947 0.05412,-0.175876 0.331458,-0.588507 0.473512,-1.251424 l 0.128524,-0.4396893 q 0.101467,-0.3517515 0.527628,-0.4802761 0.480276,-0.4870407 0.764383,-0.8996723 1.129664,-0.9537878 2.435203,-1.149957 0.270578,-0.047351 0.527627,-0.1285246 0.284107,-0.1014668 0.568214,-0.1014668 0.385574,0 0.811735,0.06088 1.319068,0.054116 2.570492,0.8523211 0.297636,0.2029336 0.595272,0.6561519 0.128524,0.2164625 0.3044,0.3788094 0.18264,0.1555824 0.18264,0.358516 0,0.074409 -0.02706,0.1488179 -0.101466,0.297636 -0.351751,0.4464539 -0.162347,0.1149957 -0.405867,0.4126318 l -0.372045,0.459983 -0.629094,0.703503 q -0.385574,0.446454 -0.595272,0.466747 -0.209698,0.02029 -0.243521,0.02029 -0.344987,0 -0.656151,-0.392338 -0.08117,-0.08117 -0.284107,-0.128525 -0.04059,-0.0068 -0.101467,-0.02029 -0.05412,-0.02029 -0.148818,-0.02706 -0.08794,-0.01353 -0.175876,-0.04735 -0.223227,-0.101467 -0.426161,-0.101467 -0.399102,0 -0.838792,0.365281 -0.392338,0.297636 -0.392338,0.642623 0,0.12176 0.03382,0.263813 0.04059,0.142054 0.04059,0.297636 -0.01353,0.229992 -0.02029,0.459983 0.02029,0.311165 0.270578,1.034962 0.08117,0.36528 0.324694,0.36528 l 0.101466,-0.0068 q 0.03382,0 0.324694,0.101466 0.114996,-0.277342 0.142054,-0.466747 0.12176,-0.791441 0.832027,-1.001139 l 0.324694,0.02029 q 0.284107,0 0.466747,-0.0947 l 0.03382,-0.0068 q 0.284107,0.05411 0.432925,0.05411 0.108231,0.04735 0.541156,0.04735 l 0.392338,-0.0068 q 0.216463,-0.12176 0.412632,-0.12176 0.223227,0 0.419396,0.148818 0.324693,0.155582 0.324693,0.514098 0,0.108231 -0.02706,0.223227 -0.06088,0.209698 -0.06088,0.419396 0,0.317929 0.142053,0.635859 0.02706,0.480276 0.114996,1.35289 0,0.128525 -0.06764,0.216463 l -0.0068,0.412631 q 0,0.223227 0.0947,0.487041 0.04735,0.148818 0.04735,0.277343 0,0.169111 -0.07441,0.3044 -0.135289,0.257049 -0.466747,0.311165 -0.86585,0.12176 -1.785815,0.128524 -0.480277,0 -0.771148,0.13529 -0.02029,0.0068 -0.04735,0.0068 h -0.03382 q -0.24352,-0.0947 -0.466747,-0.0947 -0.257049,0 -0.514098,0.05411 -0.223227,0.04735 -0.432925,0.04735 z"
         style="font-family:Kaph;-inkscape-font-specification:Kaph"
         id="path249" /><path
         d="m 102.90673,18.503937 q -0.38558,0.05411 -0.66292,0.05411 -0.33146,0 -0.50057,-0.08117 -0.0812,-0.04059 -0.15558,-0.04059 -0.0473,0 -0.0879,0.01353 l -1.20407,-0.03382 q -0.17588,-0.0068 -0.351752,-0.0068 -0.142053,0 -0.277342,0.04735 -0.19617,-0.01353 -0.358516,-0.01353 -0.730561,0 -0.825264,-1.18378 l -0.02029,-0.635858 q -0.04059,-0.906437 -0.04059,-1.819638 0,-1.014668 0.108232,-2.0361 l 0.07441,-0.947024 q 0,-0.128524 -0.02706,-0.250285 -0.02706,-0.128524 -0.02706,-0.236755 v -0.04735 q 0.04059,-0.446454 0.04059,-0.899672 0.02029,-1.0687835 0.196169,-1.6775842 0.08117,-0.3246938 0.101467,-0.6629164 l 0.04735,-0.3788094 q 0.12176,-0.8590855 0.845556,-0.9943745 0.128525,0 0.277339,0.027058 0.19617,0.040587 0.37881,0.040587 0.20294,0.054116 0.37881,0.054116 0.24352,0 0.42616,-0.1082312 0.0677,-0.054116 0.21647,-0.087938 l 0.0744,-0.013529 q 0.0947,-0.027058 0.19617,-0.027058 0.12176,0 0.25029,0.040587 0.31793,-0.067645 0.73732,-0.067645 0.43293,0 0.97409,0.074409 0.14881,0 0.31792,0.040587 0.31793,0 0.64263,0.040587 0.35851,0.033822 1.23789,0.1420535 0.64939,0.1217601 0.73056,0.1217601 l 0.19617,-0.013529 q 0.46675,0 0.75086,0.3246938 0.21646,0.2367558 0.21646,0.5614495 0,0.1623469 -0.0541,0.3449871 -0.0744,0.1826403 -0.0744,0.3652805 0,0.2164625 -0.0271,0.4261605 0.0473,0.087938 0.0473,0.2164625 0,0.067645 -0.0338,0.1014668 v 0.4599828 q 0,0.148818 0.0338,0.2976364 0.0338,0.142053 0.0338,0.257049 0,0.209698 -0.20293,0.378809 -0.19617,0.169111 -0.36528,0.236756 -0.16235,0.06088 -0.28411,0.06088 -0.12176,0 -0.25029,-0.04059 -0.83202,-0.290871 -1.46112,-0.290871 -0.26381,0 -0.53439,-0.02029 l -0.0609,0.0068 q -0.13529,0 -0.27734,-0.06764 -0.23676,-0.04059 -1.17702,-0.04059 l -0.38557,0.0068 q -0.0338,0.0068 -0.0677,0.06088 -0.0271,0.05412 -0.0947,0.229992 -0.0609,0.175875 -0.0947,0.236755 0.39234,0.108232 0.6088,0.108232 0.14882,0 0.29764,-0.03382 0.0474,-0.01353 0.10146,-0.01353 0.10823,0.04735 0.3247,0.04735 0.10146,0 0.23675,-0.01353 0.18264,0.03382 0.26382,0.03382 h 0.0609 q 0.0947,0 0.19617,-0.06764 0.0676,-0.0068 0.13529,-0.0068 0.22999,0 0.48704,0.05412 0.0744,-0.01353 0.13528,-0.01353 0.33146,0 0.33146,0.3044 0,0.135289 -0.0541,0.290872 -0.0541,0.155582 -0.0541,0.297636 0,0.189404 0.10147,0.36528 0.0609,0.08794 0.0609,0.18264 -0.0338,0.250285 -0.0406,0.50057 -0.0135,0.297636 -0.0541,0.588507 -0.0406,0.290872 -0.10823,0.432925 -0.14882,0.12176 -0.33146,0.162347 -0.18264,0.03382 -0.24352,0.03382 -0.2097,0 -0.38558,-0.01353 -0.1894,0.0068 -0.31793,0.0068 -0.10823,0 -0.22322,0.02029 -0.15559,0.02706 -0.37205,0.02706 -0.31793,0 -0.50733,-0.101467 -0.10147,-0.03382 -0.20294,-0.03382 -0.13528,0 -0.25705,0.101467 -0.19616,0.142053 -0.19616,0.324694 0,0.08117 0.0338,0.175875 0.0609,0.135289 0.12852,0.148818 0.0744,0.01353 0.12853,0.01353 0.0947,0 0.19617,0.02029 0.10146,0.01353 0.22322,0.01353 0.22323,0 0.38558,0.02029 0.16911,0.01353 0.27734,0.01353 0.19617,0 0.45998,-0.03382 0.14882,-0.0068 0.19617,-0.0068 l 0.0338,0.0068 q 0.2097,-0.0068 0.48028,-0.07441 0.27058,-0.06764 0.59527,-0.114995 0.115,-0.04735 0.24352,-0.135289 0.13529,-0.0947 0.25705,-0.148818 0.12176,-0.06088 0.2097,-0.216463 0.0406,-0.06764 0.14205,-0.06764 0.18264,0 0.41263,0.114995 0.17588,0.0947 0.28411,0.223227 0.42616,0.507334 0.42616,1.210837 -0.007,0.284107 -0.0338,0.574979 -0.0271,0.250285 -0.0271,0.507334 0,0.385574 0.12853,0.703503 0.0271,0.07441 0.0271,0.142053 0,0.182641 -0.17587,0.358517 -0.22999,0.236755 -0.57498,0.317929 -0.16911,-0.0068 -0.33822,-0.05412 -0.19617,0.01353 -0.3247,0.01353 -0.12852,0 -0.24352,0.06088 -0.27734,0.03382 -0.43969,0.05412 -0.15558,0.02029 -0.19617,0.02029 -0.24352,0 -0.74408,0.02706 -0.49381,0.02706 -0.80497,0.02706 -0.22323,0 -0.46675,-0.04059 -0.0473,-0.02706 -0.115,-0.02706 -0.12852,0 -0.32469,0.02029 z"
         style="font-family:Kaph;-inkscape-font-specification:Kaph"
         id="path251" /><path
         d="m 117.41648,18.52423 h -1.17702 q -0.47351,0 -0.75085,-0.554685 -0.10823,-0.209698 -0.23676,-0.412632 -0.19617,-0.311165 -0.57498,-1.156721 -0.13529,-0.31793 -0.27734,-0.629094 -0.22999,-0.554686 -0.57498,-0.554686 -0.22999,0 -0.22999,1.163486 0,0.243521 0.0203,0.493805 0,0.514099 -0.43968,1.034962 -0.4194,0.554685 -1.16349,0.554685 -0.82526,-0.07441 -1.637,-0.128525 -0.62909,-0.07441 -0.84556,-0.385574 -0.21646,-0.317929 -0.21646,-0.832027 l 0.007,-0.615565 q 0,-0.547921 -0.0135,-1.095842 -0.0135,-0.730561 -0.0135,-1.467886 0,-0.527627 0.0271,-1.062019 0.0203,-0.466747 0.0271,-0.933495 -0.007,-0.412631 -0.0744,-0.832027 l -0.007,-0.148818 0.007,-0.182641 -0.007,-0.8590852 q -0.0203,-0.2570492 -0.0203,-0.5073339 0,-0.3923383 0.0541,-0.7779121 l 0.0338,-0.3517516 q 0.12176,-1.3799483 0.56145,-1.5490597 0.22322,-0.081173 0.43292,-0.081173 0.0947,0 0.19617,0.013529 0.16911,0.020293 1.25819,0.027058 l 0.27734,0.00676 q 0.19617,0 0.37205,-0.040587 0.0879,-0.020293 0.18264,-0.020293 0.24352,0 0.50056,0.148818 0.35176,0.2029335 0.5344,0.5005695 0.43292,0.7237964 0.93349,1.4543573 0.21646,0.3179293 0.43293,0.6493875 l 0.0338,-0.1691113 q 0.25705,-0.6088008 0.29087,-0.7779121 0.0406,-0.1758758 0.12176,-0.3923383 0.0879,-0.2164624 0.0879,-0.2976359 l -0.007,-0.1758758 q 0,-0.2502847 0.0609,-0.4599828 0.115,-0.3652804 0.56145,-0.6155652 0.0474,-0.020293 0.12853,-0.020293 0.0406,0 0.10146,0.00676 0.0609,0.00676 0.25029,0.00676 l 0.50057,-0.00676 q 0.27058,0.020293 0.38557,0.020293 0.115,0 0.24352,0.020293 0.12853,0.013529 0.26382,0.013529 0.39233,0 0.76438,-0.020293 0.78468,0.027058 0.96055,0.7846765 0.0338,0.148818 0.0812,0.3044004 0.14881,0.4464539 0.14881,1.434064 0.0541,0.3449871 0.0541,0.6696809 0,0.2502847 -0.0338,0.5140987 -0.0271,0.263813 -0.0271,0.541156 l 0.007,0.500569 q 0,0.128525 0.0541,0.385574 0.0541,0.257049 0.0609,0.514099 0,0.80497 -0.0677,1.609939 -0.0135,0.189405 -0.0135,0.385574 0,0.270578 0.0203,0.534392 0.0203,0.257049 0.0203,0.507334 0,0.459983 -0.0473,0.92673 -0.0271,0.263814 -0.0406,0.527627 -0.007,0.128525 -0.0271,0.250285 -0.0338,0.169111 -0.0338,0.344987 -0.0203,0.37881 -0.31792,0.80497 -0.29088,0.419396 -0.73057,0.419396 -0.46674,0.02706 -0.93349,0.02706 -0.25705,0 -0.52086,0.01353 z"
         style="font-family:Kaph;-inkscape-font-specification:Kaph"
         id="path253" /></g></g></svg>
