<?xml version="1.0" encoding="UTF-8" standalone="no"?>
<!-- Created with Inkscape (http://www.inkscape.org/) -->

<svg
   width="1440"
   height="810"
   viewBox="0 0 380.99998 214.3125"
   version="1.1"
   id="svg5"
   xml:space="preserve"
   inkscape:version="1.2 (dc2aedaf03, 2022-05-15)"
   sodipodi:docname="startBG.svg"
   inkscape:export-filename="startscreenBG.png"
   inkscape:export-xdpi="96"
   inkscape:export-ydpi="96"
   xmlns:inkscape="http://www.inkscape.org/namespaces/inkscape"
   xmlns:sodipodi="http://sodipodi.sourceforge.net/DTD/sodipodi-0.dtd"
   xmlns="http://www.w3.org/2000/svg"
   xmlns:svg="http://www.w3.org/2000/svg"><sodipodi:namedview
     id="namedview7"
     pagecolor="#96ffff"
     bordercolor="#000000"
     borderopacity="0.25"
     inkscape:showpageshadow="2"
     inkscape:pageopacity="1"
     inkscape:pagecheckerboard="0"
     inkscape:deskcolor="#d1d1d1"
     inkscape:document-units="mm"
     showgrid="false"
     inkscape:zoom="0.70199214"
     inkscape:cx="566.95791"
     inkscape:cy="317.66737"
     inkscape:window-width="1920"
     inkscape:window-height="986"
     inkscape:window-x="-11"
     inkscape:window-y="-11"
     inkscape:window-maximized="1"
     inkscape:current-layer="layer1" /><defs
     id="defs2"><rect
       x="317.66736"
       y="145.30077"
       width="391.74228"
       height="59.829727"
       id="rect3714" /></defs><g
     inkscape:label="Lager 1"
     inkscape:groupmode="layer"
     id="layer1"><rect
       style="fill:#96ffff;fill-opacity:1;stroke:#b98d73;stroke-width:1.00714;stroke-linejoin:bevel"
       id="rect381"
       width="399.90063"
       height="228.53618"
       x="-8.50282"
       y="-2.8492668" /><ellipse
       style="fill:#2e9600;fill-opacity:1;stroke:none;stroke-width:0.949557;stroke-linejoin:bevel"
       id="path184"
       cx="190.5"
       cy="186.38377"
       rx="228.26672"
       ry="93.637932"
       sodipodi:insensitive="true" /><ellipse
       style="display:inline;fill:#35ac00;fill-opacity:1;stroke:none;stroke-width:0.783394;stroke-linejoin:bevel"
       id="ellipse2952"
       cx="190.5"
       cy="183.85655"
       rx="188.32213"
       ry="77.252159"
       sodipodi:insensitive="true" /><g
       aria-label="DAVID RUDEBJER, RASMUS SVALA, LOVISA SVENSSON"
       id="text25341"
       style="font-size:6.35px;font-family:Kaph;-inkscape-font-specification:Kaph;text-align:center;text-anchor:middle;fill:#ffffff;stroke:#272727;stroke-width:0.338667;stroke-linejoin:bevel"><path
         d="m 85.583925,208.28545 q -0.375171,0 -0.47439,-0.0155 -0.09922,-0.0155 -0.176733,-0.0155 -0.114722,0 -0.384473,-0.0682 h -0.176733 q -0.124024,0 -0.244946,-0.031 -0.127124,-0.0465 -0.344165,-0.0465 -0.393775,-0.003 -0.393775,-0.38757 0,-0.18604 -0.0031,-0.36897 0,-0.27595 0.031,-0.66353 0.0186,-0.18603 0.09302,-1.81074 0.02791,-0.70383 0.120923,-1.0666 0.06821,-0.24805 0.06821,-0.43098 0,-0.093 -0.0124,-0.18604 v -0.0682 q 0,-0.19534 0.189136,-0.37207 0.04651,-0.0465 0.08372,-0.0527 0.458887,-0.0713 0.604614,-0.0899 l 0.15813,0.0248 q 0.892969,0.12402 0.95498,0.13022 0.06511,0.003 0.173633,0.0372 0.26045,0.062 0.384473,0.20464 0.07131,0.0868 0.229443,0.11782 0.186035,0.0372 0.399976,0.22944 0.10542,0.093 0.223242,0.16434 0.176733,0.10852 0.31936,0.26355 l 0.08062,0.0775 q 0.306958,0.29766 0.437182,0.68833 0.0217,0.0558 0.06821,0.10232 0.06511,0.0961 0.06511,0.22014 0.02481,0.0248 0.02481,0.0496 l -0.0031,0.0155 q 0.0186,0.0558 0.0186,0.10852 0,0.14263 0.06511,0.25735 0.04031,0.0837 0.04031,0.18294 l -0.0031,0.20464 q 0,0.031 0.0062,0.0682 0.0124,0.0744 0.0124,0.20464 0,0.25425 -0.07441,0.47749 -0.04031,0.0527 -0.111621,0.20774 0,0.13952 -0.120923,0.23254 -0.08061,0.0713 -0.136426,0.17363 -0.07751,0.13643 -0.26355,0.31006 -0.09612,0.0961 -0.136425,0.13023 -0.08062,0.0651 -0.136426,0.14572 -0.136426,0.22635 -0.458887,0.30386 -0.111621,0.0248 -0.204639,0.0868 -0.192236,0.15193 -0.365869,0.15193 -0.05271,0 -0.114721,-0.0124 -0.0217,-0.003 -0.04651,-0.003 -0.09612,0 -0.229444,0.062 -0.117822,0.0558 -0.235644,0.0558 z m 0.114722,-1.72703 q 0.07131,0 0.127124,-0.0589 0.403076,-0.38757 0.474389,-0.57051 0.03411,-0.13332 0.03411,-0.26045 0,-0.23564 -0.145728,-0.61701 l -0.04961,-0.15193 q -0.06201,-0.15193 -0.182935,-0.28216 -0.09302,-0.11162 -0.151928,-0.19843 -0.03721,-0.006 -0.06511,-0.006 -0.04651,0 -0.06201,0.0186 -0.04031,0.0496 -0.07131,0.10232 -0.03101,0.0496 -0.06821,0.0961 -0.08992,0.11782 -0.08992,0.22324 0.0217,0.10232 0.0217,0.17363 0,0.0279 -0.0031,0.0496 -0.0124,0.0775 -0.0124,0.16743 0,0.0868 -0.02791,0.18294 -0.0186,0.0992 -0.0186,0.48369 0,0.13022 -0.04031,0.35346 0.0093,0 0.0124,0.003 l 0.03101,0.12093 0.05891,0.10542 0.130225,0.0403 q 0.05271,0.0248 0.09922,0.0248 z"
         id="path185" /><path
         d="m 92.104457,208.23584 q -0.04031,0 -0.08682,-0.006 -0.06511,-0.009 -0.139526,-0.009 -0.31626,-0.009 -0.347266,-0.34416 -0.0186,-0.18294 -0.170532,-0.32866 -0.151928,-0.14883 -0.328662,-0.15813 -0.124023,0 -0.337964,0.0961 -0.189135,0.0837 -0.189135,0.27285 0,0.0248 0.0062,0.0465 0.0248,0.0744 0.0248,0.13022 0,0.17053 -0.226342,0.20154 -0.09922,0 -0.20774,0.0248 -0.08061,-0.006 -0.15813,-0.006 -0.124023,0 -0.328662,0.0124 l -0.201538,0.003 q -0.10852,0 -0.148828,-0.006 -0.229443,-0.0217 -0.291455,-0.0217 -0.09922,0 -0.204639,-0.0527 -0.170532,-0.0806 -0.217041,-0.24185 -0.0062,-0.031 -0.0062,-0.062 0,-0.0434 0.0124,-0.0868 0,-0.0527 0.117822,-0.46199 0.03101,-0.0899 0.06821,-0.17363 0.04651,-0.10542 0.08062,-0.21705 0.06821,-0.26665 0.130225,-0.5333 0.06511,-0.28215 0.139526,-0.5643 0.03721,-0.12403 0.08992,-0.24185 0.08061,-0.18913 0.102319,-0.31316 0.0217,-0.10852 0.20774,-0.66972 0.26665,-0.81546 0.406176,-1.31465 0.06821,-0.28526 0.396875,-0.34107 0.05581,0 0.179834,0.0124 l 0.285254,0.006 0.182935,-0.003 q 0.05891,0 0.10852,-0.003 0.05271,-0.006 0.08372,-0.006 l 0.06201,0.003 q 0.04031,0 0.201538,-0.006 0.16123,-0.006 0.282153,-0.006 0.344165,0 0.452686,0.39378 0.05271,0.19223 0.133325,0.37827 0.102319,0.22944 0.189136,0.555 0.05271,0.19224 0.117822,0.37827 0.05891,0.17364 0.08992,0.35037 0.03411,0.20464 0.10542,0.38137 0.07131,0.17364 0.10852,0.34727 0.03721,0.17053 0.10232,0.32866 0.0248,0.0682 0.0248,0.14883 0.0031,0.0806 0.0155,0.14263 0.03721,0.12712 0.08062,0.25114 0.06821,0.18294 0.08372,0.27906 0.0031,0.0372 0.0186,0.093 0.04651,0.23565 0.07751,0.45269 0.03101,0.21704 0.170533,0.45268 0.0186,0.0403 0.0186,0.0806 0,0.10852 -0.164331,0.22014 -0.120923,0.0961 -0.207739,0.0961 -0.06201,0 -0.285254,0.0124 -0.223242,0.0155 -0.344165,0.0155 -0.102319,0 -0.164331,0.003 -0.117822,0.009 -0.201538,0.009 z m -0.784448,-2.50218 q 0.111621,0 0.111621,-0.0961 0,-0.0217 -0.0062,-0.031 l -0.08372,-0.46199 -0.04961,-0.0961 q -0.05271,-0.12402 -0.142627,-0.20463 -0.03411,-0.0248 -0.06201,-0.0248 -0.05581,0 -0.164331,0.0651 -0.0217,0.0248 -0.04341,0.0434 -0.0062,0.006 -0.0124,0.0155 -0.0062,0.009 -0.0186,0.0155 -0.06821,0.0837 -0.06821,0.11782 l -0.04341,0.12092 q 0,0.0651 -0.05891,0.26045 -0.03411,0.0341 -0.04341,0.22324 0.09612,0.0124 0.189136,0.0124 l 0.145727,-0.006 q 0.08062,0 0.120923,0.0186 0.10232,0 0.195337,0.0186 0.0124,0.009 0.03411,0.009 z"
         id="path187" /><path
         d="m 96.501087,208.30095 q -0.04341,0 -0.09302,-0.0155 -0.04961,-0.0155 -0.08372,-0.0155 -0.620117,0.0124 -0.734839,0.0124 -0.139526,0 -0.275952,-0.0248 -0.09302,-0.0217 -0.136426,-0.0899 -0.04031,-0.0651 -0.07131,-0.17363 -0.148828,-0.38447 -0.198438,-0.5519 -0.08062,-0.26045 -0.192236,-0.5147 -0.111621,-0.25735 -0.192236,-0.5271 -0.173633,-0.58601 -0.396875,-1.15342 -0.170533,-0.46819 -0.266651,-0.68833 -0.08682,-0.20464 -0.164331,-0.41238 -0.05271,-0.15503 -0.08682,-0.31936 -0.04651,-0.22014 -0.08992,-0.29455 -0.04651,-0.0899 -0.04651,-0.17053 0,-0.0713 0.03721,-0.13643 0.08061,-0.13643 0.248047,-0.15503 0.10542,-0.009 0.21394,-0.0372 0.133326,-0.031 0.269751,-0.0372 0.15813,0.006 0.42168,0.0217 0.26665,0.0155 0.381372,0.0155 0.117822,0 0.229443,0.0527 0.217041,0.0992 0.325562,0.47129 0.10852,0.37207 0.195337,0.58601 0.07131,0.18294 0.08061,0.36897 l 0.02481,0.23565 q 0.0155,0.19533 0.151928,0.19533 0.170533,-0.0248 0.176734,-0.23254 0,-0.35037 0.08062,-0.62322 0.0093,-0.0651 0.06511,-0.20464 l 0.02481,-0.20153 0.127124,-0.62012 q 0.03411,-0.093 0.117822,-0.15193 0.08372,-0.0589 0.170533,-0.0589 l 0.04341,0.003 q 0.186035,0.031 0.375171,0.031 0.155029,0.003 0.5333,0.0403 0.378272,0.0372 0.434082,0.0372 0.179834,0 0.31626,0.14263 0.07751,0.0899 0.07751,0.17673 0,0.0806 -0.08372,0.34417 -0.08061,0.26355 -0.117822,0.35346 l -0.04031,0.15503 q -0.04341,0.21394 -0.145727,0.38757 -0.124024,0.21705 -0.161231,0.45269 -0.02791,0.14263 -0.08062,0.28525 -0.04961,0.13953 -0.09612,0.29146 -0.09922,0.32246 -0.232544,0.62322 -0.145728,0.35967 -0.15813,0.46509 0,0.0465 -0.325562,0.92707 -0.04651,0.11472 -0.06821,0.23875 -0.03101,0.24804 -0.179834,0.36276 -0.148829,0.11783 -0.306958,0.11783 -0.04651,0.0155 -0.09612,0.0155 z"
         id="path189" /><path
         d="m 100.10397,208.28545 q -0.133327,0 -0.272853,-0.0341 -0.04341,-0.0124 -0.09302,-0.0124 -0.06821,0 -0.16123,0.0248 -0.05891,0.0186 -0.117823,0.0186 l -0.04961,-0.003 -0.07751,-0.0124 q -0.08372,-0.0124 -0.155029,-0.0465 -0.07131,-0.031 -0.09612,-0.13022 l -0.0093,-0.0434 q -0.06511,-0.29455 -0.07441,-0.59221 0,-0.13643 0.0155,-0.27285 l -0.0093,-0.30076 q 0,-0.12092 0.0124,-0.24495 0.0093,-0.093 0.0093,-0.18913 0,-0.12713 -0.0217,-0.24805 -0.02791,-0.13952 -0.04031,-1.048 l -0.06201,-0.84646 q 0.0031,-0.11472 0.0124,-0.22634 0.0124,-0.17983 0.0124,-0.35967 0,-0.11472 -0.0124,-0.22634 -0.0093,-0.11472 -0.0124,-0.22944 0.0093,-0.35657 0.226343,-0.38758 0.418579,-0.0496 0.626318,-0.062 0.04651,-0.009 0.09302,-0.009 0.03101,0 0.05271,0.0124 0.07442,0.0403 0.145731,0.0403 0.0744,0 0.14572,-0.009 0.0992,-0.0124 0.17054,-0.0124 0.0806,0 0.17363,0.0217 0.10852,0.0279 0.16743,0.14883 0.16433,0.26665 0.16433,0.44338 0,0.0868 -0.0279,0.17674 l -0.003,0.0372 q 0,0.0217 0.003,0.0465 0.006,0.0217 0.006,0.0465 0,0.0527 0.003,0.0992 0.003,0.0434 0.003,0.0837 0,0.18914 -0.0527,0.40618 -0.0341,0.13643 -0.0465,0.27285 0,0.0713 0.0341,0.14573 0.0372,0.0713 0.0434,0.14263 0,0.25115 -0.0124,0.50229 -0.0124,0.32866 -0.0124,0.39998 0,0.10852 0.031,0.21084 0.0651,0.16743 0.0651,0.39687 0,0.093 -0.009,0.18604 v 0.19844 q 0,0.15813 -0.009,0.29765 v 0.0248 q -0.0155,0.21704 -0.0155,0.26355 0.003,0.0868 0.0124,0.17673 0.0124,0.11782 0.0124,0.23254 -0.003,0.22635 -0.18604,0.33177 -0.31006,0.15813 -0.60151,0.15813 z"
         id="path191" /><path
         d="m 103.71925,208.28545 q -0.37517,0 -0.47439,-0.0155 -0.0992,-0.0155 -0.17673,-0.0155 -0.11472,0 -0.38447,-0.0682 h -0.17674 q -0.12402,0 -0.24494,-0.031 -0.12713,-0.0465 -0.34417,-0.0465 -0.39377,-0.003 -0.39377,-0.38757 0,-0.18604 -0.003,-0.36897 0,-0.27595 0.031,-0.66353 0.0186,-0.18603 0.093,-1.81074 0.0279,-0.70383 0.12092,-1.0666 0.0682,-0.24805 0.0682,-0.43098 0,-0.093 -0.0124,-0.18604 v -0.0682 q 0,-0.19534 0.18914,-0.37207 0.0465,-0.0465 0.0837,-0.0527 0.45889,-0.0713 0.60462,-0.0899 l 0.15813,0.0248 q 0.89297,0.12402 0.95498,0.13022 0.0651,0.003 0.17363,0.0372 0.26045,0.062 0.38447,0.20464 0.0713,0.0868 0.22945,0.11782 0.18603,0.0372 0.39997,0.22944 0.10542,0.093 0.22325,0.16434 0.17673,0.10852 0.31936,0.26355 l 0.0806,0.0775 q 0.30696,0.29766 0.43718,0.68833 0.0217,0.0558 0.0682,0.10232 0.0651,0.0961 0.0651,0.22014 0.0248,0.0248 0.0248,0.0496 l -0.003,0.0155 q 0.0186,0.0558 0.0186,0.10852 0,0.14263 0.0651,0.25735 0.0403,0.0837 0.0403,0.18294 l -0.003,0.20464 q 0,0.031 0.006,0.0682 0.0124,0.0744 0.0124,0.20464 0,0.25425 -0.0744,0.47749 -0.0403,0.0527 -0.11163,0.20774 0,0.13952 -0.12092,0.23254 -0.0806,0.0713 -0.13642,0.17363 -0.0775,0.13643 -0.26355,0.31006 -0.0961,0.0961 -0.13643,0.13023 -0.0806,0.0651 -0.13643,0.14572 -0.13642,0.22635 -0.45888,0.30386 -0.11162,0.0248 -0.20464,0.0868 -0.19224,0.15193 -0.36587,0.15193 -0.0527,0 -0.11472,-0.0124 -0.0217,-0.003 -0.0465,-0.003 -0.0961,0 -0.22944,0.062 -0.11783,0.0558 -0.23565,0.0558 z m 0.11472,-1.72703 q 0.0713,0 0.12713,-0.0589 0.40307,-0.38757 0.47439,-0.57051 0.0341,-0.13332 0.0341,-0.26045 0,-0.23564 -0.14572,-0.61701 l -0.0496,-0.15193 q -0.062,-0.15193 -0.18294,-0.28216 -0.093,-0.11162 -0.15193,-0.19843 -0.0372,-0.006 -0.0651,-0.006 -0.0465,0 -0.062,0.0186 -0.0403,0.0496 -0.0713,0.10232 -0.031,0.0496 -0.0682,0.0961 -0.0899,0.11782 -0.0899,0.22324 0.0217,0.10232 0.0217,0.17363 0,0.0279 -0.003,0.0496 -0.0124,0.0775 -0.0124,0.16743 0,0.0868 -0.0279,0.18294 -0.0186,0.0992 -0.0186,0.48369 0,0.13022 -0.0403,0.35346 0.009,0 0.0124,0.003 l 0.031,0.12093 0.0589,0.10542 0.13022,0.0403 q 0.0527,0.0248 0.0992,0.0248 z"
         id="path193" /><path
         d="m 114.06281,208.28545 q -0.0992,0 -0.36277,-0.0186 -0.0496,-0.0186 -0.10852,-0.0186 -0.0372,0 -0.0651,0.003 -0.0248,0.006 -0.0372,0.006 -0.0279,0 -0.062,-0.0124 -0.0341,-0.0124 -0.0682,-0.0124 l -0.0279,0.003 -0.093,0.003 q -0.26975,0 -0.26975,-0.17053 0,-0.0372 0.0124,-0.0806 l 0.003,-0.0372 q 0,-0.11782 -0.0434,-0.27285 -0.0899,-0.12092 -0.0899,-0.20464 0,-0.0341 -0.0248,-0.0992 -0.0217,-0.0651 -0.0434,-0.0837 -0.0372,-0.10852 -0.0682,-0.18604 -0.0651,-0.15193 -0.11782,-0.29765 -0.0155,-0.0589 -0.0589,-0.0589 l -0.0186,0.003 -0.0341,-0.009 -0.009,0.003 q -0.0403,0.031 -0.0651,0.11783 -0.0496,0.11782 -0.0496,0.26975 0,0.0992 -0.0341,0.24184 -0.006,0.11473 -0.006,0.19844 l -0.003,0.0992 q 0.0155,0.0527 0.0155,0.10542 l 0.003,0.0744 q 0,0.19844 -0.11472,0.30386 -0.10542,0.093 -0.28526,0.093 -0.0434,0 -0.093,-0.006 -0.0465,-0.003 -0.0992,-0.003 -0.0682,0 -0.13333,0.006 -0.0651,0.006 -0.12712,0.006 l -0.12092,0.0124 q -0.0496,0 -0.0899,-0.0186 -0.15503,-0.0341 -0.39998,-0.0341 -0.0899,0 -0.17673,-0.0124 -0.22944,-0.0651 -0.28215,-0.38137 l -0.0248,-0.90847 q 0,-0.19534 0.009,-0.39068 0.009,-0.14883 0.009,-0.30075 0,-0.21084 -0.0186,-0.42478 -0.0155,-0.16744 -0.0155,-0.33487 0,-0.21394 0.0248,-0.42478 0.0248,-0.24805 0.0248,-0.49919 -0.003,-0.062 -0.0155,-0.12403 -0.009,-0.062 -0.009,-0.12402 0,-0.0558 0.0341,-0.44958 0.0465,-0.45889 0.0465,-0.64803 0,-0.0744 0.009,-0.13332 0.0217,-0.13023 0.32556,-0.30696 0.18914,-0.10852 0.81546,-0.13953 l 0.0651,0.003 q 0.17673,-0.006 0.28215,-0.006 0.0806,0 0.11782,0.003 0.29456,0.0248 0.59222,0.0341 0.0558,0 0.11162,-0.0124 l 0.0248,-0.003 q 0.062,0 0.26975,0.0279 0.48369,0.0341 0.92088,0.24185 0.22944,0.093 0.35966,0.32866 0.0403,0.0651 0.12403,0.10852 0.0744,0.0465 0.11472,0.0868 0.10852,0.10232 0.13022,0.16433 l 0.21084,0.35967 q 0.0527,0.0496 0.0775,0.14882 0.0248,0.0961 0.0248,0.16123 0,0.13333 0.0248,0.24495 0.0248,0.10852 0.0248,0.23565 l -0.009,0.14262 q -0.006,0.21084 -0.0589,0.40928 -0.0527,0.19844 -0.24185,0.34727 -0.006,0.006 -0.0186,0.0124 -0.009,0.006 -0.10852,0.17983 -0.14573,0.24185 -0.26355,0.4961 -0.0124,0.0248 -0.0124,0.0558 0,0.0434 0.0434,0.19223 0.0868,0.46509 0.15813,0.5302 0.0372,0.0341 0.13952,0.22945 0.10232,0.19533 0.18604,0.33796 0.0682,0.10852 0.0682,0.22324 0,0.16433 -0.14883,0.25735 -0.14262,0.10542 -0.24494,0.10542 -0.0775,0 -0.23875,0.0155 -0.16123,0.0155 -0.29145,0.0155 z m -1.24334,-3.19361 q 0.0744,0 0.15813,-0.0124 0.11162,0 0.15813,-0.0341 0.22014,-0.23874 0.22324,-0.29145 l 0.003,-0.0279 q 0,-0.0217 -0.009,-0.0403 -0.0806,-0.22015 -0.24805,-0.32867 -0.0713,-0.062 -0.17053,-0.0744 -0.16433,-0.0217 -0.42478,-0.0217 -0.0496,0 -0.0837,0.0155 -0.031,0.0124 -0.062,0.45268 -0.006,0.0496 -0.006,0.0899 0,0.11162 0.0496,0.15503 0.0341,0.0496 0.17674,0.0868 0.11162,0.031 0.23564,0.031 z"
         id="path195" /><path
         d="m 117.7153,208.25444 q -0.13333,0 -0.44029,-0.062 -0.30385,-0.062 -0.5457,-0.26665 -0.24185,-0.20464 -0.32246,-0.28526 -0.0775,-0.0806 -0.13953,-0.18293 -0.0403,-0.062 -0.0837,-0.12092 -0.16123,-0.21084 -0.31936,-0.68213 -0.0341,-0.18604 -0.0744,-0.36897 l 0.003,-0.0527 q 0,-0.15503 -0.0341,-0.30076 -0.0341,-0.27595 -0.0341,-0.5519 0,-0.29456 0.0527,-0.70694 0.009,-0.10852 0.009,-0.20153 0,-0.093 -0.009,-0.18604 -0.006,-0.21394 -0.006,-0.50229 0,-0.29456 0.0155,-0.58602 0.0248,-0.17983 0.18294,-0.22324 0.16123,-0.0434 0.28835,-0.0434 0.0589,0 0.11782,0.0155 l 0.12713,-0.0341 q 0.0217,0 0.0403,-0.003 0.062,-0.0124 0.12092,-0.0124 0.11472,0 0.28215,0.0217 0.13953,0.0496 0.22324,0.0496 0.031,0 0.13333,-0.009 0.10852,0 0.19534,0.0899 0.10232,0.0992 0.12402,0.23874 0.009,0.0899 0.0248,0.18294 0.0651,0.40927 0.0651,1.02319 0,0.33176 -0.0124,0.48679 -0.006,0.12713 -0.006,0.25425 0,0.44338 0.11783,0.97668 0.0248,0.10232 0.12402,0.12713 0.0992,0.0248 0.15813,0.0248 0.15193,0 0.20464,-0.0868 0.0465,-0.0744 0.0465,-0.26045 l -0.0155,-0.36587 q -0.0124,-0.69453 -0.0403,-1.34566 -0.0527,-0.20463 -0.0527,-0.36897 0,-0.0713 0.009,-0.13332 0,-0.18914 0.0248,-0.38137 0.0248,-0.13333 0.0248,-0.34417 0.0527,-0.14883 0.25424,-0.15503 0.37828,-0.0341 0.57361,-0.0341 0.36277,0 0.71624,0.0496 0.14573,0.0279 0.21704,0.13642 0.0744,0.10852 0.0868,0.24805 0.009,0.0992 0.009,0.19844 0,0.0775 -0.006,0.15192 l -0.003,0.21705 q 0.009,0.17053 0.0279,0.34106 l 0.0651,0.84646 q 0.0217,0.22944 0.0403,0.46199 0,0.0558 -0.006,0.11162 -0.003,0.0341 -0.003,0.0713 0,0.10232 0.0341,0.40928 0,0.0806 -0.0186,0.29145 -0.0403,0.13023 -0.0651,0.26665 -0.0403,0.24495 -0.17363,0.42789 -0.0372,0.0496 -0.0589,0.12092 -0.17984,0.45268 -0.71624,0.74414 -0.0651,0.0341 -0.24185,0.093 -0.0775,0.0248 -0.15502,0.0403 -0.11473,0.0248 -0.22325,0.0682 -0.15503,0.062 -0.31626,0.062 z"
         id="path197" /><path
         d="m 123.14752,208.28545 q -0.37517,0 -0.47439,-0.0155 -0.0992,-0.0155 -0.17673,-0.0155 -0.11472,0 -0.38447,-0.0682 h -0.17674 q -0.12402,0 -0.24494,-0.031 -0.12713,-0.0465 -0.34417,-0.0465 -0.39377,-0.003 -0.39377,-0.38757 0,-0.18604 -0.003,-0.36897 0,-0.27595 0.031,-0.66353 0.0186,-0.18603 0.093,-1.81074 0.0279,-0.70383 0.12092,-1.0666 0.0682,-0.24805 0.0682,-0.43098 0,-0.093 -0.0124,-0.18604 v -0.0682 q 0,-0.19534 0.18914,-0.37207 0.0465,-0.0465 0.0837,-0.0527 0.45888,-0.0713 0.60461,-0.0899 l 0.15813,0.0248 q 0.89297,0.12402 0.95498,0.13022 0.0651,0.003 0.17363,0.0372 0.26045,0.062 0.38448,0.20464 0.0713,0.0868 0.22944,0.11782 0.18604,0.0372 0.39998,0.22944 0.10542,0.093 0.22324,0.16434 0.17673,0.10852 0.31936,0.26355 l 0.0806,0.0775 q 0.30696,0.29766 0.43719,0.68833 0.0217,0.0558 0.0682,0.10232 0.0651,0.0961 0.0651,0.22014 0.0248,0.0248 0.0248,0.0496 l -0.003,0.0155 q 0.0186,0.0558 0.0186,0.10852 0,0.14263 0.0651,0.25735 0.0403,0.0837 0.0403,0.18294 l -0.003,0.20464 q 0,0.031 0.006,0.0682 0.0124,0.0744 0.0124,0.20464 0,0.25425 -0.0744,0.47749 -0.0403,0.0527 -0.11162,0.20774 0,0.13952 -0.12093,0.23254 -0.0806,0.0713 -0.13642,0.17363 -0.0775,0.13643 -0.26355,0.31006 -0.0961,0.0961 -0.13643,0.13023 -0.0806,0.0651 -0.13642,0.14572 -0.13643,0.22635 -0.45889,0.30386 -0.11162,0.0248 -0.20464,0.0868 -0.19224,0.15193 -0.36587,0.15193 -0.0527,0 -0.11472,-0.0124 -0.0217,-0.003 -0.0465,-0.003 -0.0961,0 -0.22944,0.062 -0.11782,0.0558 -0.23565,0.0558 z m 0.11473,-1.72703 q 0.0713,0 0.12712,-0.0589 0.40308,-0.38757 0.47439,-0.57051 0.0341,-0.13332 0.0341,-0.26045 0,-0.23564 -0.14573,-0.61701 l -0.0496,-0.15193 q -0.062,-0.15193 -0.18294,-0.28216 -0.093,-0.11162 -0.15192,-0.19843 -0.0372,-0.006 -0.0651,-0.006 -0.0465,0 -0.062,0.0186 -0.0403,0.0496 -0.0713,0.10232 -0.031,0.0496 -0.0682,0.0961 -0.0899,0.11782 -0.0899,0.22324 0.0217,0.10232 0.0217,0.17363 0,0.0279 -0.003,0.0496 -0.0124,0.0775 -0.0124,0.16743 0,0.0868 -0.0279,0.18294 -0.0186,0.0992 -0.0186,0.48369 0,0.13022 -0.0403,0.35346 0.009,0 0.0124,0.003 l 0.031,0.12093 0.0589,0.10542 0.13023,0.0403 q 0.0527,0.0248 0.0992,0.0248 z"
         id="path199" /><path
         d="m 128.47433,208.22964 q -0.17673,0.0248 -0.30386,0.0248 -0.15193,0 -0.22944,-0.0372 -0.0372,-0.0186 -0.0713,-0.0186 -0.0217,0 -0.0403,0.006 l -0.55191,-0.0155 q -0.0806,-0.003 -0.16123,-0.003 -0.0651,0 -0.12712,0.0217 -0.0899,-0.006 -0.16433,-0.006 -0.33487,0 -0.37827,-0.5426 l -0.009,-0.29146 q -0.0186,-0.41548 -0.0186,-0.83405 0,-0.46509 0.0496,-0.93328 l 0.0341,-0.43408 q 0,-0.0589 -0.0124,-0.11472 -0.0124,-0.0589 -0.0124,-0.10853 v -0.0217 q 0.0186,-0.20464 0.0186,-0.41238 0.009,-0.48989 0.0899,-0.76894 0.0372,-0.14883 0.0465,-0.30386 l 0.0217,-0.17363 q 0.0558,-0.39378 0.38757,-0.45579 0.0589,0 0.12712,0.0124 0.0899,0.0186 0.17364,0.0186 0.093,0.0248 0.17363,0.0248 0.11162,0 0.19534,-0.0496 0.031,-0.0248 0.0992,-0.0403 l 0.0341,-0.006 q 0.0434,-0.0124 0.0899,-0.0124 0.0558,0 0.11472,0.0186 0.14573,-0.031 0.33796,-0.031 0.19844,0 0.44649,0.0341 0.0682,0 0.14572,0.0186 0.14573,0 0.29456,0.0186 0.16433,0.0155 0.56741,0.0651 0.29765,0.0558 0.33486,0.0558 l 0.0899,-0.006 q 0.21394,0 0.34416,0.14883 0.0992,0.10852 0.0992,0.25735 0,0.0744 -0.0248,0.15813 -0.0341,0.0837 -0.0341,0.16743 0,0.0992 -0.0124,0.19534 0.0217,0.0403 0.0217,0.0992 0,0.031 -0.0155,0.0465 v 0.21084 q 0,0.0682 0.0155,0.13642 0.0155,0.0651 0.0155,0.11782 0,0.0961 -0.093,0.17364 -0.0899,0.0775 -0.16743,0.10852 -0.0744,0.0279 -0.13023,0.0279 -0.0558,0 -0.11472,-0.0186 -0.38137,-0.13333 -0.66973,-0.13333 -0.12092,0 -0.24494,-0.009 l -0.0279,0.003 q -0.062,0 -0.12712,-0.031 -0.10852,-0.0186 -0.5395,-0.0186 l -0.17674,0.003 q -0.0155,0.003 -0.031,0.0279 -0.0124,0.0248 -0.0434,0.10542 -0.0279,0.0806 -0.0434,0.10852 0.17983,0.0496 0.27905,0.0496 0.0682,0 0.13643,-0.0155 0.0217,-0.006 0.0465,-0.006 0.0496,0.0217 0.14883,0.0217 0.0465,0 0.10852,-0.006 0.0837,0.0155 0.12092,0.0155 h 0.0279 q 0.0434,0 0.0899,-0.031 0.031,-0.003 0.062,-0.003 0.10542,0 0.22325,0.0248 0.0341,-0.006 0.062,-0.006 0.15193,0 0.15193,0.13952 0,0.062 -0.0248,0.13333 -0.0248,0.0713 -0.0248,0.13643 0,0.0868 0.0465,0.16743 0.0279,0.0403 0.0279,0.0837 -0.0155,0.11472 -0.0186,0.22945 -0.006,0.13642 -0.0248,0.26975 -0.0186,0.13332 -0.0496,0.19843 -0.0682,0.0558 -0.15193,0.0744 -0.0837,0.0155 -0.11162,0.0155 -0.0961,0 -0.17673,-0.006 -0.0868,0.003 -0.14573,0.003 -0.0496,0 -0.10232,0.009 -0.0713,0.0124 -0.17053,0.0124 -0.14573,0 -0.23254,-0.0465 -0.0465,-0.0155 -0.093,-0.0155 -0.062,0 -0.11782,0.0465 -0.0899,0.0651 -0.0899,0.14883 0,0.0372 0.0155,0.0806 0.0279,0.062 0.0589,0.0682 0.0341,0.006 0.0589,0.006 0.0434,0 0.0899,0.009 0.0465,0.006 0.10232,0.006 0.10232,0 0.17673,0.009 0.0775,0.006 0.12713,0.006 0.0899,0 0.21084,-0.0155 0.0682,-0.003 0.0899,-0.003 l 0.0155,0.003 q 0.0961,-0.003 0.22014,-0.0341 0.12402,-0.031 0.27285,-0.0527 0.0527,-0.0217 0.11162,-0.062 0.062,-0.0434 0.11782,-0.0682 0.0558,-0.0279 0.0961,-0.0992 0.0186,-0.031 0.0651,-0.031 0.0837,0 0.18913,0.0527 0.0806,0.0434 0.13023,0.10232 0.19533,0.23254 0.19533,0.555 -0.003,0.13023 -0.0155,0.26355 -0.0124,0.11472 -0.0124,0.23255 0,0.17673 0.0589,0.32246 0.0124,0.0341 0.0124,0.0651 0,0.0837 -0.0806,0.16433 -0.10542,0.10852 -0.26355,0.14573 -0.0775,-0.003 -0.15503,-0.0248 -0.0899,0.006 -0.14883,0.006 -0.0589,0 -0.11162,0.0279 -0.12713,0.0155 -0.20154,0.0248 -0.0713,0.009 -0.0899,0.009 -0.11162,0 -0.34106,0.0124 -0.22635,0.0124 -0.36897,0.0124 -0.10232,0 -0.21394,-0.0186 -0.0217,-0.0124 -0.0527,-0.0124 -0.0589,0 -0.14883,0.009 z"
         id="path201" /><path
         d="m 132.45548,208.28545 q -0.10232,0 -0.20774,-0.0155 -0.0713,-0.009 -0.14263,-0.0124 -0.0279,-0.003 -0.0589,-0.009 -0.031,-0.006 -0.0837,-0.006 -0.0527,0.009 -0.0868,0.009 -0.0775,0 -0.13953,-0.031 h -0.0403 l -0.0217,-0.0403 q -0.0527,-0.0465 -0.0899,-0.12403 -0.0806,-0.16433 -0.0992,-0.34106 -0.0465,-0.67593 -0.0775,-1.35496 -0.006,-0.062 -0.006,-0.12712 0,-0.12092 -0.009,-0.24185 -0.003,-0.32866 -0.003,-1.20923 0,-0.33486 -0.0341,-0.66662 -0.0155,-0.12713 -0.0155,-0.24805 0,-0.26665 0.0806,-0.72554 0.031,-0.19533 0.16123,-0.27905 0.10852,-0.0744 0.26355,-0.0744 l 0.0837,0.003 q 0.12712,0 0.25735,-0.031 0.0651,-0.0155 0.12712,-0.0248 h 1.90686 q 0.37207,0.13952 0.5023,0.19533 0.24804,0.11163 0.60151,0.42168 0.0186,0.0186 0.0527,0.0434 0.0713,0.0496 0.10542,0.11782 0.0558,0.12713 0.12092,0.24805 0.0899,0.17363 0.15813,0.35347 0.0682,0.17673 0.0682,0.38757 0,0.0899 0.031,0.16433 0.0217,0.0434 0.0217,0.0806 0,0.093 -0.14263,0.19844 -0.10852,0.0682 -0.12402,0.12402 -0.0248,0.0744 -0.27906,0.17673 -0.14262,0.0589 -0.20153,0.10542 0.0651,0.0465 0.19843,0.0992 0.13333,0.0527 0.24185,0.11782 0.10852,0.062 0.10852,0.15813 0,0.0372 0.10542,0.11162 0.0434,0.0341 0.0651,0.062 0.11162,0.17363 0.11162,0.35656 0,0.35967 -0.13642,0.62632 -0.0434,0.093 -0.0775,0.18914 -0.0868,0.24494 -0.31936,0.37517 -0.13332,0.0961 -0.24184,0.22944 -0.10542,0.11782 -0.13333,0.12713 -0.39997,0.15192 -0.59841,0.24184 -0.10852,0.0558 -0.22014,0.0558 -0.0403,0.0186 -0.0837,0.0186 l -0.0806,-0.0155 -0.20154,0.0527 q -0.31316,0.0372 -0.5023,0.0527 -0.13952,0.009 -0.50229,0.009 -0.22945,0.0651 -0.41238,0.0651 z m 1.30845,-3.39515 q 0.0899,-0.003 0.16433,-0.062 0.11472,-0.10542 0.23254,-0.20154 0.0806,-0.0682 0.0806,-0.13642 0,-0.0682 -0.0837,-0.13333 -0.13953,-0.10542 -0.27595,-0.21704 -0.0868,-0.0682 -0.17053,-0.0682 -0.25115,0 -0.41858,0.0496 -0.16433,0.0837 -0.16433,0.10232 v 0.15193 q 0,0.18293 0.0465,0.35346 0.0341,0.0806 0.18913,0.12403 0.14263,0.0372 0.29766,0.0372 z m -0.13953,1.90997 q 0.13643,0 0.26665,-0.0155 0.13023,-0.0248 0.21394,-0.11782 0.0837,-0.093 0.14573,-0.20464 0.0341,-0.0558 0.0341,-0.0651 l -0.006,-0.0403 q -0.0496,-0.15193 -0.18603,-0.22324 -0.093,-0.0465 -0.19224,-0.0465 -0.0527,0 -0.10542,0.0124 -0.17363,0.0372 -0.35346,0.0372 -0.12403,0 -0.17364,0.0496 -0.031,0.0279 -0.031,0.0682 0,0.0248 0.0124,0.0558 -0.0155,0.0992 -0.0155,0.19534 0,0.0992 0.0124,0.19534 -0.003,0.009 -0.003,0.0217 l 0.003,0.0682 q 0.10542,0 0.20774,0.003 0.0868,0.006 0.17053,0.006 z"
         id="path203" /><path
         d="m 138.68766,208.28545 q -0.14263,0 -0.27595,-0.0744 -0.0527,-0.0186 -0.11783,-0.0186 -0.0496,0 -0.10231,-0.0155 -0.20464,-0.0527 -0.38448,-0.13333 -0.11472,-0.062 -0.22014,-0.13953 -0.10232,-0.0806 -0.13643,-0.0899 -0.0341,-0.0124 -0.0434,-0.0248 -0.11783,-0.17673 -0.27285,-0.32866 -0.12403,-0.12402 -0.22945,-0.26355 -0.10232,-0.13953 -0.13952,-0.32246 -0.0155,-0.10542 -0.0651,-0.19224 -0.093,-0.14572 -0.10542,-0.26665 -0.009,-0.12092 -0.009,-0.21084 0,-0.0682 0.006,-0.13952 0,-0.14883 0.093,-0.24185 0.0372,-0.0341 0.0713,-0.0713 0.093,-0.10852 0.19534,-0.17364 0.10542,-0.0682 0.24805,-0.0682 0.31626,0.0124 0.75654,0.15813 l 0.0992,0.0279 q 0.19534,0.0589 0.30386,0.17983 0.11162,0.12092 0.17363,0.29766 0.13022,0.32246 0.26665,0.32246 0.17673,0 0.22014,-0.17363 0.0527,-0.15193 0.0527,-0.25115 0,-0.0651 -0.0217,-0.14263 -0.0372,-0.15813 -0.0372,-0.32866 0,-0.0868 0.006,-0.17363 0.009,-0.0868 0.009,-0.17054 0.003,-0.0837 0.031,-0.71313 l 0.003,-0.18294 q 0,-0.33486 -0.0775,-0.5426 -0.0372,-0.0961 -0.0372,-0.18293 0,-0.0589 0.0186,-0.11782 0.0403,-0.14263 0.11782,-0.27286 0.24185,-0.46198 0.46819,-0.46198 h 0.006 q 0.41548,-0.006 0.57051,-0.0372 0.0465,-0.009 0.40308,-0.009 0.10542,0 0.19843,0.0465 0.13333,0.062 0.23565,0.18603 0.0527,0.0651 0.0527,0.14573 0,0.13022 -0.009,0.24184 -0.0124,0.13643 -0.0124,0.27286 0.003,0.14572 0.0217,0.29145 0.0186,0.16743 0.0186,0.25735 l -0.0124,0.22014 q 0,0.39688 0.0124,0.44339 0.0124,0.0434 0.0155,0.0868 -0.0217,0.69143 -0.0248,0.85576 0,0.0527 0.0217,0.10542 0.031,0.10232 0.031,0.17364 0,0.11472 -0.0527,0.22634 -0.0496,0.12712 -0.0651,0.27285 -0.0527,0.33486 -0.29456,0.74104 -0.062,0.0899 -0.24494,0.27595 -0.14573,0.16123 -0.27596,0.26975 -0.0961,0.0682 -0.21394,0.11783 -0.0434,0.0186 -0.0899,0.0434 -0.0465,0.0217 -0.0992,0.0434 -0.093,0.0372 -0.18294,0.093 -0.17053,0.11782 -0.29765,0.11782 l -0.40928,-0.003 q -0.0837,0.0248 -0.16743,0.0248 z"
         id="path205" /><path
         d="m 143.75712,208.22964 q -0.17674,0.0248 -0.30386,0.0248 -0.15193,0 -0.22944,-0.0372 -0.0372,-0.0186 -0.0713,-0.0186 -0.0217,0 -0.0403,0.006 l -0.5519,-0.0155 q -0.0806,-0.003 -0.16123,-0.003 -0.0651,0 -0.12712,0.0217 -0.0899,-0.006 -0.16433,-0.006 -0.33487,0 -0.37828,-0.5426 l -0.009,-0.29146 q -0.0186,-0.41548 -0.0186,-0.83405 0,-0.46509 0.0496,-0.93328 l 0.0341,-0.43408 q 0,-0.0589 -0.0124,-0.11472 -0.0124,-0.0589 -0.0124,-0.10853 v -0.0217 q 0.0186,-0.20464 0.0186,-0.41238 0.009,-0.48989 0.0899,-0.76894 0.0372,-0.14883 0.0465,-0.30386 l 0.0217,-0.17363 q 0.0558,-0.39378 0.38758,-0.45579 0.0589,0 0.12712,0.0124 0.0899,0.0186 0.17363,0.0186 0.093,0.0248 0.17364,0.0248 0.11162,0 0.19533,-0.0496 0.031,-0.0248 0.0992,-0.0403 l 0.0341,-0.006 q 0.0434,-0.0124 0.0899,-0.0124 0.0558,0 0.11473,0.0186 0.14572,-0.031 0.33796,-0.031 0.19844,0 0.44648,0.0341 0.0682,0 0.14573,0.0186 0.14573,0 0.29456,0.0186 0.16433,0.0155 0.56741,0.0651 0.29765,0.0558 0.33486,0.0558 l 0.0899,-0.006 q 0.21394,0 0.34416,0.14883 0.0992,0.10852 0.0992,0.25735 0,0.0744 -0.0248,0.15813 -0.0341,0.0837 -0.0341,0.16743 0,0.0992 -0.0124,0.19534 0.0217,0.0403 0.0217,0.0992 0,0.031 -0.0155,0.0465 v 0.21084 q 0,0.0682 0.0155,0.13642 0.0155,0.0651 0.0155,0.11782 0,0.0961 -0.093,0.17364 -0.0899,0.0775 -0.16744,0.10852 -0.0744,0.0279 -0.13022,0.0279 -0.0558,0 -0.11472,-0.0186 -0.38137,-0.13333 -0.66973,-0.13333 -0.12092,0 -0.24495,-0.009 l -0.0279,0.003 q -0.062,0 -0.12712,-0.031 -0.10853,-0.0186 -0.53951,-0.0186 l -0.17673,0.003 q -0.0155,0.003 -0.031,0.0279 -0.0124,0.0248 -0.0434,0.10542 -0.0279,0.0806 -0.0434,0.10852 0.17983,0.0496 0.27905,0.0496 0.0682,0 0.13643,-0.0155 0.0217,-0.006 0.0465,-0.006 0.0496,0.0217 0.14883,0.0217 0.0465,0 0.10852,-0.006 0.0837,0.0155 0.12093,0.0155 h 0.0279 q 0.0434,0 0.0899,-0.031 0.031,-0.003 0.062,-0.003 0.10542,0 0.22324,0.0248 0.0341,-0.006 0.062,-0.006 0.15193,0 0.15193,0.13952 0,0.062 -0.0248,0.13333 -0.0248,0.0713 -0.0248,0.13643 0,0.0868 0.0465,0.16743 0.0279,0.0403 0.0279,0.0837 -0.0155,0.11472 -0.0186,0.22945 -0.006,0.13642 -0.0248,0.26975 -0.0186,0.13332 -0.0496,0.19843 -0.0682,0.0558 -0.15193,0.0744 -0.0837,0.0155 -0.11162,0.0155 -0.0961,0 -0.17673,-0.006 -0.0868,0.003 -0.14573,0.003 -0.0496,0 -0.10232,0.009 -0.0713,0.0124 -0.17053,0.0124 -0.14573,0 -0.23255,-0.0465 -0.0465,-0.0155 -0.093,-0.0155 -0.062,0 -0.11783,0.0465 -0.0899,0.0651 -0.0899,0.14883 0,0.0372 0.0155,0.0806 0.0279,0.062 0.0589,0.0682 0.0341,0.006 0.0589,0.006 0.0434,0 0.0899,0.009 0.0465,0.006 0.10232,0.006 0.10232,0 0.17673,0.009 0.0775,0.006 0.12713,0.006 0.0899,0 0.21084,-0.0155 0.0682,-0.003 0.0899,-0.003 l 0.0155,0.003 q 0.0961,-0.003 0.22014,-0.0341 0.12402,-0.031 0.27285,-0.0527 0.0527,-0.0217 0.11162,-0.062 0.062,-0.0434 0.11782,-0.0682 0.0558,-0.0279 0.0961,-0.0992 0.0186,-0.031 0.0651,-0.031 0.0837,0 0.18914,0.0527 0.0806,0.0434 0.13022,0.10232 0.19534,0.23254 0.19534,0.555 -0.003,0.13023 -0.0155,0.26355 -0.0124,0.11472 -0.0124,0.23255 0,0.17673 0.0589,0.32246 0.0124,0.0341 0.0124,0.0651 0,0.0837 -0.0806,0.16433 -0.10542,0.10852 -0.26355,0.14573 -0.0775,-0.003 -0.15503,-0.0248 -0.0899,0.006 -0.14882,0.006 -0.0589,0 -0.11163,0.0279 -0.12712,0.0155 -0.20153,0.0248 -0.0713,0.009 -0.0899,0.009 -0.11162,0 -0.34107,0.0124 -0.22634,0.0124 -0.36896,0.0124 -0.10232,0 -0.21395,-0.0186 -0.0217,-0.0124 -0.0527,-0.0124 -0.0589,0 -0.14882,0.009 z"
         id="path207" /><path
         d="m 150.31176,208.28545 q -0.0992,0 -0.36277,-0.0186 -0.0496,-0.0186 -0.10852,-0.0186 -0.0372,0 -0.0651,0.003 -0.0248,0.006 -0.0372,0.006 -0.0279,0 -0.062,-0.0124 -0.0341,-0.0124 -0.0682,-0.0124 l -0.0279,0.003 -0.093,0.003 q -0.26975,0 -0.26975,-0.17053 0,-0.0372 0.0124,-0.0806 l 0.003,-0.0372 q 0,-0.11782 -0.0434,-0.27285 -0.0899,-0.12092 -0.0899,-0.20464 0,-0.0341 -0.0248,-0.0992 -0.0217,-0.0651 -0.0434,-0.0837 -0.0372,-0.10852 -0.0682,-0.18604 -0.0651,-0.15193 -0.11782,-0.29765 -0.0155,-0.0589 -0.0589,-0.0589 l -0.0186,0.003 -0.0341,-0.009 -0.009,0.003 q -0.0403,0.031 -0.0651,0.11783 -0.0496,0.11782 -0.0496,0.26975 0,0.0992 -0.0341,0.24184 -0.006,0.11473 -0.006,0.19844 l -0.003,0.0992 q 0.0155,0.0527 0.0155,0.10542 l 0.003,0.0744 q 0,0.19844 -0.11472,0.30386 -0.10542,0.093 -0.28525,0.093 -0.0434,0 -0.093,-0.006 -0.0465,-0.003 -0.0992,-0.003 -0.0682,0 -0.13333,0.006 -0.0651,0.006 -0.12712,0.006 l -0.12092,0.0124 q -0.0496,0 -0.0899,-0.0186 -0.15503,-0.0341 -0.39998,-0.0341 -0.0899,0 -0.17673,-0.0124 -0.22944,-0.0651 -0.28215,-0.38137 l -0.0248,-0.90847 q 0,-0.19534 0.009,-0.39068 0.009,-0.14883 0.009,-0.30075 0,-0.21084 -0.0186,-0.42478 -0.0155,-0.16744 -0.0155,-0.33487 0,-0.21394 0.0248,-0.42478 0.0248,-0.24805 0.0248,-0.49919 -0.003,-0.062 -0.0155,-0.12403 -0.009,-0.062 -0.009,-0.12402 0,-0.0558 0.0341,-0.44958 0.0465,-0.45889 0.0465,-0.64803 0,-0.0744 0.009,-0.13332 0.0217,-0.13023 0.32556,-0.30696 0.18914,-0.10852 0.81546,-0.13953 l 0.0651,0.003 q 0.17673,-0.006 0.28215,-0.006 0.0806,0 0.11782,0.003 0.29456,0.0248 0.59222,0.0341 0.0558,0 0.11162,-0.0124 l 0.0248,-0.003 q 0.062,0 0.26975,0.0279 0.48369,0.0341 0.92088,0.24185 0.22944,0.093 0.35967,0.32866 0.0403,0.0651 0.12402,0.10852 0.0744,0.0465 0.11472,0.0868 0.10852,0.10232 0.13023,0.16433 l 0.21084,0.35967 q 0.0527,0.0496 0.0775,0.14882 0.0248,0.0961 0.0248,0.16123 0,0.13333 0.0248,0.24495 0.0248,0.10852 0.0248,0.23565 l -0.009,0.14262 q -0.006,0.21084 -0.0589,0.40928 -0.0527,0.19844 -0.24184,0.34727 -0.006,0.006 -0.0186,0.0124 -0.009,0.006 -0.10852,0.17983 -0.14573,0.24185 -0.26355,0.4961 -0.0124,0.0248 -0.0124,0.0558 0,0.0434 0.0434,0.19223 0.0868,0.46509 0.15813,0.5302 0.0372,0.0341 0.13952,0.22945 0.10232,0.19533 0.18604,0.33796 0.0682,0.10852 0.0682,0.22324 0,0.16433 -0.14883,0.25735 -0.14262,0.10542 -0.24494,0.10542 -0.0775,0 -0.23875,0.0155 -0.16123,0.0155 -0.29145,0.0155 z m -1.24334,-3.19361 q 0.0744,0 0.15813,-0.0124 0.11162,0 0.15813,-0.0341 0.22014,-0.23874 0.22324,-0.29145 l 0.003,-0.0279 q 0,-0.0217 -0.009,-0.0403 -0.0806,-0.22015 -0.24804,-0.32867 -0.0713,-0.062 -0.17054,-0.0744 -0.16433,-0.0217 -0.42478,-0.0217 -0.0496,0 -0.0837,0.0155 -0.031,0.0124 -0.062,0.45268 -0.006,0.0496 -0.006,0.0899 0,0.11162 0.0496,0.15503 0.0341,0.0496 0.17674,0.0868 0.11162,0.031 0.23564,0.031 z"
         id="path209" /><path
         d="m 152.63719,209.02339 h -0.0186 q -0.0372,0 -0.0775,-0.009 -0.0186,0 -0.0403,0.003 -0.0186,0.003 -0.0806,0.003 -0.0341,0 -0.062,-0.006 -0.0775,-0.0341 -0.15813,-0.0465 -0.0372,-0.006 -0.0713,-0.0341 -0.0124,-0.0124 -0.0279,-0.0217 -0.0155,-0.006 -0.0279,-0.0155 l -0.0496,-0.0279 q -0.0744,-0.0372 -0.10852,-0.11162 -0.0155,-0.0341 -0.0465,-0.0558 -0.0589,-0.0248 -0.0744,-0.0899 -0.009,-0.031 -0.0341,-0.0651 -0.0217,-0.031 -0.0217,-0.0992 0,-0.0434 0.009,-0.0961 0.0124,-0.21084 0.26355,-0.33176 0.14572,-0.10542 0.14572,-0.27286 0,-0.062 -0.0434,-0.13952 -0.0744,-0.0465 -0.13952,-0.26045 -0.006,-0.0186 -0.006,-0.0465 0,-0.0527 0.031,-0.16743 0.10232,-0.34417 0.45889,-0.55191 0.19224,-0.093 0.40308,-0.093 0.24184,0 0.40307,0.14882 0.19844,0.14573 0.23565,0.22945 0.0403,0.0806 0.0682,0.12092 0.0186,0.062 0.0465,0.11472 0.0496,0.0992 0.0496,0.16743 l -0.006,0.13333 q -0.0217,0.0961 -0.33797,0.93017 -0.0217,0.11473 -0.0744,0.21395 -0.0527,0.11162 -0.0713,0.12402 -0.0682,0.0465 -0.0992,0.12092 -0.0186,0.0403 -0.10542,0.0651 -0.0217,0.009 -0.0341,0.0248 -0.0713,0.0837 -0.14573,0.0837 -0.0527,0 -0.0682,0.0155 -0.0403,0.0372 -0.0837,0.0434 z"
         id="path211" /><path
         d="m 161.36535,208.28545 q -0.0992,0 -0.36277,-0.0186 -0.0496,-0.0186 -0.10852,-0.0186 -0.0372,0 -0.0651,0.003 -0.0248,0.006 -0.0372,0.006 -0.0279,0 -0.062,-0.0124 -0.0341,-0.0124 -0.0682,-0.0124 l -0.0279,0.003 -0.093,0.003 q -0.26975,0 -0.26975,-0.17053 0,-0.0372 0.0124,-0.0806 l 0.003,-0.0372 q 0,-0.11782 -0.0434,-0.27285 -0.0899,-0.12092 -0.0899,-0.20464 0,-0.0341 -0.0248,-0.0992 -0.0217,-0.0651 -0.0434,-0.0837 -0.0372,-0.10852 -0.0682,-0.18604 -0.0651,-0.15193 -0.11782,-0.29765 -0.0155,-0.0589 -0.0589,-0.0589 l -0.0186,0.003 -0.0341,-0.009 -0.009,0.003 q -0.0403,0.031 -0.0651,0.11783 -0.0496,0.11782 -0.0496,0.26975 0,0.0992 -0.0341,0.24184 -0.006,0.11473 -0.006,0.19844 l -0.003,0.0992 q 0.0155,0.0527 0.0155,0.10542 l 0.003,0.0744 q 0,0.19844 -0.11472,0.30386 -0.10542,0.093 -0.28526,0.093 -0.0434,0 -0.093,-0.006 -0.0465,-0.003 -0.0992,-0.003 -0.0682,0 -0.13333,0.006 -0.0651,0.006 -0.12712,0.006 l -0.12092,0.0124 q -0.0496,0 -0.0899,-0.0186 -0.15503,-0.0341 -0.39998,-0.0341 -0.0899,0 -0.17673,-0.0124 -0.22944,-0.0651 -0.28215,-0.38137 l -0.0248,-0.90847 q 0,-0.19534 0.009,-0.39068 0.009,-0.14883 0.009,-0.30075 0,-0.21084 -0.0186,-0.42478 -0.0155,-0.16744 -0.0155,-0.33487 0,-0.21394 0.0248,-0.42478 0.0248,-0.24805 0.0248,-0.49919 -0.003,-0.062 -0.0155,-0.12403 -0.009,-0.062 -0.009,-0.12402 0,-0.0558 0.0341,-0.44958 0.0465,-0.45889 0.0465,-0.64803 0,-0.0744 0.009,-0.13332 0.0217,-0.13023 0.32556,-0.30696 0.18914,-0.10852 0.81546,-0.13953 l 0.0651,0.003 q 0.17673,-0.006 0.28215,-0.006 0.0806,0 0.11782,0.003 0.29456,0.0248 0.59222,0.0341 0.0558,0 0.11162,-0.0124 l 0.0248,-0.003 q 0.062,0 0.26975,0.0279 0.48369,0.0341 0.92088,0.24185 0.22944,0.093 0.35966,0.32866 0.0403,0.0651 0.12403,0.10852 0.0744,0.0465 0.11472,0.0868 0.10852,0.10232 0.13022,0.16433 l 0.21084,0.35967 q 0.0527,0.0496 0.0775,0.14882 0.0248,0.0961 0.0248,0.16123 0,0.13333 0.0248,0.24495 0.0248,0.10852 0.0248,0.23565 l -0.009,0.14262 q -0.006,0.21084 -0.0589,0.40928 -0.0527,0.19844 -0.24185,0.34727 -0.006,0.006 -0.0186,0.0124 -0.009,0.006 -0.10852,0.17983 -0.14573,0.24185 -0.26355,0.4961 -0.0124,0.0248 -0.0124,0.0558 0,0.0434 0.0434,0.19223 0.0868,0.46509 0.15813,0.5302 0.0372,0.0341 0.13952,0.22945 0.10232,0.19533 0.18604,0.33796 0.0682,0.10852 0.0682,0.22324 0,0.16433 -0.14883,0.25735 -0.14262,0.10542 -0.24494,0.10542 -0.0775,0 -0.23875,0.0155 -0.16123,0.0155 -0.29145,0.0155 z m -1.24334,-3.19361 q 0.0744,0 0.15813,-0.0124 0.11162,0 0.15813,-0.0341 0.22014,-0.23874 0.22324,-0.29145 l 0.003,-0.0279 q 0,-0.0217 -0.009,-0.0403 -0.0806,-0.22015 -0.24805,-0.32867 -0.0713,-0.062 -0.17053,-0.0744 -0.16433,-0.0217 -0.42478,-0.0217 -0.0496,0 -0.0837,0.0155 -0.031,0.0124 -0.062,0.45268 -0.006,0.0496 -0.006,0.0899 0,0.11162 0.0496,0.15503 0.0341,0.0496 0.17674,0.0868 0.11162,0.031 0.23564,0.031 z"
         id="path213" /><path
         d="m 166.27667,208.23584 q -0.0403,0 -0.0868,-0.006 -0.0651,-0.009 -0.13952,-0.009 -0.31626,-0.009 -0.34727,-0.34416 -0.0186,-0.18294 -0.17053,-0.32866 -0.15193,-0.14883 -0.32866,-0.15813 -0.12403,0 -0.33797,0.0961 -0.18913,0.0837 -0.18913,0.27285 0,0.0248 0.006,0.0465 0.0248,0.0744 0.0248,0.13022 0,0.17053 -0.22634,0.20154 -0.0992,0 -0.20774,0.0248 -0.0806,-0.006 -0.15813,-0.006 -0.12402,0 -0.32866,0.0124 l -0.20154,0.003 q -0.10852,0 -0.14883,-0.006 -0.22944,-0.0217 -0.29145,-0.0217 -0.0992,0 -0.20464,-0.0527 -0.17053,-0.0806 -0.21704,-0.24185 -0.006,-0.031 -0.006,-0.062 0,-0.0434 0.0124,-0.0868 0,-0.0527 0.11782,-0.46199 0.031,-0.0899 0.0682,-0.17363 0.0465,-0.10542 0.0806,-0.21705 0.0682,-0.26665 0.13023,-0.5333 0.0651,-0.28215 0.13952,-0.5643 0.0372,-0.12403 0.0899,-0.24185 0.0806,-0.18913 0.10232,-0.31316 0.0217,-0.10852 0.20774,-0.66972 0.26665,-0.81546 0.40617,-1.31465 0.0682,-0.28526 0.39688,-0.34107 0.0558,0 0.17983,0.0124 l 0.28526,0.006 0.18293,-0.003 q 0.0589,0 0.10852,-0.003 0.0527,-0.006 0.0837,-0.006 l 0.062,0.003 q 0.0403,0 0.20154,-0.006 0.16123,-0.006 0.28215,-0.006 0.34417,0 0.45269,0.39378 0.0527,0.19223 0.13332,0.37827 0.10232,0.22944 0.18914,0.555 0.0527,0.19224 0.11782,0.37827 0.0589,0.17364 0.0899,0.35037 0.0341,0.20464 0.10542,0.38137 0.0713,0.17364 0.10852,0.34727 0.0372,0.17053 0.10232,0.32866 0.0248,0.0682 0.0248,0.14883 0.003,0.0806 0.0155,0.14263 0.0372,0.12712 0.0806,0.25114 0.0682,0.18294 0.0837,0.27906 0.003,0.0372 0.0186,0.093 0.0465,0.23565 0.0775,0.45269 0.031,0.21704 0.17054,0.45268 0.0186,0.0403 0.0186,0.0806 0,0.10852 -0.16433,0.22014 -0.12092,0.0961 -0.20774,0.0961 -0.062,0 -0.28525,0.0124 -0.22325,0.0155 -0.34417,0.0155 -0.10232,0 -0.16433,0.003 -0.11782,0.009 -0.20154,0.009 z m -0.78445,-2.50218 q 0.11162,0 0.11162,-0.0961 0,-0.0217 -0.006,-0.031 l -0.0837,-0.46199 -0.0496,-0.0961 q -0.0527,-0.12402 -0.14263,-0.20463 -0.0341,-0.0248 -0.062,-0.0248 -0.0558,0 -0.16433,0.0651 -0.0217,0.0248 -0.0434,0.0434 -0.006,0.006 -0.0124,0.0155 -0.006,0.009 -0.0186,0.0155 -0.0682,0.0837 -0.0682,0.11782 l -0.0434,0.12092 q 0,0.0651 -0.0589,0.26045 -0.0341,0.0341 -0.0434,0.22324 0.0961,0.0124 0.18914,0.0124 l 0.14573,-0.006 q 0.0806,0 0.12092,0.0186 0.10232,0 0.19534,0.0186 0.0124,0.009 0.0341,0.009 z"
         id="path215" /><path
         d="m 169.80514,208.28545 q -0.093,0 -0.26665,-0.0434 l -0.0217,-0.003 q -0.031,0 -0.0651,0.0155 -0.0806,-0.0279 -0.11782,-0.0279 -0.0279,0 -0.0527,0.009 -0.0558,-0.0155 -0.10542,-0.0155 -0.0961,0 -0.18603,-0.031 l -0.0868,-0.0186 q -0.10542,-0.0465 -0.16123,-0.0465 l -0.0372,0.003 q -0.0434,-0.0186 -0.0837,-0.0186 -0.13953,0 -0.22014,-0.13022 -0.0806,-0.11782 -0.0806,-0.21704 0,-0.0775 0.0558,-0.15503 0.0403,-0.0527 0.0465,-0.11782 0.006,-0.26355 0.15193,-0.4961 0.0496,-0.0806 0.0589,-0.18913 0.006,-0.0589 0.0217,-0.11783 0.10852,-0.29455 0.44029,-0.29455 0.0961,0 0.18913,0.0403 0.30386,0.14572 0.62012,0.26045 0.0124,0.003 0.031,0.003 0.093,0 0.15192,-0.0465 0.006,-0.006 0.006,-0.0217 0,-0.0217 -0.009,-0.062 -0.062,-0.10542 -0.12402,-0.11472 -0.16433,-0.0372 -0.31006,-0.12402 -0.21704,-0.12093 -0.39067,-0.13023 -0.13333,-0.0124 -0.26355,-0.0806 -0.0558,-0.0279 -0.11472,-0.0496 -0.0496,-0.031 -0.0651,-0.031 l -0.0527,0.003 q -0.14262,-0.031 -0.22324,-0.10542 -0.0992,-0.0558 -0.16743,-0.17983 -0.0434,-0.0713 -0.0899,-0.13333 -0.12712,-0.16743 -0.19223,-0.35657 -0.0651,-0.18913 -0.11783,-0.41237 -0.0186,-0.0682 -0.0186,-0.11472 0,-0.12093 0.0155,-0.17674 0.003,-0.13022 0.0372,-0.20464 0.0341,-0.0775 0.0403,-0.15813 0.0713,-0.13952 0.17983,-0.33176 0.25735,-0.45268 0.57361,-0.62322 0.28215,-0.15503 0.57981,-0.26355 0.30076,-0.10852 0.63252,-0.12092 l 0.25735,-0.009 q 0.16433,-0.0124 0.32866,-0.0124 0.11782,0 0.23565,0.006 0.25114,0.0279 0.49299,0.11782 0.18913,0.0589 0.34726,0.13332 l 0.13643,0.0589 q 0.20464,0.093 0.20464,0.25424 0,0.0806 -0.0527,0.17984 -0.0341,0.0465 -0.0496,0.0868 -0.21704,0.87747 -0.21704,0.92088 l 0.003,0.0341 q 0,0.0589 -0.0186,0.0713 -0.0372,0.0186 -0.10542,0.0186 -0.0589,0 -0.093,0.006 -0.10232,0.0279 -0.19844,0.0279 -0.20774,0 -0.55811,-0.18294 -0.0279,-0.009 -0.0589,-0.009 -0.0682,0 -0.13952,0.0589 l -0.0217,0.0589 0.0248,0.0403 q 0.0651,0.10542 0.65112,0.28216 0.16123,0.0372 0.36277,0.17983 0.0651,0.0496 0.13332,0.0744 0.13023,0.0465 0.19534,0.12093 0.24805,0.31936 0.30696,0.36587 0.0341,0 0.062,0.0124 0.0868,0.13022 0.0899,0.15193 0.0558,0.15813 0.0806,0.57981 -0.003,0.13022 -0.0403,0.26355 -0.0186,0.0713 -0.031,0.14262 -0.0403,0.29456 -0.26045,0.4961 -0.0806,0.0744 -0.0961,0.12712 -0.0527,0.22324 -0.20774,0.32866 -0.15193,0.10542 -0.35966,0.20464 l -0.093,0.062 q -0.21084,0.0992 -0.39068,0.0992 l -0.22944,-0.003 q -0.0496,0 -0.093,0.0124 -0.18293,0.0589 -0.30695,0.0589 l -0.19224,-0.003 q -0.0248,-0.009 -0.0527,-0.009 -0.0279,0 -0.12402,-0.006 -0.0682,0.0217 -0.13023,0.0279 z"
         id="path217" /><path
         d="m 178.49298,208.28545 -0.62942,-0.003 -0.0775,0.003 q -0.0992,0 -0.23255,-0.0217 -0.13022,-0.0217 -0.17363,-0.0217 -0.15193,0 -0.15193,-0.22324 l 0.006,-0.43719 q -0.009,-0.20774 -0.009,-0.28835 -0.0434,-0.27595 -0.0713,-0.29766 -0.062,-0.031 -0.14883,-0.031 -0.16123,0 -0.20464,0.0806 l -0.0651,0.19224 q -0.0124,0.10232 -0.0124,0.22014 0,0.0992 0.009,0.21084 0.0155,0.35967 0.0155,0.40308 0,0.062 -0.062,0.10852 -0.24185,0.0651 -0.40928,0.0651 -0.0837,0 -0.30696,-0.0124 -0.22014,-0.009 -0.26045,-0.009 -0.24804,0 -0.24804,-0.13642 l 0.003,-0.0341 q 0,-0.0589 -0.006,-0.14262 l -0.0527,-0.37208 q -0.0775,-0.28835 -0.17984,-0.51159 0,-0.0403 -0.13332,-0.0403 -0.0837,0 -0.11472,0.0465 -0.0186,0.031 -0.062,0.30696 -0.0124,0.0837 -0.0124,0.16123 l -0.003,0.19844 q 0,0.0806 0.003,0.13332 0.009,0.0775 0.009,0.10232 0,0.0837 -0.0248,0.11782 -0.093,0.19224 -0.35657,0.19224 h -0.39067 q -0.39688,0.0217 -0.68833,0.0248 -0.14263,-0.003 -0.24185,-0.11472 -0.0992,-0.10852 -0.11472,-0.29765 -0.0496,-0.76895 -0.0496,-2.47737 0,-0.68213 -0.003,-0.84646 -0.003,-0.16743 -0.003,-0.33177 0,-0.21394 0.006,-0.43098 0,-0.0992 -0.006,-0.20153 -0.006,-0.0713 -0.006,-0.14573 l 0.003,-0.10852 q 0.009,-0.12403 0.0744,-0.24495 0.18914,-0.30076 0.68213,-0.30076 0.20464,0 0.5271,-0.0217 0.19534,0.0434 0.39068,0.0651 0.13022,0.0155 0.21084,0.10542 0.11472,0.22634 0.15192,0.31936 0.0713,0.10542 0.30076,0.5085 0.0527,0.0992 0.0961,0.20154 0.0806,0.17673 0.12712,0.25735 0.0775,0.13952 0.14263,0.29145 0.031,0.0775 0.0682,0.15813 0.0496,0.10232 0.11162,0.10232 0.0868,0 0.18604,-0.20154 0.0434,-0.0868 0.13953,-0.21704 0.11782,-0.16123 0.15503,-0.25735 0.0217,-0.062 0.0372,-0.12712 0.0248,-0.10542 0.0682,-0.20154 0.0899,-0.16743 0.18603,-0.33176 0.10852,-0.17984 0.20464,-0.36897 0.11782,-0.22635 0.31626,-0.31006 0.20154,-0.0837 0.5302,-0.0837 0.093,0 0.19534,0.006 l 0.0558,-0.003 q 0.0589,0 0.0961,0.0155 0.12093,0.0186 0.25425,0.0279 0.13643,0.006 0.25115,0.0496 0.11472,0.0403 0.17983,0.18604 0.0403,0.12712 0.0403,0.29145 0,0.15813 -0.006,0.21084 -0.006,0.0496 -0.006,0.13643 0.006,0.13022 0.0155,0.25735 0.0155,0.17983 0.0186,0.35966 -0.003,0.0682 -0.0217,0.11783 -0.0186,0.0465 -0.0186,0.18913 0,0.12402 0.009,0.33176 0.0217,0.12713 0.0248,0.16123 l 0.0558,1.0232 -0.003,0.0837 q 0,0.13023 0.009,0.21704 l 0.003,0.093 -0.0434,0.81236 0.0155,0.58291 q 0,0.47749 -0.37517,0.47749 z"
         id="path219" /><path
         d="m 181.57186,208.25444 q -0.13332,0 -0.44028,-0.062 -0.30386,-0.062 -0.5457,-0.26665 -0.24185,-0.20464 -0.32246,-0.28526 -0.0775,-0.0806 -0.13953,-0.18293 -0.0403,-0.062 -0.0837,-0.12092 -0.16123,-0.21084 -0.31936,-0.68213 -0.0341,-0.18604 -0.0744,-0.36897 l 0.003,-0.0527 q 0,-0.15503 -0.0341,-0.30076 -0.0341,-0.27595 -0.0341,-0.5519 0,-0.29456 0.0527,-0.70694 0.009,-0.10852 0.009,-0.20153 0,-0.093 -0.009,-0.18604 -0.006,-0.21394 -0.006,-0.50229 0,-0.29456 0.0155,-0.58602 0.0248,-0.17983 0.18293,-0.22324 0.16123,-0.0434 0.28836,-0.0434 0.0589,0 0.11782,0.0155 l 0.12713,-0.0341 q 0.0217,0 0.0403,-0.003 0.062,-0.0124 0.12093,-0.0124 0.11472,0 0.28215,0.0217 0.13953,0.0496 0.22324,0.0496 0.031,0 0.13333,-0.009 0.10852,0 0.19533,0.0899 0.10232,0.0992 0.12403,0.23874 0.009,0.0899 0.0248,0.18294 0.0651,0.40927 0.0651,1.02319 0,0.33176 -0.0124,0.48679 -0.006,0.12713 -0.006,0.25425 0,0.44338 0.11782,0.97668 0.0248,0.10232 0.12403,0.12713 0.0992,0.0248 0.15813,0.0248 0.15192,0 0.20463,-0.0868 0.0465,-0.0744 0.0465,-0.26045 l -0.0155,-0.36587 q -0.0124,-0.69453 -0.0403,-1.34566 -0.0527,-0.20463 -0.0527,-0.36897 0,-0.0713 0.009,-0.13332 0,-0.18914 0.0248,-0.38137 0.0248,-0.13333 0.0248,-0.34417 0.0527,-0.14883 0.25425,-0.15503 0.37827,-0.0341 0.57361,-0.0341 0.36277,0 0.71624,0.0496 0.14572,0.0279 0.21704,0.13642 0.0744,0.10852 0.0868,0.24805 0.009,0.0992 0.009,0.19844 0,0.0775 -0.006,0.15192 l -0.003,0.21705 q 0.009,0.17053 0.0279,0.34106 l 0.0651,0.84646 q 0.0217,0.22944 0.0403,0.46199 0,0.0558 -0.006,0.11162 -0.003,0.0341 -0.003,0.0713 0,0.10232 0.0341,0.40928 0,0.0806 -0.0186,0.29145 -0.0403,0.13023 -0.0651,0.26665 -0.0403,0.24495 -0.17364,0.42789 -0.0372,0.0496 -0.0589,0.12092 -0.17983,0.45268 -0.71623,0.74414 -0.0651,0.0341 -0.24185,0.093 -0.0775,0.0248 -0.15503,0.0403 -0.11472,0.0248 -0.22324,0.0682 -0.15503,0.062 -0.31626,0.062 z"
         id="path221" /><path
         d="m 186.65683,208.28545 q -0.093,0 -0.26666,-0.0434 l -0.0217,-0.003 q -0.031,0 -0.0651,0.0155 -0.0806,-0.0279 -0.11782,-0.0279 -0.0279,0 -0.0527,0.009 -0.0558,-0.0155 -0.10542,-0.0155 -0.0961,0 -0.18604,-0.031 l -0.0868,-0.0186 q -0.10542,-0.0465 -0.16123,-0.0465 l -0.0372,0.003 q -0.0434,-0.0186 -0.0837,-0.0186 -0.13952,0 -0.22014,-0.13022 -0.0806,-0.11782 -0.0806,-0.21704 0,-0.0775 0.0558,-0.15503 0.0403,-0.0527 0.0465,-0.11782 0.006,-0.26355 0.15193,-0.4961 0.0496,-0.0806 0.0589,-0.18913 0.006,-0.0589 0.0217,-0.11783 0.10852,-0.29455 0.44028,-0.29455 0.0961,0 0.18914,0.0403 0.30385,0.14572 0.62011,0.26045 0.0124,0.003 0.031,0.003 0.093,0 0.15193,-0.0465 0.006,-0.006 0.006,-0.0217 0,-0.0217 -0.009,-0.062 -0.062,-0.10542 -0.12403,-0.11472 -0.16433,-0.0372 -0.31005,-0.12402 -0.21704,-0.12093 -0.39068,-0.13023 -0.13332,-0.0124 -0.26355,-0.0806 -0.0558,-0.0279 -0.11472,-0.0496 -0.0496,-0.031 -0.0651,-0.031 l -0.0527,0.003 q -0.14263,-0.031 -0.22324,-0.10542 -0.0992,-0.0558 -0.16744,-0.17983 -0.0434,-0.0713 -0.0899,-0.13333 -0.12713,-0.16743 -0.19224,-0.35657 -0.0651,-0.18913 -0.11782,-0.41237 -0.0186,-0.0682 -0.0186,-0.11472 0,-0.12093 0.0155,-0.17674 0.003,-0.13022 0.0372,-0.20464 0.0341,-0.0775 0.0403,-0.15813 0.0713,-0.13952 0.17984,-0.33176 0.25735,-0.45268 0.57361,-0.62322 0.28215,-0.15503 0.57981,-0.26355 0.30075,-0.10852 0.63251,-0.12092 l 0.25735,-0.009 q 0.16433,-0.0124 0.32867,-0.0124 0.11782,0 0.23564,0.006 0.25115,0.0279 0.49299,0.11782 0.18914,0.0589 0.34727,0.13332 l 0.13642,0.0589 q 0.20464,0.093 0.20464,0.25424 0,0.0806 -0.0527,0.17984 -0.0341,0.0465 -0.0496,0.0868 -0.21704,0.87747 -0.21704,0.92088 l 0.003,0.0341 q 0,0.0589 -0.0186,0.0713 -0.0372,0.0186 -0.10542,0.0186 -0.0589,0 -0.093,0.006 -0.10232,0.0279 -0.19844,0.0279 -0.20773,0 -0.5581,-0.18294 -0.0279,-0.009 -0.0589,-0.009 -0.0682,0 -0.13953,0.0589 l -0.0217,0.0589 0.0248,0.0403 q 0.0651,0.10542 0.65113,0.28216 0.16123,0.0372 0.36276,0.17983 0.0651,0.0496 0.13333,0.0744 0.13022,0.0465 0.19534,0.12093 0.24804,0.31936 0.30695,0.36587 0.0341,0 0.062,0.0124 0.0868,0.13022 0.0899,0.15193 0.0558,0.15813 0.0806,0.57981 -0.003,0.13022 -0.0403,0.26355 -0.0186,0.0713 -0.031,0.14262 -0.0403,0.29456 -0.26044,0.4961 -0.0806,0.0744 -0.0961,0.12712 -0.0527,0.22324 -0.20774,0.32866 -0.15193,0.10542 -0.35967,0.20464 l -0.093,0.062 q -0.21084,0.0992 -0.39067,0.0992 l -0.22944,-0.003 q -0.0496,0 -0.093,0.0124 -0.18294,0.0589 -0.30696,0.0589 l -0.19224,-0.003 q -0.0248,-0.009 -0.0527,-0.009 -0.0279,0 -0.12402,-0.006 -0.0682,0.0217 -0.13022,0.0279 z"
         id="path223" /><path
         d="m 195.11832,208.28545 q -0.093,0 -0.26665,-0.0434 l -0.0217,-0.003 q -0.031,0 -0.0651,0.0155 -0.0806,-0.0279 -0.11782,-0.0279 -0.0279,0 -0.0527,0.009 -0.0558,-0.0155 -0.10542,-0.0155 -0.0961,0 -0.18603,-0.031 l -0.0868,-0.0186 q -0.10542,-0.0465 -0.16123,-0.0465 l -0.0372,0.003 q -0.0434,-0.0186 -0.0837,-0.0186 -0.13953,0 -0.22015,-0.13022 -0.0806,-0.11782 -0.0806,-0.21704 0,-0.0775 0.0558,-0.15503 0.0403,-0.0527 0.0465,-0.11782 0.006,-0.26355 0.15193,-0.4961 0.0496,-0.0806 0.0589,-0.18913 0.006,-0.0589 0.0217,-0.11783 0.10852,-0.29455 0.44029,-0.29455 0.0961,0 0.18913,0.0403 0.30386,0.14572 0.62012,0.26045 0.0124,0.003 0.031,0.003 0.093,0 0.15193,-0.0465 0.006,-0.006 0.006,-0.0217 0,-0.0217 -0.009,-0.062 -0.062,-0.10542 -0.12402,-0.11472 -0.16433,-0.0372 -0.31006,-0.12402 -0.21704,-0.12093 -0.39067,-0.13023 -0.13333,-0.0124 -0.26355,-0.0806 -0.0558,-0.0279 -0.11472,-0.0496 -0.0496,-0.031 -0.0651,-0.031 l -0.0527,0.003 q -0.14262,-0.031 -0.22324,-0.10542 -0.0992,-0.0558 -0.16743,-0.17983 -0.0434,-0.0713 -0.0899,-0.13333 -0.12712,-0.16743 -0.19223,-0.35657 -0.0651,-0.18913 -0.11783,-0.41237 -0.0186,-0.0682 -0.0186,-0.11472 0,-0.12093 0.0155,-0.17674 0.003,-0.13022 0.0372,-0.20464 0.0341,-0.0775 0.0403,-0.15813 0.0713,-0.13952 0.17983,-0.33176 0.25735,-0.45268 0.57361,-0.62322 0.28215,-0.15503 0.57981,-0.26355 0.30076,-0.10852 0.63252,-0.12092 l 0.25735,-0.009 q 0.16433,-0.0124 0.32866,-0.0124 0.11782,0 0.23564,0.006 0.25115,0.0279 0.493,0.11782 0.18913,0.0589 0.34726,0.13332 l 0.13643,0.0589 q 0.20464,0.093 0.20464,0.25424 0,0.0806 -0.0527,0.17984 -0.0341,0.0465 -0.0496,0.0868 -0.21704,0.87747 -0.21704,0.92088 l 0.003,0.0341 q 0,0.0589 -0.0186,0.0713 -0.0372,0.0186 -0.10542,0.0186 -0.0589,0 -0.093,0.006 -0.10232,0.0279 -0.19844,0.0279 -0.20774,0 -0.55811,-0.18294 -0.0279,-0.009 -0.0589,-0.009 -0.0682,0 -0.13952,0.0589 l -0.0217,0.0589 0.0248,0.0403 q 0.0651,0.10542 0.65112,0.28216 0.16123,0.0372 0.36277,0.17983 0.0651,0.0496 0.13332,0.0744 0.13023,0.0465 0.19534,0.12093 0.24805,0.31936 0.30696,0.36587 0.0341,0 0.062,0.0124 0.0868,0.13022 0.0899,0.15193 0.0558,0.15813 0.0806,0.57981 -0.003,0.13022 -0.0403,0.26355 -0.0186,0.0713 -0.031,0.14262 -0.0403,0.29456 -0.26045,0.4961 -0.0806,0.0744 -0.0961,0.12712 -0.0527,0.22324 -0.20774,0.32866 -0.15193,0.10542 -0.35967,0.20464 l -0.093,0.062 q -0.21084,0.0992 -0.39068,0.0992 l -0.22944,-0.003 q -0.0496,0 -0.093,0.0124 -0.18293,0.0589 -0.30696,0.0589 l -0.19223,-0.003 q -0.0248,-0.009 -0.0527,-0.009 -0.0279,0 -0.12403,-0.006 -0.0682,0.0217 -0.13022,0.0279 z"
         id="path225" /><path
         d="m 201.06525,208.30095 q -0.0434,0 -0.093,-0.0155 -0.0496,-0.0155 -0.0837,-0.0155 -0.62012,0.0124 -0.73484,0.0124 -0.13953,0 -0.27595,-0.0248 -0.093,-0.0217 -0.13643,-0.0899 -0.0403,-0.0651 -0.0713,-0.17363 -0.14883,-0.38447 -0.19844,-0.5519 -0.0806,-0.26045 -0.19224,-0.5147 -0.11162,-0.25735 -0.19223,-0.5271 -0.17364,-0.58601 -0.39688,-1.15342 -0.17053,-0.46819 -0.26665,-0.68833 -0.0868,-0.20464 -0.16433,-0.41238 -0.0527,-0.15503 -0.0868,-0.31936 -0.0465,-0.22014 -0.0899,-0.29455 -0.0465,-0.0899 -0.0465,-0.17053 0,-0.0713 0.0372,-0.13643 0.0806,-0.13643 0.24805,-0.15503 0.10542,-0.009 0.21394,-0.0372 0.13333,-0.031 0.26975,-0.0372 0.15813,0.006 0.42168,0.0217 0.26665,0.0155 0.38137,0.0155 0.11783,0 0.22945,0.0527 0.21704,0.0992 0.32556,0.47129 0.10852,0.37207 0.19534,0.58601 0.0713,0.18294 0.0806,0.36897 l 0.0248,0.23565 q 0.0155,0.19533 0.15192,0.19533 0.17054,-0.0248 0.17674,-0.23254 0,-0.35037 0.0806,-0.62322 0.009,-0.0651 0.0651,-0.20464 l 0.0248,-0.20153 0.12712,-0.62012 q 0.0341,-0.093 0.11783,-0.15193 0.0837,-0.0589 0.17053,-0.0589 l 0.0434,0.003 q 0.18603,0.031 0.37517,0.031 0.15503,0.003 0.5333,0.0403 0.37827,0.0372 0.43408,0.0372 0.17983,0 0.31626,0.14263 0.0775,0.0899 0.0775,0.17673 0,0.0806 -0.0837,0.34417 -0.0806,0.26355 -0.11782,0.35346 l -0.0403,0.15503 q -0.0434,0.21394 -0.14573,0.38757 -0.12402,0.21705 -0.16123,0.45269 -0.0279,0.14263 -0.0806,0.28525 -0.0496,0.13953 -0.0961,0.29146 -0.0992,0.32246 -0.23255,0.62322 -0.14572,0.35967 -0.15813,0.46509 0,0.0465 -0.32556,0.92707 -0.0465,0.11472 -0.0682,0.23875 -0.031,0.24804 -0.17983,0.36276 -0.14883,0.11783 -0.30696,0.11783 -0.0465,0.0155 -0.0961,0.0155 z"
         id="path227" /><path
         d="m 206.71451,208.23584 q -0.0403,0 -0.0868,-0.006 -0.0651,-0.009 -0.13953,-0.009 -0.31626,-0.009 -0.34726,-0.34416 -0.0186,-0.18294 -0.17054,-0.32866 -0.15193,-0.14883 -0.32866,-0.15813 -0.12402,0 -0.33796,0.0961 -0.18914,0.0837 -0.18914,0.27285 0,0.0248 0.006,0.0465 0.0248,0.0744 0.0248,0.13022 0,0.17053 -0.22635,0.20154 -0.0992,0 -0.20773,0.0248 -0.0806,-0.006 -0.15813,-0.006 -0.12403,0 -0.32867,0.0124 l -0.20153,0.003 q -0.10852,0 -0.14883,-0.006 -0.22945,-0.0217 -0.29146,-0.0217 -0.0992,0 -0.20464,-0.0527 -0.17053,-0.0806 -0.21704,-0.24185 -0.006,-0.031 -0.006,-0.062 0,-0.0434 0.0124,-0.0868 0,-0.0527 0.11783,-0.46199 0.031,-0.0899 0.0682,-0.17363 0.0465,-0.10542 0.0806,-0.21705 0.0682,-0.26665 0.13023,-0.5333 0.0651,-0.28215 0.13953,-0.5643 0.0372,-0.12403 0.0899,-0.24185 0.0806,-0.18913 0.10232,-0.31316 0.0217,-0.10852 0.20774,-0.66972 0.26665,-0.81546 0.40618,-1.31465 0.0682,-0.28526 0.39687,-0.34107 0.0558,0 0.17984,0.0124 l 0.28525,0.006 0.18294,-0.003 q 0.0589,0 0.10852,-0.003 0.0527,-0.006 0.0837,-0.006 l 0.062,0.003 q 0.0403,0 0.20154,-0.006 0.16123,-0.006 0.28215,-0.006 0.34417,0 0.45269,0.39378 0.0527,0.19223 0.13333,0.37827 0.10231,0.22944 0.18913,0.555 0.0527,0.19224 0.11782,0.37827 0.0589,0.17364 0.0899,0.35037 0.0341,0.20464 0.10542,0.38137 0.0713,0.17364 0.10852,0.34727 0.0372,0.17053 0.10232,0.32866 0.0248,0.0682 0.0248,0.14883 0.003,0.0806 0.0155,0.14263 0.0372,0.12712 0.0806,0.25114 0.0682,0.18294 0.0837,0.27906 0.003,0.0372 0.0186,0.093 0.0465,0.23565 0.0775,0.45269 0.031,0.21704 0.17053,0.45268 0.0186,0.0403 0.0186,0.0806 0,0.10852 -0.16433,0.22014 -0.12092,0.0961 -0.20774,0.0961 -0.062,0 -0.28525,0.0124 -0.22324,0.0155 -0.34417,0.0155 -0.10232,0 -0.16433,0.003 -0.11782,0.009 -0.20154,0.009 z m -0.78444,-2.50218 q 0.11162,0 0.11162,-0.0961 0,-0.0217 -0.006,-0.031 l -0.0837,-0.46199 -0.0496,-0.0961 q -0.0527,-0.12402 -0.14263,-0.20463 -0.0341,-0.0248 -0.062,-0.0248 -0.0558,0 -0.16433,0.0651 -0.0217,0.0248 -0.0434,0.0434 -0.006,0.006 -0.0124,0.0155 -0.006,0.009 -0.0186,0.0155 -0.0682,0.0837 -0.0682,0.11782 l -0.0434,0.12092 q 0,0.0651 -0.0589,0.26045 -0.0341,0.0341 -0.0434,0.22324 0.0961,0.0124 0.18913,0.0124 l 0.14573,-0.006 q 0.0806,0 0.12092,0.0186 0.10232,0 0.19534,0.0186 0.0124,0.009 0.0341,0.009 z"
         id="path229" /><path
         d="m 209.47093,208.23894 h -0.14573 q -0.13022,0 -0.17363,-0.009 -0.13643,-0.031 -0.27285,-0.031 -0.25735,0 -0.35657,-0.21394 -0.0961,-0.21394 -0.11782,-0.45269 -0.0124,-0.20463 -0.0124,-0.40927 0,-0.37207 0.0341,-0.59222 0.0186,-0.11782 0.0279,-0.23564 0,-0.10232 -0.0124,-0.20154 -0.0124,-0.0992 -0.0124,-0.19533 0.0186,-0.54571 0.11783,-2.64791 0.0155,-0.16433 0.11782,-0.31005 0.10542,-0.14573 0.27595,-0.15193 0.19844,0 0.73484,0.0124 0.33176,0.0341 0.48059,0.0341 0.24495,0 0.33486,0.0868 0.093,0.0868 0.093,0.24185 0,0.0496 -0.006,0.10852 -0.0403,0.41548 -0.0403,0.5209 l -0.0248,0.86816 q 0,0.031 -0.0248,0.35037 -0.009,0.003 -0.009,0.062 0,0.0775 0,0.093 0.003,0.0124 0.003,0.0186 0,0.0434 -0.0186,0.22014 -0.031,0.25115 -0.031,0.38758 0,0.0403 0.006,0.0837 0.006,0.0403 0.006,0.0775 l -0.003,0.21704 q 0,0.0992 0.0527,0.15813 0.0341,0.0434 0.0744,0.0434 0.17673,-0.003 0.35657,-0.0186 0.29455,-0.0341 0.98598,-0.062 0.0682,0.003 0.13643,0.0279 0.0837,0.031 0.22014,0.031 l 0.0899,-0.003 q 0.13022,0 0.23254,0.0961 0.10232,0.0961 0.12092,0.25115 0.0248,0.23564 0.0558,0.69763 -0.0124,0.32556 -0.0248,0.43098 -0.0248,0.13332 -0.15193,0.21394 -0.12712,0.0775 -0.24805,0.0775 l -0.10232,-0.006 q -0.0899,0 -0.17983,0.0186 -0.0868,0.0186 -0.19534,0.0186 -0.0434,0 -0.093,-0.003 -0.0465,-0.003 -0.14883,-0.003 -0.0744,0.009 -0.14573,0.0248 -0.16123,0.0403 -0.40618,0.0465 -0.24184,0.009 -0.30385,0.0155 l -0.12403,-0.003 -0.92397,0.006 q -0.13333,0.009 -0.24805,0.009 z"
         id="path231" /><path
         d="m 216.63638,208.23584 q -0.0403,0 -0.0868,-0.006 -0.0651,-0.009 -0.13953,-0.009 -0.31626,-0.009 -0.34727,-0.34416 -0.0186,-0.18294 -0.17053,-0.32866 -0.15193,-0.14883 -0.32866,-0.15813 -0.12402,0 -0.33797,0.0961 -0.18913,0.0837 -0.18913,0.27285 0,0.0248 0.006,0.0465 0.0248,0.0744 0.0248,0.13022 0,0.17053 -0.22635,0.20154 -0.0992,0 -0.20774,0.0248 -0.0806,-0.006 -0.15813,-0.006 -0.12402,0 -0.32866,0.0124 l -0.20154,0.003 q -0.10852,0 -0.14883,-0.006 -0.22944,-0.0217 -0.29145,-0.0217 -0.0992,0 -0.20464,-0.0527 -0.17053,-0.0806 -0.21704,-0.24185 -0.006,-0.031 -0.006,-0.062 0,-0.0434 0.0124,-0.0868 0,-0.0527 0.11782,-0.46199 0.031,-0.0899 0.0682,-0.17363 0.0465,-0.10542 0.0806,-0.21705 0.0682,-0.26665 0.13023,-0.5333 0.0651,-0.28215 0.13952,-0.5643 0.0372,-0.12403 0.0899,-0.24185 0.0806,-0.18913 0.10232,-0.31316 0.0217,-0.10852 0.20774,-0.66972 0.26665,-0.81546 0.40617,-1.31465 0.0682,-0.28526 0.39688,-0.34107 0.0558,0 0.17983,0.0124 l 0.28526,0.006 0.18293,-0.003 q 0.0589,0 0.10852,-0.003 0.0527,-0.006 0.0837,-0.006 l 0.062,0.003 q 0.0403,0 0.20154,-0.006 0.16123,-0.006 0.28215,-0.006 0.34417,0 0.45269,0.39378 0.0527,0.19223 0.13332,0.37827 0.10232,0.22944 0.18914,0.555 0.0527,0.19224 0.11782,0.37827 0.0589,0.17364 0.0899,0.35037 0.0341,0.20464 0.10542,0.38137 0.0713,0.17364 0.10852,0.34727 0.0372,0.17053 0.10232,0.32866 0.0248,0.0682 0.0248,0.14883 0.003,0.0806 0.0155,0.14263 0.0372,0.12712 0.0806,0.25114 0.0682,0.18294 0.0837,0.27906 0.003,0.0372 0.0186,0.093 0.0465,0.23565 0.0775,0.45269 0.031,0.21704 0.17054,0.45268 0.0186,0.0403 0.0186,0.0806 0,0.10852 -0.16433,0.22014 -0.12092,0.0961 -0.20774,0.0961 -0.062,0 -0.28525,0.0124 -0.22325,0.0155 -0.34417,0.0155 -0.10232,0 -0.16433,0.003 -0.11782,0.009 -0.20154,0.009 z m -0.78445,-2.50218 q 0.11162,0 0.11162,-0.0961 0,-0.0217 -0.006,-0.031 l -0.0837,-0.46199 -0.0496,-0.0961 q -0.0527,-0.12402 -0.14263,-0.20463 -0.0341,-0.0248 -0.062,-0.0248 -0.0558,0 -0.16433,0.0651 -0.0217,0.0248 -0.0434,0.0434 -0.006,0.006 -0.0124,0.0155 -0.006,0.009 -0.0186,0.0155 -0.0682,0.0837 -0.0682,0.11782 l -0.0434,0.12092 q 0,0.0651 -0.0589,0.26045 -0.0341,0.0341 -0.0434,0.22324 0.0961,0.0124 0.18914,0.0124 l 0.14573,-0.006 q 0.0806,0 0.12092,0.0186 0.10232,0 0.19534,0.0186 0.0124,0.009 0.0341,0.009 z"
         id="path233" /><path
         d="m 218.97733,209.02339 h -0.0186 q -0.0372,0 -0.0775,-0.009 -0.0186,0 -0.0403,0.003 -0.0186,0.003 -0.0806,0.003 -0.0341,0 -0.062,-0.006 -0.0775,-0.0341 -0.15813,-0.0465 -0.0372,-0.006 -0.0713,-0.0341 -0.0124,-0.0124 -0.0279,-0.0217 -0.0155,-0.006 -0.0279,-0.0155 l -0.0496,-0.0279 q -0.0744,-0.0372 -0.10852,-0.11162 -0.0155,-0.0341 -0.0465,-0.0558 -0.0589,-0.0248 -0.0744,-0.0899 -0.009,-0.031 -0.0341,-0.0651 -0.0217,-0.031 -0.0217,-0.0992 0,-0.0434 0.009,-0.0961 0.0124,-0.21084 0.26355,-0.33176 0.14573,-0.10542 0.14573,-0.27286 0,-0.062 -0.0434,-0.13952 -0.0744,-0.0465 -0.13953,-0.26045 -0.006,-0.0186 -0.006,-0.0465 0,-0.0527 0.031,-0.16743 0.10232,-0.34417 0.45888,-0.55191 0.19224,-0.093 0.40308,-0.093 0.24184,0 0.40308,0.14882 0.19843,0.14573 0.23564,0.22945 0.0403,0.0806 0.0682,0.12092 0.0186,0.062 0.0465,0.11472 0.0496,0.0992 0.0496,0.16743 l -0.006,0.13333 q -0.0217,0.0961 -0.33796,0.93017 -0.0217,0.11473 -0.0744,0.21395 -0.0527,0.11162 -0.0713,0.12402 -0.0682,0.0465 -0.0992,0.12092 -0.0186,0.0403 -0.10542,0.0651 -0.0217,0.009 -0.0341,0.0248 -0.0713,0.0837 -0.14572,0.0837 -0.0527,0 -0.0682,0.0155 -0.0403,0.0372 -0.0837,0.0434 z"
         id="path235" /><path
         d="m 225.09479,208.23894 h -0.14573 q -0.13023,0 -0.17363,-0.009 -0.13643,-0.031 -0.27286,-0.031 -0.25734,0 -0.35656,-0.21394 -0.0961,-0.21394 -0.11783,-0.45269 -0.0124,-0.20463 -0.0124,-0.40927 0,-0.37207 0.0341,-0.59222 0.0186,-0.11782 0.0279,-0.23564 0,-0.10232 -0.0124,-0.20154 -0.0124,-0.0992 -0.0124,-0.19533 0.0186,-0.54571 0.11782,-2.64791 0.0155,-0.16433 0.11782,-0.31005 0.10542,-0.14573 0.27596,-0.15193 0.19843,0 0.73483,0.0124 0.33177,0.0341 0.4806,0.0341 0.24494,0 0.33486,0.0868 0.093,0.0868 0.093,0.24185 0,0.0496 -0.006,0.10852 -0.0403,0.41548 -0.0403,0.5209 l -0.0248,0.86816 q 0,0.031 -0.0248,0.35037 -0.009,0.003 -0.009,0.062 0,0.0775 0,0.093 0.003,0.0124 0.003,0.0186 0,0.0434 -0.0186,0.22014 -0.031,0.25115 -0.031,0.38758 0,0.0403 0.006,0.0837 0.006,0.0403 0.006,0.0775 l -0.003,0.21704 q 0,0.0992 0.0527,0.15813 0.0341,0.0434 0.0744,0.0434 0.17674,-0.003 0.35657,-0.0186 0.29456,-0.0341 0.98599,-0.062 0.0682,0.003 0.13642,0.0279 0.0837,0.031 0.22014,0.031 l 0.0899,-0.003 q 0.13023,0 0.23255,0.0961 0.10231,0.0961 0.12092,0.25115 0.0248,0.23564 0.0558,0.69763 -0.0124,0.32556 -0.0248,0.43098 -0.0248,0.13332 -0.15192,0.21394 -0.12713,0.0775 -0.24805,0.0775 l -0.10232,-0.006 q -0.0899,0 -0.17983,0.0186 -0.0868,0.0186 -0.19534,0.0186 -0.0434,0 -0.093,-0.003 -0.0465,-0.003 -0.14883,-0.003 -0.0744,0.009 -0.14572,0.0248 -0.16124,0.0403 -0.40618,0.0465 -0.24185,0.009 -0.30386,0.0155 l -0.12402,-0.003 -0.92398,0.006 q -0.13332,0.009 -0.24804,0.009 z"
         id="path237" /><path
         d="m 231.40448,208.34126 q -0.45269,0 -0.86507,-0.21704 -0.0713,-0.0403 -0.13022,-0.10852 -0.0589,-0.0682 -0.29766,-0.25425 -0.21394,-0.15813 -0.40928,-0.33797 -0.0961,-0.10232 -0.24804,-0.42168 -0.10232,-0.19223 -0.11472,-0.20153 -0.0124,-0.009 -0.0341,-0.0651 -0.0341,-0.12712 -0.11162,-0.28525 -0.15193,-0.30696 -0.15193,-0.5147 0,-0.0713 0.0124,-0.14883 l 0.009,-0.26665 q 0.0651,-0.29455 0.10232,-0.59531 0.0372,-0.27595 0.22324,-0.66042 0.0589,-0.12403 0.11163,-0.24805 0.0341,-0.0992 0.10232,-0.14263 l 0.30075,-0.36897 q 0.0403,-0.0837 0.10852,-0.12092 0.0682,-0.0372 0.14883,-0.062 0.11162,-0.0992 0.17053,-0.16123 0.20464,-0.20154 0.43719,-0.20154 l 0.0806,-0.0589 q 0.0837,0 0.12712,-0.0434 0.16744,-0.0713 0.33487,-0.0713 0.10232,0 0.20774,0.0248 l 0.0527,0.003 q 0.0372,0 0.0775,-0.009 0.0527,-0.009 0.23875,-0.0155 0.10232,0 0.19223,0.031 0.22635,0.0992 0.47439,0.13643 0.10852,0.0279 0.21394,0.11162 0.0434,0.031 0.0868,0.0589 0.0434,0.0279 0.0806,0.0527 0.0744,0.0496 0.15193,0.0899 0.22635,0.10852 0.43719,0.35036 0.21394,0.23875 0.26355,0.44339 0.0279,0.0992 0.093,0.18913 0.11783,0.15813 0.20464,0.54261 0.0744,0.24494 0.0744,0.48369 0,0.60461 -0.062,0.78755 -0.0372,0.10852 -0.10231,0.42788 -0.062,0.31936 -0.12403,0.40617 -0.031,0.0465 -0.0558,0.0899 -0.031,0.0558 -0.0682,0.10852 -0.42478,0.58291 -1.0573,0.95498 -0.31626,0.17674 -0.63872,0.23255 -0.32246,0.0558 -0.64802,0.0558 z m 0.17363,-1.90376 0.11782,-0.0124 q 0.0961,-0.003 0.19844,-0.0713 0.10232,-0.0713 0.19223,-0.11162 l 0.0589,-0.13333 q 0.0558,-0.26975 0.14262,-0.44648 0,-0.28215 -0.0248,-0.41548 0,-0.19223 -0.12713,-0.35967 -0.16743,-0.22324 -0.42168,-0.22324 -0.15192,0 -0.31316,0.10232 -0.15813,0.0992 -0.20463,0.22014 -0.0403,0.10542 -0.0992,0.31316 -0.0527,0.16123 -0.0527,0.27905 0,0.11473 -0.006,0.25425 -0.006,0.062 -0.006,0.0992 0.0186,0.0279 0.0186,0.0806 0.093,0.20153 0.33486,0.38137 0.062,0.0434 0.19224,0.0434 z"
         id="path239" /><path
         d="m 237.50022,208.30095 q -0.0434,0 -0.093,-0.0155 -0.0496,-0.0155 -0.0837,-0.0155 -0.62012,0.0124 -0.73484,0.0124 -0.13952,0 -0.27595,-0.0248 -0.093,-0.0217 -0.13643,-0.0899 -0.0403,-0.0651 -0.0713,-0.17363 -0.14883,-0.38447 -0.19844,-0.5519 -0.0806,-0.26045 -0.19223,-0.5147 -0.11162,-0.25735 -0.19224,-0.5271 -0.17363,-0.58601 -0.39687,-1.15342 -0.17054,-0.46819 -0.26665,-0.68833 -0.0868,-0.20464 -0.16434,-0.41238 -0.0527,-0.15503 -0.0868,-0.31936 -0.0465,-0.22014 -0.0899,-0.29455 -0.0465,-0.0899 -0.0465,-0.17053 0,-0.0713 0.0372,-0.13643 0.0806,-0.13643 0.24805,-0.15503 0.10542,-0.009 0.21394,-0.0372 0.13332,-0.031 0.26975,-0.0372 0.15813,0.006 0.42168,0.0217 0.26665,0.0155 0.38137,0.0155 0.11782,0 0.22944,0.0527 0.21704,0.0992 0.32556,0.47129 0.10852,0.37207 0.19534,0.58601 0.0713,0.18294 0.0806,0.36897 l 0.0248,0.23565 q 0.0155,0.19533 0.15193,0.19533 0.17053,-0.0248 0.17673,-0.23254 0,-0.35037 0.0806,-0.62322 0.009,-0.0651 0.0651,-0.20464 l 0.0248,-0.20153 0.12712,-0.62012 q 0.0341,-0.093 0.11782,-0.15193 0.0837,-0.0589 0.17053,-0.0589 l 0.0434,0.003 q 0.18604,0.031 0.37517,0.031 0.15503,0.003 0.5333,0.0403 0.37827,0.0372 0.43409,0.0372 0.17983,0 0.31626,0.14263 0.0775,0.0899 0.0775,0.17673 0,0.0806 -0.0837,0.34417 -0.0806,0.26355 -0.11782,0.35346 l -0.0403,0.15503 q -0.0434,0.21394 -0.14572,0.38757 -0.12403,0.21705 -0.16123,0.45269 -0.0279,0.14263 -0.0806,0.28525 -0.0496,0.13953 -0.0961,0.29146 -0.0992,0.32246 -0.23254,0.62322 -0.14573,0.35967 -0.15813,0.46509 0,0.0465 -0.32556,0.92707 -0.0465,0.11472 -0.0682,0.23875 -0.031,0.24804 -0.17983,0.36276 -0.14883,0.11783 -0.30696,0.11783 -0.0465,0.0155 -0.0961,0.0155 z"
         id="path241" /><path
         d="m 241.10312,208.28545 q -0.13333,0 -0.27285,-0.0341 -0.0434,-0.0124 -0.093,-0.0124 -0.0682,0 -0.16123,0.0248 -0.0589,0.0186 -0.11782,0.0186 l -0.0496,-0.003 -0.0775,-0.0124 q -0.0837,-0.0124 -0.15503,-0.0465 -0.0713,-0.031 -0.0961,-0.13022 l -0.009,-0.0434 q -0.0651,-0.29455 -0.0744,-0.59221 0,-0.13643 0.0155,-0.27285 l -0.009,-0.30076 q 0,-0.12092 0.0124,-0.24495 0.009,-0.093 0.009,-0.18913 0,-0.12713 -0.0217,-0.24805 -0.0279,-0.13952 -0.0403,-1.048 l -0.062,-0.84646 q 0.003,-0.11472 0.0124,-0.22634 0.0124,-0.17983 0.0124,-0.35967 0,-0.11472 -0.0124,-0.22634 -0.009,-0.11472 -0.0124,-0.22944 0.009,-0.35657 0.22634,-0.38758 0.41858,-0.0496 0.62632,-0.062 0.0465,-0.009 0.093,-0.009 0.031,0 0.0527,0.0124 0.0744,0.0403 0.14573,0.0403 0.0744,0 0.14572,-0.009 0.0992,-0.0124 0.17054,-0.0124 0.0806,0 0.17363,0.0217 0.10852,0.0279 0.16743,0.14883 0.16433,0.26665 0.16433,0.44338 0,0.0868 -0.0279,0.17674 l -0.003,0.0372 q 0,0.0217 0.003,0.0465 0.006,0.0217 0.006,0.0465 0,0.0527 0.003,0.0992 0.003,0.0434 0.003,0.0837 0,0.18914 -0.0527,0.40618 -0.0341,0.13643 -0.0465,0.27285 0,0.0713 0.0341,0.14573 0.0372,0.0713 0.0434,0.14263 0,0.25115 -0.0124,0.50229 -0.0124,0.32866 -0.0124,0.39998 0,0.10852 0.031,0.21084 0.0651,0.16743 0.0651,0.39687 0,0.093 -0.009,0.18604 v 0.19844 q 0,0.15813 -0.009,0.29765 v 0.0248 q -0.0155,0.21704 -0.0155,0.26355 0.003,0.0868 0.0124,0.17673 0.0124,0.11782 0.0124,0.23254 -0.003,0.22635 -0.18604,0.33177 -0.31006,0.15813 -0.60151,0.15813 z"
         id="path243" /><path
         d="m 244.37114,208.28545 q -0.093,0 -0.26666,-0.0434 l -0.0217,-0.003 q -0.031,0 -0.0651,0.0155 -0.0806,-0.0279 -0.11782,-0.0279 -0.0279,0 -0.0527,0.009 -0.0558,-0.0155 -0.10542,-0.0155 -0.0961,0 -0.18604,-0.031 l -0.0868,-0.0186 q -0.10542,-0.0465 -0.16123,-0.0465 l -0.0372,0.003 q -0.0434,-0.0186 -0.0837,-0.0186 -0.13953,0 -0.22014,-0.13022 -0.0806,-0.11782 -0.0806,-0.21704 0,-0.0775 0.0558,-0.15503 0.0403,-0.0527 0.0465,-0.11782 0.006,-0.26355 0.15193,-0.4961 0.0496,-0.0806 0.0589,-0.18913 0.006,-0.0589 0.0217,-0.11783 0.10852,-0.29455 0.44028,-0.29455 0.0961,0 0.18914,0.0403 0.30385,0.14572 0.62011,0.26045 0.0124,0.003 0.031,0.003 0.093,0 0.15193,-0.0465 0.006,-0.006 0.006,-0.0217 0,-0.0217 -0.009,-0.062 -0.062,-0.10542 -0.12403,-0.11472 -0.16433,-0.0372 -0.31005,-0.12402 -0.21705,-0.12093 -0.39068,-0.13023 -0.13332,-0.0124 -0.26355,-0.0806 -0.0558,-0.0279 -0.11472,-0.0496 -0.0496,-0.031 -0.0651,-0.031 l -0.0527,0.003 q -0.14263,-0.031 -0.22324,-0.10542 -0.0992,-0.0558 -0.16744,-0.17983 -0.0434,-0.0713 -0.0899,-0.13333 -0.12713,-0.16743 -0.19224,-0.35657 -0.0651,-0.18913 -0.11782,-0.41237 -0.0186,-0.0682 -0.0186,-0.11472 0,-0.12093 0.0155,-0.17674 0.003,-0.13022 0.0372,-0.20464 0.0341,-0.0775 0.0403,-0.15813 0.0713,-0.13952 0.17984,-0.33176 0.25735,-0.45268 0.57361,-0.62322 0.28215,-0.15503 0.5798,-0.26355 0.30076,-0.10852 0.63252,-0.12092 l 0.25735,-0.009 q 0.16433,-0.0124 0.32866,-0.0124 0.11783,0 0.23565,0.006 0.25115,0.0279 0.49299,0.11782 0.18914,0.0589 0.34727,0.13332 l 0.13642,0.0589 q 0.20464,0.093 0.20464,0.25424 0,0.0806 -0.0527,0.17984 -0.0341,0.0465 -0.0496,0.0868 -0.21704,0.87747 -0.21704,0.92088 l 0.003,0.0341 q 0,0.0589 -0.0186,0.0713 -0.0372,0.0186 -0.10542,0.0186 -0.0589,0 -0.093,0.006 -0.10232,0.0279 -0.19844,0.0279 -0.20773,0 -0.5581,-0.18294 -0.0279,-0.009 -0.0589,-0.009 -0.0682,0 -0.13953,0.0589 l -0.0217,0.0589 0.0248,0.0403 q 0.0651,0.10542 0.65113,0.28216 0.16123,0.0372 0.36276,0.17983 0.0651,0.0496 0.13333,0.0744 0.13022,0.0465 0.19534,0.12093 0.24804,0.31936 0.30695,0.36587 0.0341,0 0.062,0.0124 0.0868,0.13022 0.0899,0.15193 0.0558,0.15813 0.0806,0.57981 -0.003,0.13022 -0.0403,0.26355 -0.0186,0.0713 -0.031,0.14262 -0.0403,0.29456 -0.26044,0.4961 -0.0806,0.0744 -0.0961,0.12712 -0.0527,0.22324 -0.20774,0.32866 -0.15193,0.10542 -0.35967,0.20464 l -0.093,0.062 q -0.21084,0.0992 -0.39067,0.0992 l -0.22945,-0.003 q -0.0496,0 -0.093,0.0124 -0.18294,0.0589 -0.30696,0.0589 l -0.19224,-0.003 q -0.0248,-0.009 -0.0527,-0.009 -0.0279,0 -0.12402,-0.006 -0.0682,0.0217 -0.13022,0.0279 z"
         id="path245" /><path
         d="m 250.84825,208.23584 q -0.0403,0 -0.0868,-0.006 -0.0651,-0.009 -0.13952,-0.009 -0.31626,-0.009 -0.34727,-0.34416 -0.0186,-0.18294 -0.17053,-0.32866 -0.15193,-0.14883 -0.32866,-0.15813 -0.12403,0 -0.33797,0.0961 -0.18913,0.0837 -0.18913,0.27285 0,0.0248 0.006,0.0465 0.0248,0.0744 0.0248,0.13022 0,0.17053 -0.22634,0.20154 -0.0992,0 -0.20774,0.0248 -0.0806,-0.006 -0.15813,-0.006 -0.12402,0 -0.32866,0.0124 l -0.20154,0.003 q -0.10852,0 -0.14883,-0.006 -0.22944,-0.0217 -0.29145,-0.0217 -0.0992,0 -0.20464,-0.0527 -0.17053,-0.0806 -0.21704,-0.24185 -0.006,-0.031 -0.006,-0.062 0,-0.0434 0.0124,-0.0868 0,-0.0527 0.11782,-0.46199 0.031,-0.0899 0.0682,-0.17363 0.0465,-0.10542 0.0806,-0.21705 0.0682,-0.26665 0.13022,-0.5333 0.0651,-0.28215 0.13953,-0.5643 0.0372,-0.12403 0.0899,-0.24185 0.0806,-0.18913 0.10232,-0.31316 0.0217,-0.10852 0.20774,-0.66972 0.26665,-0.81546 0.40617,-1.31465 0.0682,-0.28526 0.39688,-0.34107 0.0558,0 0.17983,0.0124 l 0.28526,0.006 0.18293,-0.003 q 0.0589,0 0.10852,-0.003 0.0527,-0.006 0.0837,-0.006 l 0.062,0.003 q 0.0403,0 0.20154,-0.006 0.16123,-0.006 0.28215,-0.006 0.34417,0 0.45269,0.39378 0.0527,0.19223 0.13332,0.37827 0.10232,0.22944 0.18914,0.555 0.0527,0.19224 0.11782,0.37827 0.0589,0.17364 0.0899,0.35037 0.0341,0.20464 0.10542,0.38137 0.0713,0.17364 0.10852,0.34727 0.0372,0.17053 0.10232,0.32866 0.0248,0.0682 0.0248,0.14883 0.003,0.0806 0.0155,0.14263 0.0372,0.12712 0.0806,0.25114 0.0682,0.18294 0.0837,0.27906 0.003,0.0372 0.0186,0.093 0.0465,0.23565 0.0775,0.45269 0.031,0.21704 0.17053,0.45268 0.0186,0.0403 0.0186,0.0806 0,0.10852 -0.16433,0.22014 -0.12093,0.0961 -0.20774,0.0961 -0.062,0 -0.28526,0.0124 -0.22324,0.0155 -0.34416,0.0155 -0.10232,0 -0.16433,0.003 -0.11782,0.009 -0.20154,0.009 z m -0.78445,-2.50218 q 0.11162,0 0.11162,-0.0961 0,-0.0217 -0.006,-0.031 l -0.0837,-0.46199 -0.0496,-0.0961 q -0.0527,-0.12402 -0.14263,-0.20463 -0.0341,-0.0248 -0.062,-0.0248 -0.0558,0 -0.16433,0.0651 -0.0217,0.0248 -0.0434,0.0434 -0.006,0.006 -0.0124,0.0155 -0.006,0.009 -0.0186,0.0155 -0.0682,0.0837 -0.0682,0.11782 l -0.0434,0.12092 q 0,0.0651 -0.0589,0.26045 -0.0341,0.0341 -0.0434,0.22324 0.0961,0.0124 0.18914,0.0124 l 0.14573,-0.006 q 0.0806,0 0.12092,0.0186 0.10232,0 0.19534,0.0186 0.0124,0.009 0.0341,0.009 z"
         id="path247" /><path
         d="m 257.75946,208.28545 q -0.093,0 -0.26665,-0.0434 l -0.0217,-0.003 q -0.031,0 -0.0651,0.0155 -0.0806,-0.0279 -0.11782,-0.0279 -0.0279,0 -0.0527,0.009 -0.0558,-0.0155 -0.10542,-0.0155 -0.0961,0 -0.18604,-0.031 l -0.0868,-0.0186 q -0.10542,-0.0465 -0.16124,-0.0465 l -0.0372,0.003 q -0.0434,-0.0186 -0.0837,-0.0186 -0.13952,0 -0.22014,-0.13022 -0.0806,-0.11782 -0.0806,-0.21704 0,-0.0775 0.0558,-0.15503 0.0403,-0.0527 0.0465,-0.11782 0.006,-0.26355 0.15193,-0.4961 0.0496,-0.0806 0.0589,-0.18913 0.006,-0.0589 0.0217,-0.11783 0.10852,-0.29455 0.44028,-0.29455 0.0961,0 0.18914,0.0403 0.30385,0.14572 0.62011,0.26045 0.0124,0.003 0.031,0.003 0.093,0 0.15193,-0.0465 0.006,-0.006 0.006,-0.0217 0,-0.0217 -0.009,-0.062 -0.062,-0.10542 -0.12402,-0.11472 -0.16434,-0.0372 -0.31006,-0.12402 -0.21704,-0.12093 -0.39068,-0.13023 -0.13332,-0.0124 -0.26355,-0.0806 -0.0558,-0.0279 -0.11472,-0.0496 -0.0496,-0.031 -0.0651,-0.031 l -0.0527,0.003 q -0.14263,-0.031 -0.22324,-0.10542 -0.0992,-0.0558 -0.16743,-0.17983 -0.0434,-0.0713 -0.0899,-0.13333 -0.12713,-0.16743 -0.19224,-0.35657 -0.0651,-0.18913 -0.11782,-0.41237 -0.0186,-0.0682 -0.0186,-0.11472 0,-0.12093 0.0155,-0.17674 0.003,-0.13022 0.0372,-0.20464 0.0341,-0.0775 0.0403,-0.15813 0.0713,-0.13952 0.17984,-0.33176 0.25735,-0.45268 0.57361,-0.62322 0.28215,-0.15503 0.57981,-0.26355 0.30075,-0.10852 0.63252,-0.12092 l 0.25734,-0.009 q 0.16433,-0.0124 0.32867,-0.0124 0.11782,0 0.23564,0.006 0.25115,0.0279 0.49299,0.11782 0.18914,0.0589 0.34727,0.13332 l 0.13642,0.0589 q 0.20464,0.093 0.20464,0.25424 0,0.0806 -0.0527,0.17984 -0.0341,0.0465 -0.0496,0.0868 -0.21704,0.87747 -0.21704,0.92088 l 0.003,0.0341 q 0,0.0589 -0.0186,0.0713 -0.0372,0.0186 -0.10542,0.0186 -0.0589,0 -0.093,0.006 -0.10232,0.0279 -0.19843,0.0279 -0.20774,0 -0.55811,-0.18294 -0.0279,-0.009 -0.0589,-0.009 -0.0682,0 -0.13953,0.0589 l -0.0217,0.0589 0.0248,0.0403 q 0.0651,0.10542 0.65113,0.28216 0.16123,0.0372 0.36276,0.17983 0.0651,0.0496 0.13333,0.0744 0.13022,0.0465 0.19534,0.12093 0.24804,0.31936 0.30695,0.36587 0.0341,0 0.062,0.0124 0.0868,0.13022 0.0899,0.15193 0.0558,0.15813 0.0806,0.57981 -0.003,0.13022 -0.0403,0.26355 -0.0186,0.0713 -0.031,0.14262 -0.0403,0.29456 -0.26045,0.4961 -0.0806,0.0744 -0.0961,0.12712 -0.0527,0.22324 -0.20774,0.32866 -0.15193,0.10542 -0.35967,0.20464 l -0.093,0.062 q -0.21084,0.0992 -0.39067,0.0992 l -0.22944,-0.003 q -0.0496,0 -0.093,0.0124 -0.18294,0.0589 -0.30696,0.0589 l -0.19224,-0.003 q -0.0248,-0.009 -0.0527,-0.009 -0.0279,0 -0.12402,-0.006 -0.0682,0.0217 -0.13022,0.0279 z"
         id="path249" /><path
         d="m 263.70639,208.30095 q -0.0434,0 -0.093,-0.0155 -0.0496,-0.0155 -0.0837,-0.0155 -0.62011,0.0124 -0.73484,0.0124 -0.13952,0 -0.27595,-0.0248 -0.093,-0.0217 -0.13642,-0.0899 -0.0403,-0.0651 -0.0713,-0.17363 -0.14883,-0.38447 -0.19844,-0.5519 -0.0806,-0.26045 -0.19223,-0.5147 -0.11162,-0.25735 -0.19224,-0.5271 -0.17363,-0.58601 -0.39687,-1.15342 -0.17054,-0.46819 -0.26665,-0.68833 -0.0868,-0.20464 -0.16433,-0.41238 -0.0527,-0.15503 -0.0868,-0.31936 -0.0465,-0.22014 -0.0899,-0.29455 -0.0465,-0.0899 -0.0465,-0.17053 0,-0.0713 0.0372,-0.13643 0.0806,-0.13643 0.24805,-0.15503 0.10542,-0.009 0.21394,-0.0372 0.13332,-0.031 0.26975,-0.0372 0.15813,0.006 0.42168,0.0217 0.26665,0.0155 0.38137,0.0155 0.11782,0 0.22944,0.0527 0.21704,0.0992 0.32557,0.47129 0.10852,0.37207 0.19533,0.58601 0.0713,0.18294 0.0806,0.36897 l 0.0248,0.23565 q 0.0155,0.19533 0.15193,0.19533 0.17053,-0.0248 0.17673,-0.23254 0,-0.35037 0.0806,-0.62322 0.009,-0.0651 0.0651,-0.20464 l 0.0248,-0.20153 0.12712,-0.62012 q 0.0341,-0.093 0.11782,-0.15193 0.0837,-0.0589 0.17054,-0.0589 l 0.0434,0.003 q 0.18604,0.031 0.37517,0.031 0.15503,0.003 0.5333,0.0403 0.37828,0.0372 0.43409,0.0372 0.17983,0 0.31626,0.14263 0.0775,0.0899 0.0775,0.17673 0,0.0806 -0.0837,0.34417 -0.0806,0.26355 -0.11783,0.35346 l -0.0403,0.15503 q -0.0434,0.21394 -0.14573,0.38757 -0.12403,0.21705 -0.16123,0.45269 -0.0279,0.14263 -0.0806,0.28525 -0.0496,0.13953 -0.0961,0.29146 -0.0992,0.32246 -0.23254,0.62322 -0.14573,0.35967 -0.15813,0.46509 0,0.0465 -0.32556,0.92707 -0.0465,0.11472 -0.0682,0.23875 -0.031,0.24804 -0.17984,0.36276 -0.14883,0.11783 -0.30696,0.11783 -0.0465,0.0155 -0.0961,0.0155 z"
         id="path251" /><path
         d="m 268.16192,208.22964 q -0.17673,0.0248 -0.30385,0.0248 -0.15193,0 -0.22945,-0.0372 -0.0372,-0.0186 -0.0713,-0.0186 -0.0217,0 -0.0403,0.006 l -0.5519,-0.0155 q -0.0806,-0.003 -0.16123,-0.003 -0.0651,0 -0.12713,0.0217 -0.0899,-0.006 -0.16433,-0.006 -0.33486,0 -0.37827,-0.5426 l -0.009,-0.29146 q -0.0186,-0.41548 -0.0186,-0.83405 0,-0.46509 0.0496,-0.93328 l 0.0341,-0.43408 q 0,-0.0589 -0.0124,-0.11472 -0.0124,-0.0589 -0.0124,-0.10853 v -0.0217 q 0.0186,-0.20464 0.0186,-0.41238 0.009,-0.48989 0.0899,-0.76894 0.0372,-0.14883 0.0465,-0.30386 l 0.0217,-0.17363 q 0.0558,-0.39378 0.38757,-0.45579 0.0589,0 0.12713,0.0124 0.0899,0.0186 0.17363,0.0186 0.093,0.0248 0.17363,0.0248 0.11162,0 0.19534,-0.0496 0.031,-0.0248 0.0992,-0.0403 l 0.0341,-0.006 q 0.0434,-0.0124 0.0899,-0.0124 0.0558,0 0.11472,0.0186 0.14573,-0.031 0.33797,-0.031 0.19844,0 0.44648,0.0341 0.0682,0 0.14573,0.0186 0.14573,0 0.29456,0.0186 0.16433,0.0155 0.5674,0.0651 0.29766,0.0558 0.33487,0.0558 l 0.0899,-0.006 q 0.21394,0 0.34417,0.14883 0.0992,0.10852 0.0992,0.25735 0,0.0744 -0.0248,0.15813 -0.0341,0.0837 -0.0341,0.16743 0,0.0992 -0.0124,0.19534 0.0217,0.0403 0.0217,0.0992 0,0.031 -0.0155,0.0465 v 0.21084 q 0,0.0682 0.0155,0.13642 0.0155,0.0651 0.0155,0.11782 0,0.0961 -0.093,0.17364 -0.0899,0.0775 -0.16743,0.10852 -0.0744,0.0279 -0.13022,0.0279 -0.0558,0 -0.11472,-0.0186 -0.38138,-0.13333 -0.66973,-0.13333 -0.12092,0 -0.24495,-0.009 l -0.0279,0.003 q -0.062,0 -0.12713,-0.031 -0.10852,-0.0186 -0.5395,-0.0186 l -0.17673,0.003 q -0.0155,0.003 -0.031,0.0279 -0.0124,0.0248 -0.0434,0.10542 -0.0279,0.0806 -0.0434,0.10852 0.17983,0.0496 0.27905,0.0496 0.0682,0 0.13642,-0.0155 0.0217,-0.006 0.0465,-0.006 0.0496,0.0217 0.14883,0.0217 0.0465,0 0.10852,-0.006 0.0837,0.0155 0.12092,0.0155 h 0.0279 q 0.0434,0 0.0899,-0.031 0.031,-0.003 0.062,-0.003 0.10542,0 0.22324,0.0248 0.0341,-0.006 0.062,-0.006 0.15193,0 0.15193,0.13952 0,0.062 -0.0248,0.13333 -0.0248,0.0713 -0.0248,0.13643 0,0.0868 0.0465,0.16743 0.0279,0.0403 0.0279,0.0837 -0.0155,0.11472 -0.0186,0.22945 -0.006,0.13642 -0.0248,0.26975 -0.0186,0.13332 -0.0496,0.19843 -0.0682,0.0558 -0.15193,0.0744 -0.0837,0.0155 -0.11162,0.0155 -0.0961,0 -0.17674,-0.006 -0.0868,0.003 -0.14572,0.003 -0.0496,0 -0.10232,0.009 -0.0713,0.0124 -0.17053,0.0124 -0.14573,0 -0.23255,-0.0465 -0.0465,-0.0155 -0.093,-0.0155 -0.062,0 -0.11782,0.0465 -0.0899,0.0651 -0.0899,0.14883 0,0.0372 0.0155,0.0806 0.0279,0.062 0.0589,0.0682 0.0341,0.006 0.0589,0.006 0.0434,0 0.0899,0.009 0.0465,0.006 0.10232,0.006 0.10232,0 0.17673,0.009 0.0775,0.006 0.12712,0.006 0.0899,0 0.21084,-0.0155 0.0682,-0.003 0.0899,-0.003 l 0.0155,0.003 q 0.0961,-0.003 0.22015,-0.0341 0.12402,-0.031 0.27285,-0.0527 0.0527,-0.0217 0.11162,-0.062 0.062,-0.0434 0.11782,-0.0682 0.0558,-0.0279 0.0961,-0.0992 0.0186,-0.031 0.0651,-0.031 0.0837,0 0.18914,0.0527 0.0806,0.0434 0.13022,0.10232 0.19534,0.23254 0.19534,0.555 -0.003,0.13023 -0.0155,0.26355 -0.0124,0.11472 -0.0124,0.23255 0,0.17673 0.0589,0.32246 0.0124,0.0341 0.0124,0.0651 0,0.0837 -0.0806,0.16433 -0.10542,0.10852 -0.26355,0.14573 -0.0775,-0.003 -0.15503,-0.0248 -0.0899,0.006 -0.14883,0.006 -0.0589,0 -0.11162,0.0279 -0.12712,0.0155 -0.20154,0.0248 -0.0713,0.009 -0.0899,0.009 -0.11162,0 -0.34107,0.0124 -0.22634,0.0124 -0.36897,0.0124 -0.10232,0 -0.21394,-0.0186 -0.0217,-0.0124 -0.0527,-0.0124 -0.0589,0 -0.14883,0.009 z"
         id="path253" /><path
         d="m 274.81268,208.23894 h -0.53951 q -0.21704,0 -0.34416,-0.25425 -0.0496,-0.0961 -0.10852,-0.18914 -0.0899,-0.14262 -0.26355,-0.5302 -0.062,-0.14572 -0.12713,-0.28835 -0.10542,-0.25425 -0.26355,-0.25425 -0.10542,0 -0.10542,0.5333 0,0.11162 0.009,0.22634 0,0.23565 -0.20154,0.47439 -0.19224,0.25425 -0.5333,0.25425 -0.37827,-0.0341 -0.75034,-0.0589 -0.28836,-0.0341 -0.38758,-0.17673 -0.0992,-0.14573 -0.0992,-0.38137 l 0.003,-0.28216 q 0,-0.25115 -0.006,-0.50229 -0.006,-0.33487 -0.006,-0.67283 0,-0.24185 0.0124,-0.48679 0.009,-0.21394 0.0124,-0.42788 -0.003,-0.18914 -0.0341,-0.38137 l -0.003,-0.0682 0.003,-0.0837 -0.003,-0.39378 q -0.009,-0.11782 -0.009,-0.23254 0,-0.17984 0.0248,-0.35657 l 0.0155,-0.16123 q 0.0558,-0.63252 0.25734,-0.71003 0.10232,-0.0372 0.19844,-0.0372 0.0434,0 0.0899,0.006 0.0775,0.009 0.57671,0.0124 l 0.12712,0.003 q 0.0899,0 0.17053,-0.0186 0.0403,-0.009 0.0837,-0.009 0.11162,0 0.22944,0.0682 0.16123,0.093 0.24495,0.22944 0.19844,0.33177 0.42788,0.66663 0.0992,0.14573 0.19844,0.29766 l 0.0155,-0.0775 q 0.11782,-0.27905 0.13333,-0.35657 0.0186,-0.0806 0.0558,-0.17983 0.0403,-0.0992 0.0403,-0.13643 l -0.003,-0.0806 q 0,-0.11472 0.0279,-0.21084 0.0527,-0.16743 0.25735,-0.28215 0.0217,-0.009 0.0589,-0.009 0.0186,0 0.0465,0.003 0.0279,0.003 0.11472,0.003 l 0.22944,-0.003 q 0.12403,0.009 0.17674,0.009 0.0527,0 0.11162,0.009 0.0589,0.006 0.12092,0.006 0.17983,0 0.35037,-0.009 0.35966,0.0124 0.44028,0.35967 0.0155,0.0682 0.0372,0.13952 0.0682,0.20464 0.0682,0.65733 0.0248,0.15813 0.0248,0.30695 0,0.11473 -0.0155,0.23565 -0.0124,0.12092 -0.0124,0.24805 l 0.003,0.22944 q 0,0.0589 0.0248,0.17673 0.0248,0.11782 0.0279,0.23565 0,0.36897 -0.031,0.73794 -0.006,0.0868 -0.006,0.17673 0,0.12402 0.009,0.24495 0.009,0.11782 0.009,0.23254 0,0.21084 -0.0217,0.42478 -0.0124,0.12092 -0.0186,0.24185 -0.003,0.0589 -0.0124,0.11472 -0.0155,0.0775 -0.0155,0.15813 -0.009,0.17363 -0.14573,0.36897 -0.13332,0.19223 -0.33486,0.19223 -0.21394,0.0124 -0.42788,0.0124 -0.11782,0 -0.23874,0.006 z"
         id="path255" /><path
         d="m 278.51788,208.28545 q -0.093,0 -0.26665,-0.0434 l -0.0217,-0.003 q -0.031,0 -0.0651,0.0155 -0.0806,-0.0279 -0.11782,-0.0279 -0.0279,0 -0.0527,0.009 -0.0558,-0.0155 -0.10542,-0.0155 -0.0961,0 -0.18604,-0.031 l -0.0868,-0.0186 q -0.10542,-0.0465 -0.16123,-0.0465 l -0.0372,0.003 q -0.0434,-0.0186 -0.0837,-0.0186 -0.13952,0 -0.22014,-0.13022 -0.0806,-0.11782 -0.0806,-0.21704 0,-0.0775 0.0558,-0.15503 0.0403,-0.0527 0.0465,-0.11782 0.006,-0.26355 0.15193,-0.4961 0.0496,-0.0806 0.0589,-0.18913 0.006,-0.0589 0.0217,-0.11783 0.10852,-0.29455 0.44028,-0.29455 0.0961,0 0.18914,0.0403 0.30386,0.14572 0.62012,0.26045 0.0124,0.003 0.031,0.003 0.093,0 0.15193,-0.0465 0.006,-0.006 0.006,-0.0217 0,-0.0217 -0.009,-0.062 -0.062,-0.10542 -0.12402,-0.11472 -0.16433,-0.0372 -0.31006,-0.12402 -0.21704,-0.12093 -0.39067,-0.13023 -0.13333,-0.0124 -0.26355,-0.0806 -0.0558,-0.0279 -0.11473,-0.0496 -0.0496,-0.031 -0.0651,-0.031 l -0.0527,0.003 q -0.14263,-0.031 -0.22324,-0.10542 -0.0992,-0.0558 -0.16743,-0.17983 -0.0434,-0.0713 -0.0899,-0.13333 -0.12712,-0.16743 -0.19224,-0.35657 -0.0651,-0.18913 -0.11782,-0.41237 -0.0186,-0.0682 -0.0186,-0.11472 0,-0.12093 0.0155,-0.17674 0.003,-0.13022 0.0372,-0.20464 0.0341,-0.0775 0.0403,-0.15813 0.0713,-0.13952 0.17983,-0.33176 0.25735,-0.45268 0.57361,-0.62322 0.28215,-0.15503 0.57981,-0.26355 0.30076,-0.10852 0.63252,-0.12092 l 0.25735,-0.009 q 0.16433,-0.0124 0.32866,-0.0124 0.11782,0 0.23564,0.006 0.25115,0.0279 0.493,0.11782 0.18913,0.0589 0.34726,0.13332 l 0.13643,0.0589 q 0.20464,0.093 0.20464,0.25424 0,0.0806 -0.0527,0.17984 -0.0341,0.0465 -0.0496,0.0868 -0.21704,0.87747 -0.21704,0.92088 l 0.003,0.0341 q 0,0.0589 -0.0186,0.0713 -0.0372,0.0186 -0.10542,0.0186 -0.0589,0 -0.093,0.006 -0.10232,0.0279 -0.19844,0.0279 -0.20774,0 -0.55811,-0.18294 -0.0279,-0.009 -0.0589,-0.009 -0.0682,0 -0.13952,0.0589 l -0.0217,0.0589 0.0248,0.0403 q 0.0651,0.10542 0.65112,0.28216 0.16123,0.0372 0.36277,0.17983 0.0651,0.0496 0.13332,0.0744 0.13023,0.0465 0.19534,0.12093 0.24805,0.31936 0.30696,0.36587 0.0341,0 0.062,0.0124 0.0868,0.13022 0.0899,0.15193 0.0558,0.15813 0.0806,0.57981 -0.003,0.13022 -0.0403,0.26355 -0.0186,0.0713 -0.031,0.14262 -0.0403,0.29456 -0.26045,0.4961 -0.0806,0.0744 -0.0961,0.12712 -0.0527,0.22324 -0.20774,0.32866 -0.15193,0.10542 -0.35967,0.20464 l -0.093,0.062 q -0.21084,0.0992 -0.39068,0.0992 l -0.22944,-0.003 q -0.0496,0 -0.093,0.0124 -0.18293,0.0589 -0.30696,0.0589 l -0.19223,-0.003 q -0.0248,-0.009 -0.0527,-0.009 -0.0279,0 -0.12403,-0.006 -0.0682,0.0217 -0.13022,0.0279 z"
         id="path257" /><path
         d="m 283.59664,208.28545 q -0.093,0 -0.26665,-0.0434 l -0.0217,-0.003 q -0.031,0 -0.0651,0.0155 -0.0806,-0.0279 -0.11782,-0.0279 -0.0279,0 -0.0527,0.009 -0.0558,-0.0155 -0.10542,-0.0155 -0.0961,0 -0.18604,-0.031 l -0.0868,-0.0186 q -0.10542,-0.0465 -0.16123,-0.0465 l -0.0372,0.003 q -0.0434,-0.0186 -0.0837,-0.0186 -0.13953,0 -0.22014,-0.13022 -0.0806,-0.11782 -0.0806,-0.21704 0,-0.0775 0.0558,-0.15503 0.0403,-0.0527 0.0465,-0.11782 0.006,-0.26355 0.15193,-0.4961 0.0496,-0.0806 0.0589,-0.18913 0.006,-0.0589 0.0217,-0.11783 0.10852,-0.29455 0.44028,-0.29455 0.0961,0 0.18914,0.0403 0.30385,0.14572 0.62011,0.26045 0.0124,0.003 0.031,0.003 0.093,0 0.15193,-0.0465 0.006,-0.006 0.006,-0.0217 0,-0.0217 -0.009,-0.062 -0.062,-0.10542 -0.12403,-0.11472 -0.16433,-0.0372 -0.31005,-0.12402 -0.21705,-0.12093 -0.39068,-0.13023 -0.13332,-0.0124 -0.26355,-0.0806 -0.0558,-0.0279 -0.11472,-0.0496 -0.0496,-0.031 -0.0651,-0.031 l -0.0527,0.003 q -0.14263,-0.031 -0.22324,-0.10542 -0.0992,-0.0558 -0.16744,-0.17983 -0.0434,-0.0713 -0.0899,-0.13333 -0.12713,-0.16743 -0.19224,-0.35657 -0.0651,-0.18913 -0.11782,-0.41237 -0.0186,-0.0682 -0.0186,-0.11472 0,-0.12093 0.0155,-0.17674 0.003,-0.13022 0.0372,-0.20464 0.0341,-0.0775 0.0403,-0.15813 0.0713,-0.13952 0.17984,-0.33176 0.25735,-0.45268 0.5736,-0.62322 0.28216,-0.15503 0.57981,-0.26355 0.30076,-0.10852 0.63252,-0.12092 l 0.25735,-0.009 q 0.16433,-0.0124 0.32866,-0.0124 0.11783,0 0.23565,0.006 0.25115,0.0279 0.49299,0.11782 0.18914,0.0589 0.34727,0.13332 l 0.13642,0.0589 q 0.20464,0.093 0.20464,0.25424 0,0.0806 -0.0527,0.17984 -0.0341,0.0465 -0.0496,0.0868 -0.21704,0.87747 -0.21704,0.92088 l 0.003,0.0341 q 0,0.0589 -0.0186,0.0713 -0.0372,0.0186 -0.10542,0.0186 -0.0589,0 -0.093,0.006 -0.10232,0.0279 -0.19844,0.0279 -0.20774,0 -0.5581,-0.18294 -0.0279,-0.009 -0.0589,-0.009 -0.0682,0 -0.13953,0.0589 l -0.0217,0.0589 0.0248,0.0403 q 0.0651,0.10542 0.65112,0.28216 0.16124,0.0372 0.36277,0.17983 0.0651,0.0496 0.13333,0.0744 0.13022,0.0465 0.19534,0.12093 0.24804,0.31936 0.30695,0.36587 0.0341,0 0.062,0.0124 0.0868,0.13022 0.0899,0.15193 0.0558,0.15813 0.0806,0.57981 -0.003,0.13022 -0.0403,0.26355 -0.0186,0.0713 -0.031,0.14262 -0.0403,0.29456 -0.26045,0.4961 -0.0806,0.0744 -0.0961,0.12712 -0.0527,0.22324 -0.20774,0.32866 -0.15193,0.10542 -0.35967,0.20464 l -0.093,0.062 q -0.21084,0.0992 -0.39067,0.0992 l -0.22945,-0.003 q -0.0496,0 -0.093,0.0124 -0.18294,0.0589 -0.30696,0.0589 l -0.19224,-0.003 q -0.0248,-0.009 -0.0527,-0.009 -0.0279,0 -0.12402,-0.006 -0.0682,0.0217 -0.13023,0.0279 z"
         id="path259" /><path
         d="m 289.218,208.34126 q -0.45269,0 -0.86507,-0.21704 -0.0713,-0.0403 -0.13022,-0.10852 -0.0589,-0.0682 -0.29766,-0.25425 -0.21394,-0.15813 -0.40927,-0.33797 -0.0961,-0.10232 -0.24805,-0.42168 -0.10232,-0.19223 -0.11472,-0.20153 -0.0124,-0.009 -0.0341,-0.0651 -0.0341,-0.12712 -0.11162,-0.28525 -0.15193,-0.30696 -0.15193,-0.5147 0,-0.0713 0.0124,-0.14883 l 0.009,-0.26665 q 0.0651,-0.29455 0.10231,-0.59531 0.0372,-0.27595 0.22325,-0.66042 0.0589,-0.12403 0.11162,-0.24805 0.0341,-0.0992 0.10232,-0.14263 l 0.30075,-0.36897 q 0.0403,-0.0837 0.10852,-0.12092 0.0682,-0.0372 0.14883,-0.062 0.11162,-0.0992 0.17054,-0.16123 0.20463,-0.20154 0.43718,-0.20154 l 0.0806,-0.0589 q 0.0837,0 0.12713,-0.0434 0.16743,-0.0713 0.33486,-0.0713 0.10232,0 0.20774,0.0248 l 0.0527,0.003 q 0.0372,0 0.0775,-0.009 0.0527,-0.009 0.23875,-0.0155 0.10232,0 0.19224,0.031 0.22634,0.0992 0.47439,0.13643 0.10852,0.0279 0.21394,0.11162 0.0434,0.031 0.0868,0.0589 0.0434,0.0279 0.0806,0.0527 0.0744,0.0496 0.15193,0.0899 0.22634,0.10852 0.43718,0.35036 0.21394,0.23875 0.26355,0.44339 0.0279,0.0992 0.093,0.18913 0.11782,0.15813 0.20463,0.54261 0.0744,0.24494 0.0744,0.48369 0,0.60461 -0.062,0.78755 -0.0372,0.10852 -0.10232,0.42788 -0.062,0.31936 -0.12403,0.40617 -0.031,0.0465 -0.0558,0.0899 -0.031,0.0558 -0.0682,0.10852 -0.42478,0.58291 -1.0573,0.95498 -0.31626,0.17674 -0.63872,0.23255 -0.32246,0.0558 -0.64802,0.0558 z m 0.17363,-1.90376 0.11782,-0.0124 q 0.0961,-0.003 0.19844,-0.0713 0.10232,-0.0713 0.19224,-0.11162 l 0.0589,-0.13333 q 0.0558,-0.26975 0.14262,-0.44648 0,-0.28215 -0.0248,-0.41548 0,-0.19223 -0.12712,-0.35967 -0.16744,-0.22324 -0.42168,-0.22324 -0.15193,0 -0.31316,0.10232 -0.15813,0.0992 -0.20464,0.22014 -0.0403,0.10542 -0.0992,0.31316 -0.0527,0.16123 -0.0527,0.27905 0,0.11473 -0.006,0.25425 -0.006,0.062 -0.006,0.0992 0.0186,0.0279 0.0186,0.0806 0.093,0.20153 0.33486,0.38137 0.062,0.0434 0.19224,0.0434 z"
         id="path261" /><path
         d="m 296.38035,208.23894 h -0.5395 q -0.21704,0 -0.34417,-0.25425 -0.0496,-0.0961 -0.10852,-0.18914 -0.0899,-0.14262 -0.26355,-0.5302 -0.062,-0.14572 -0.12712,-0.28835 -0.10542,-0.25425 -0.26355,-0.25425 -0.10542,0 -0.10542,0.5333 0,0.11162 0.009,0.22634 0,0.23565 -0.20154,0.47439 -0.19224,0.25425 -0.5333,0.25425 -0.37827,-0.0341 -0.75034,-0.0589 -0.28836,-0.0341 -0.38757,-0.17673 -0.0992,-0.14573 -0.0992,-0.38137 l 0.003,-0.28216 q 0,-0.25115 -0.006,-0.50229 -0.006,-0.33487 -0.006,-0.67283 0,-0.24185 0.0124,-0.48679 0.009,-0.21394 0.0124,-0.42788 -0.003,-0.18914 -0.0341,-0.38137 l -0.003,-0.0682 0.003,-0.0837 -0.003,-0.39378 q -0.009,-0.11782 -0.009,-0.23254 0,-0.17984 0.0248,-0.35657 l 0.0155,-0.16123 q 0.0558,-0.63252 0.25735,-0.71003 0.10232,-0.0372 0.19843,-0.0372 0.0434,0 0.0899,0.006 0.0775,0.009 0.57671,0.0124 l 0.12712,0.003 q 0.0899,0 0.17054,-0.0186 0.0403,-0.009 0.0837,-0.009 0.11162,0 0.22945,0.0682 0.16123,0.093 0.24494,0.22944 0.19844,0.33177 0.42788,0.66663 0.0992,0.14573 0.19844,0.29766 l 0.0155,-0.0775 q 0.11783,-0.27905 0.13333,-0.35657 0.0186,-0.0806 0.0558,-0.17983 0.0403,-0.0992 0.0403,-0.13643 l -0.003,-0.0806 q 0,-0.11472 0.0279,-0.21084 0.0527,-0.16743 0.25735,-0.28215 0.0217,-0.009 0.0589,-0.009 0.0186,0 0.0465,0.003 0.0279,0.003 0.11472,0.003 l 0.22944,-0.003 q 0.12403,0.009 0.17674,0.009 0.0527,0 0.11162,0.009 0.0589,0.006 0.12092,0.006 0.17984,0 0.35037,-0.009 0.35967,0.0124 0.44028,0.35967 0.0155,0.0682 0.0372,0.13952 0.0682,0.20464 0.0682,0.65733 0.0248,0.15813 0.0248,0.30695 0,0.11473 -0.0155,0.23565 -0.0124,0.12092 -0.0124,0.24805 l 0.003,0.22944 q 0,0.0589 0.0248,0.17673 0.0248,0.11782 0.0279,0.23565 0,0.36897 -0.031,0.73794 -0.006,0.0868 -0.006,0.17673 0,0.12402 0.009,0.24495 0.009,0.11782 0.009,0.23254 0,0.21084 -0.0217,0.42478 -0.0124,0.12092 -0.0186,0.24185 -0.003,0.0589 -0.0124,0.11472 -0.0155,0.0775 -0.0155,0.15813 -0.009,0.17363 -0.14573,0.36897 -0.13333,0.19223 -0.33487,0.19223 -0.21394,0.0124 -0.42788,0.0124 -0.11782,0 -0.23874,0.006 z"
         id="path263" /></g></g></svg>
