<?xml version="1.0" encoding="UTF-8" standalone="no"?>
<!-- Created with Inkscape (http://www.inkscape.org/) -->

<svg
   width="93.825386"
   height="171.78395"
   viewBox="0 0 24.824634 45.45117"
   version="1.1"
   id="svg4829"
   inkscape:version="1.2 (dc2aedaf03, 2022-05-15)"
   sodipodi:docname="tempkaraktär.svg"
   xmlns:inkscape="http://www.inkscape.org/namespaces/inkscape"
   xmlns:sodipodi="http://sodipodi.sourceforge.net/DTD/sodipodi-0.dtd"
   xmlns:xlink="http://www.w3.org/1999/xlink"
   xmlns="http://www.w3.org/2000/svg"
   xmlns:svg="http://www.w3.org/2000/svg">
  <sodipodi:namedview
     id="namedview4831"
     pagecolor="#ffffff"
     bordercolor="#000000"
     borderopacity="0.25"
     inkscape:showpageshadow="2"
     inkscape:pageopacity="0.0"
     inkscape:pagecheckerboard="0"
     inkscape:deskcolor="#d1d1d1"
     inkscape:document-units="mm"
     showgrid="false"
     inkscape:zoom="0.70199214"
     inkscape:cx="312.68156"
     inkscape:cy="239.31892"
     inkscape:window-width="1920"
     inkscape:window-height="986"
     inkscape:window-x="-11"
     inkscape:window-y="-11"
     inkscape:window-maximized="1"
     inkscape:current-layer="layer1" />
  <defs
     id="defs4826" />
  <g
     inkscape:label="Lager 1"
     inkscape:groupmode="layer"
     id="layer1"
     transform="translate(-12.463319,-85.068831)">
    <g
       id="g11255"
       inkscape:label="Baskaraktär"
       transform="matrix(0.75,0,0,0.75,-97.965429,-97.043233)"
       sodipodi:insensitive="true">
      <use
         x="0"
         y="0"
         xlink:href="#path12021"
         id="use14929"
         transform="translate(11.955859,0.31419271)"
         inkscape:label="Fot (klon)" />
      <path
         style="opacity:1;fill:#eceac6;stroke:none;stroke-width:0.319951;stroke-linecap:butt;stroke-linejoin:bevel;stroke-dasharray:none;stroke-opacity:1"
         d="m 156.49221,301.64438 c 0.89457,0.62186 1.55722,1.06543 2.82322,1.31586 1.16378,0.2122 2.05271,0.19478 3.21649,-0.0938 0.77519,-0.28377 1.70088,-0.34183 2.0425,-1.61681 0,-0.61558 -0.0791,-1.46749 -0.3923,-1.78071 -0.48221,-0.48221 -0.9315,-0.82704 -1.56052,-1.19021 -1.08367,-0.62566 -1.73533,-0.99832 -3.72935,-1.34893 -1.11585,-0.0709 -1.64695,0.26036 -2.43335,0.7406 -0.51557,0.38263 -0.74592,0.44355 -0.98436,1.67907 0.16844,0.84371 -0.002,1.70641 1.01767,2.29493 z"
         id="path12021"
         sodipodi:nodetypes="cccccccccc"
         inkscape:label="Fot" />
      <path
         style="opacity:1;fill:#eceac6;stroke:none;stroke-width:0.282521;stroke-linecap:butt;stroke-linejoin:bevel;stroke-dasharray:none;stroke-opacity:1"
         d="m 156.49494,282.00358 -1.03232,17.38832 c 0.92377,0.61945 2.00883,0.89328 3.15129,1.04411 1.66725,0.14778 2.32207,-0.21066 3.15128,-0.4819 l 3.04262,-15.66155 2.60797,15.4206 c 0.73118,0.73118 2.02057,0.84391 3.21016,0.84601 2.09608,0 2.58747,-0.45644 3.47273,-0.82593 l -2.3363,-17.85015 z"
         id="path12013"
         sodipodi:nodetypes="cccccccccc"
         inkscape:label="Ben" />
      <path
         style="opacity:1;fill:#eceac6;stroke:none;stroke-width:0.402696;stroke-linecap:butt;stroke-linejoin:bevel;stroke-dasharray:none;stroke-opacity:1"
         d="m 155.90419,262.47349 -2.53047,20.19969 c 1.31384,1.85797 4.43107,2.86521 10.39849,2.60993 3.69831,-0.2089 7.22519,-1.05612 10.69502,-2.78965 l -2.44122,-20.17339 z"
         id="path11251"
         sodipodi:nodetypes="cccccc"
         inkscape:label="Överkropp" />
      <ellipse
         style="fill:#eceac6;fill-opacity:1;stroke:none;stroke-width:0.402344"
         id="path2123"
         cx="163.78809"
         cy="255.46129"
         rx="16.549755"
         ry="12.645203"
         inkscape:label="Huvud" />
    </g>
  </g>
</svg>
